<?xml version="1.0" ?><svg viewBox="0 0 1000 1000" xmlns="http://www.w3.org/2000/svg"><path d="m907 270.19a51.33 51.33 0 0 0 -21.41.15c-18.94 4.4-32.92 20.37-43.34 36.79s-19 34.5-33.2 47.73-36.69 20.39-53.35 10.35c-12.2-7.35-18.55-22.06-30.78-29.36-14.06-8.38-32.92-4.61-45.93 5.3-10.57 8.05-18 19.39-23.92 31.38v62.76h251.93z" fill="#18c4ff"/><path d="m907.53 268.18c-9-1.69-18.25-1.55-27 1.41a59.67 59.67 0 0 0 -19.53 11.6c-12.11 10.48-20.4 24.33-28.45 38s-16.55 28.44-29.66 38.07c-11.41 8.41-27 13.62-40.85 8.68-14.19-5.05-20.68-20.16-32-29a36.24 36.24 0 0 0 -21.04-7.76 47.73 47.73 0 0 0 -22.45 4.9c-14.76 7.05-24.86 21-32.18 35.15a8.7 8.7 0 0 0 -1.37 3.87v62.19a2.12 2.12 0 0 0 2.09 2.09h241.7c3.27 0 6.54.06 9.8 0h.41a2.12 2.12 0 0 0 2.09-2.09v-144.86c0-6.64.2-13.32 0-20v-.28c0-2.69-4.18-2.69-4.18 0v158.46c0 2.11-.17 4.29 0 6.4v.28l2.09-2.1h-241.73c-3.25 0-6.54-.15-9.79 0h-.43l2.09 2.1v-62.76l-.29 1.05c4.91-9.85 10.78-19.37 18.87-26.94 7.59-7.11 17.29-12.14 27.74-13.13a35.5 35.5 0 0 1 14.83 1.57 33.58 33.58 0 0 1 12.32 7.84c7.33 7 12.76 15.84 20.93 22 17 12.85 40.47 6.48 55.84-5.88 8.64-6.94 15.35-16.15 21.27-25.44 6-9.45 11.29-19.37 17.52-28.69 5.73-8.58 12.41-16.8 20.63-23.12 8.74-6.71 19.09-10.71 30.19-10.56a55.25 55.25 0 0 1 9.43 1c2.63.47 3.76-3.56 1.11-4.05z" fill="#18c4ff"/><path d="m568.55 160.1h19.99v149.22h-19.99z"/><path d="m588.54 307.23h-20l2.09 2.09v-143.13c0-1.92.17-3.92 0-5.84v-.25l-2.09 2.09h20l-2.09-2.09v130.9c0 6-.19 12.05 0 18.05a2.09 2.09 0 0 1 0 .25c0 2.69 4.19 2.7 4.19 0v-130.9c0-6 .19-12.05 0-18.05a2.09 2.09 0 0 1 0-.25 2.12 2.12 0 0 0 -2.1-2.09h-20a2.12 2.12 0 0 0 -2.09 2.09v130.9c0 6-.2 12.05 0 18.05v.25a2.12 2.12 0 0 0 2.09 2.09h20c2.7.02 2.7-4.16 0-4.16z"/><g fill="#18c4ff"><path d="m367.01 264.25h19.99v45.07h-19.99z"/><path d="m387 307.23h-20l2.09 2.09v-45.07l-2.09 2.09h20l-2.09-2.09v45.07c0 2.69 4.18 2.7 4.18 0v-45.07a2.12 2.12 0 0 0 -2.09-2.09h-20a2.12 2.12 0 0 0 -2.09 2.09v45.07a2.12 2.12 0 0 0 2.09 2.09h20c2.69 0 2.7-4.18 0-4.18z"/><path d="m407.32 242.1h19.99v67.22h-19.99z"/><path d="m427.31 307.23h-20l2.09 2.09v-67.22l-2.09 2.1h20l-2.09-2.1v67.22c0 2.69 4.18 2.7 4.18 0v-67.22a2.12 2.12 0 0 0 -2.09-2.09h-20a2.13 2.13 0 0 0 -2.1 2.09v67.22a2.12 2.12 0 0 0 2.1 2.09h20c2.69 0 2.69-4.18 0-4.18z"/><path d="m447.62 247.81h19.99v61.51h-19.99z"/><path d="m467.62 307.23h-20l2.1 2.09v-61.51l-2.1 2.09h20l-2.09-2.09v61.51c0 2.69 4.18 2.7 4.18 0v-61.51a2.13 2.13 0 0 0 -2.09-2.1h-20a2.12 2.12 0 0 0 -2.09 2.1v61.51a2.12 2.12 0 0 0 2.09 2.09h20c2.69 0 2.69-4.18 0-4.18z"/><path d="m487.93 223.66h19.99v85.66h-19.99z"/><path d="m507.93 307.23h-20l2.09 2.09v-82.17a31 31 0 0 0 0-3.34v-.15l-2.09 2.09h20l-2.1-2.09v75.06c0 3.47-.14 7 0 10.45a.75.75 0 0 1 0 .15c0 2.69 4.19 2.7 4.19 0v-75.06c0-3.47.15-7 0-10.45v-.15a2.12 2.12 0 0 0 -2.09-2.09h-20a2.12 2.12 0 0 0 -2.09 2.09v75.06c0 3.47-.15 7 0 10.45v.15a2.12 2.12 0 0 0 2.09 2.09h20c2.69 0 2.69-4.18 0-4.18z"/><path d="m528.24 201.1h19.99v108.22h-19.99z"/><path d="m548.24 307.23h-20l2.09 2.09v-103.81c0-1.38.14-2.84 0-4.22v-.19l-2.09 2.09h20l-2.1-2.09v94.9c0 4.36-.17 8.76 0 13.13a1.21 1.21 0 0 1 0 .19c0 2.69 4.19 2.7 4.19 0v-94.9c0-4.36.17-8.76 0-13.13a1.2 1.2 0 0 1 0-.19 2.12 2.12 0 0 0 -2.09-2.09h-20a2.12 2.12 0 0 0 -2.09 2.09v94.9c0 4.36-.17 8.76 0 13.13v.19a2.12 2.12 0 0 0 2.09 2.09h20c2.69 0 2.69-4.18 0-4.18z"/></g><path d="m968.44 568.36h-652c-6 0-11.94.22-17.88 0-3.36-.12-5-2.52-5.07-5.62s0-6.12 0-9.18v-434.8c0-3.5-.44-7.61 4.48-8.09 1.14-.11 2.36 0 3.52 0h660.72c1.91 0 3.83-.08 5.74 0 3.5.15 4.91 2.7 5 5.78.13 9.09 0 18.19 0 27.27v416.48c0 3.45.49 7.83-4.47 8.16-2.68.18-2.7 4.36 0 4.18 6.55-.44 8.65-5.58 8.65-11.14v-417.85c0-9.09.08-18.18 0-27.26 0-5.3-3.16-9.58-8.82-9.8-1.6-.07-3.21 0-4.81 0h-662.42a26.36 26.36 0 0 0 -4.53.13c-6 1-7.21 6.24-7.21 11.25v435.91c0 7.27-1.69 18.38 8.89 18.76 5.39.2 10.82 0 16.22 0h654c2.68 0 2.68-4.18-.01-4.18z"/><path d="m77.82 409.81q.14 12.56.73 25.1c.08 1.79.24 3.75 1.5 5a7.35 7.35 0 0 0 3.62 1.65c39.08 9.61 81.85 12.33 118.29-4.75 2.27-1.06 4.61-2.3 5.9-4.44 1.14-1.89 1.28-4.2 1.36-6.41a298.84 298.84 0 0 0 -2.51-51.52"/><path d="m77.05 409.81q.06 12.3.54 24.61c.12 3.14.58 6.16 3.8 7.51 3 1.27 6.49 1.77 9.66 2.47a241.69 241.69 0 0 0 42.95 5.82 164.89 164.89 0 0 0 42.56-3.56 128.28 128.28 0 0 0 20.16-6.29 47.53 47.53 0 0 0 9.16-4.37 10.18 10.18 0 0 0 4.39-7.94c.41-4.26.33-8.62.33-12.9q0-6.89-.29-13.77a204.84 204.84 0 0 0 -2.56-27.21c-.21-1.16-2.19-.91-2.08.28.7 7.67 1.69 15.3 2.13 23s.6 15.41.45 23.11c0 1.94-.08 3.88-.17 5.82a12.16 12.16 0 0 1 -1 5.06c-1.4 2.71-4.65 3.93-7.27 5.12a123.7 123.7 0 0 1 -19.27 6.77c-26.62 7-54.77 5.53-81.59.46q-5.82-1.1-11.59-2.43a41.24 41.24 0 0 1 -5.18-1.28c-2-.74-2.47-2.46-2.63-4.4-.72-8.59-.8-17.28-1-25.88a.77.77 0 0 0 -1.53 0z"/><path d="m373.63 346.6q-3.44-7.53-6.88-15.05c-.66-1.45-1.4-3-2.78-3.77s-3.38-.58-5.07-.2c-6.23 1.41-12.13 3.95-18 6.41q-23.19 9.67-46.94 17.95c-1.78.62-3.69 1.25-5.52.79a9.7 9.7 0 0 1 -3.64-2.2 225.06 225.06 0 0 1 -49.42-58.08c-3.36-5.68-6.58-11.65-11.61-15.92-3.72-3.17-8.25-5.23-12.84-6.95a108.74 108.74 0 0 0 -43.39-6.73h-1.85c.05.13.11.25.16.38a8.05 8.05 0 0 1 .69 3 8.48 8.48 0 0 1 -1 3.4 74.05 74.05 0 0 1 -12.77 18.86 5.06 5.06 0 0 1 -1.87 1.45c-1.67.61-3.42-.55-4.82-1.64l-7.91-6.19a1.52 1.52 0 0 0 -.86-.42 1.59 1.59 0 0 0 -.93.46l-4.89 4.08a20 20 0 0 1 -5.37 3.55 6.69 6.69 0 0 1 -6.19-.45 9.76 9.76 0 0 1 -2.55-3.24c-4-6.83-8-14-8.92-21.8l-23.53.58s-20.52 74.77-14.36 100.64 28.55 19.75 41.3 21.15 105.8-12 106.54-15.69-2.7-8.24-2.69-13.63 12.06-10.5 18.39-12 9.13 4 7.13 6.36-2.09-.2 9.51 8.95 5.2 16.26 1.49 21.5-10.57 3.57-14.56 3-11.71-4.6-11.71-4.6c2.78 2.39 28.2 22.3 31.22 24.4 24.51 17 54.58-1.44 75-16.13 14.45-10.4 27.34-22.78 40.17-35.12a4.85 4.85 0 0 0 1.27-7z"/><path d="m374.53 346.07-6-13.17c-1.48-3.24-2.88-6.75-7-6.72a21.61 21.61 0 0 0 -5.61 1.09c-2.35.65-4.65 1.45-6.93 2.31-4.29 1.63-8.49 3.47-12.73 5.21q-13.12 5.38-26.43 10.34-6.66 2.46-13.35 4.83c-2 .71-4.21 1.77-6.37 1.87-2.53.12-4.39-1.88-6.17-3.39a224 224 0 0 1 -34.57-36.87 229.48 229.48 0 0 1 -13.85-21c-4.1-7-8.33-13.77-15.48-18a65.37 65.37 0 0 0 -13.1-5.54 106.62 106.62 0 0 0 -14.84-3.71 131 131 0 0 0 -26.4-1.52 1.06 1.06 0 0 0 -.9 1.57 5.88 5.88 0 0 1 .33 4.52 34.42 34.42 0 0 1 -2.18 4.49 72.81 72.81 0 0 1 -10.38 14.73c-1.2 1.31-2.26 2.39-4.1 1.48a24.63 24.63 0 0 1 -4-2.9l-3.72-2.92c-.93-.72-2.17-2.15-3.46-2.17-1 0-1.84.91-2.56 1.5l-3.78 3.15c-2.16 1.8-4.61 3.94-7.58 4-3.41 0-4.72-3-6.19-5.58-3.46-6-6.84-12.39-7.69-19.4a1.07 1.07 0 0 0 -1-1l-23.53.57a1.09 1.09 0 0 0 -1 .77c-2.11 7.39-3.96 14.92-5.65 22.39a461.8 461.8 0 0 0 -8.45 45.63 160.81 160.81 0 0 0 -1.49 21.47c.08 6.7.95 13.39 3.95 19.47a23.6 23.6 0 0 0 15.73 12.56c6.27 1.58 12.78 1.2 19.19 1.3 3.68 0 7.26.41 11 .23 5.15-.27 10.28-.77 15.4-1.32 14-1.48 27.88-3.37 41.77-5.47 11.88-1.79 23.82-3.6 35.54-6.28 2.4-.55 5.64-.95 7.72-2.4s.54-5.25-.06-7.07c-.83-2.49-2-5.27-1.79-8 .13-1.59 1.38-2.87 2.52-3.87 3.33-2.89 7.75-4.72 11.89-6.1 2.91-1 8.92-2.53 9.62 2.12.26 1.73-1.66 2.09-1.62 3.58s2.72 2.54 3.7 3.19c1.89 1.26 3.73 2.6 5.54 4 2.41 1.84 4.87 3.78 6.47 6.4 2.09 3.42 1.6 7-.33 10.34-1.83 3.19-4.1 6.88-7.92 7.69-3.62.76-8.1-.07-11.57-1.24a62 62 0 0 1 -8.57-3.73c-1-.52-2.22.83-1.27 1.64 5.77 4.94 11.91 9.5 17.9 14.17 3.43 2.67 6.85 5.34 10.31 8a48.06 48.06 0 0 0 10.32 6.33c12.87 5.44 27 2.76 39.47-2.54 13.17-5.63 25.28-14 36.5-22.79 7.45-5.85 14.52-12.16 21.43-18.63q5.19-4.86 10.3-9.8c1.36-1.3 3.07-2.6 3.81-4.39s.05-3.73-.74-5.47c-.55-1.22-2.35-.16-1.8 1.06a5.49 5.49 0 0 1 .76 3.15 5.1 5.1 0 0 1 -1.69 2.43c-1.48 1.45-3 2.87-4.48 4.3q-4.41 4.23-8.88 8.41c-5.83 5.41-11.77 10.71-18 15.69-10.78 8.68-22.45 16.84-35 22.75-11.87 5.59-25.67 9.18-38.53 4.82-7.88-2.68-14.3-8.52-20.76-13.56s-13.2-10-19.47-15.39l-1.27 1.64c6.1 3.15 13.15 6.12 20.18 5.42a10.47 10.47 0 0 0 5.79-2.25 20.94 20.94 0 0 0 3.43-4.28c1.91-2.72 3.65-5.82 3.57-9.24-.11-4.8-3.61-8.54-7.16-11.34-3.06-2.42-6.24-4.63-9.5-6.77-.22-.14-.58-.41-.59-.4-.18.06.14-.17.08.21 0 .16 0 .59-.05.52s-.18.16.05 0c.08-.07.15-.16.22-.23a6.89 6.89 0 0 0 .75-.87c1.84-2.66-.12-6.17-2.74-7.41-3.7-1.76-8.22.19-11.73 1.59-3.85 1.53-8 3.44-10.88 6.49a7.24 7.24 0 0 0 -2.15 4.08c-.26 2.46.57 5.06 1.33 7.37.36 1.1.76 2.2 1.06 3.33a16.16 16.16 0 0 1 .29 3.16c0-.31.23-.13.07-.2s.3-.14 0 0c-.08 0-.16.1-.25.14a9.42 9.42 0 0 1 -1.13.45c-.65.22-1.3.41-1.95.59-1.84.51-3.71.94-5.57 1.34-5.44 1.19-10.92 2.17-16.41 3.11-14.18 2.43-28.43 4.5-42.71 6.32-11.17 1.42-22.46 3-33.73 3.27-4.26.11-8.52-.34-12.79-.34-6.47 0-13.35 0-19.27-3-13.5-6.7-13.77-24.08-12.94-37.08 1-15.8 3.94-31.48 7.22-46.94q3.38-15.9 7.53-31.63l.42-1.58-1 .77 23.53-.58-1-1c.84 6.86 3.82 13.08 7.18 19 1.43 2.54 2.82 6 5.6 7.36 2.58 1.26 5.62.6 8-.76 2.92-1.66 5.45-4.15 8-6.3.55-.45.62-.7 1.28-.58.5.09.94.59 1.32.89l2.09 1.64 4.53 3.54c2.27 1.75 5 3 7.39.79a49.23 49.23 0 0 0 6.58-7.87 75.14 75.14 0 0 0 6-9.74 19 19 0 0 0 2.1-5 8.52 8.52 0 0 0 -.87-4.9l-.91 1.57a132.2 132.2 0 0 1 23.56 1.02 99.42 99.42 0 0 1 25.48 7.26 32.71 32.71 0 0 1 10.45 7.08 53.23 53.23 0 0 1 6.92 9.67c4.28 7.19 8.64 14.28 13.54 21.07a226.57 226.57 0 0 0 32.8 36.38q2.16 1.92 4.36 3.78c1.48 1.25 3 2.72 4.86 3.35a8.89 8.89 0 0 0 5.44-.28c2.25-.7 4.45-1.55 6.66-2.33q13.38-4.77 26.58-10 7.14-2.82 14.24-5.78c4.69-2 9.36-4 14.22-5.46 2.16-.67 4.62-1.57 6.9-1.49 2.56.08 3.45 2.33 4.37 4.34l6.63 14.52c.56 1.24 2.36.18 1.8-1.04z"/><path d="m129.56 289.1c2.34.44 4 2.7 4.46 5a19.45 19.45 0 0 1 -.36 7.08c-3.75 22.35-7.81 58.51-13.13 78.25-.19.73 2.36-9.67 2.62-9a3.42 3.42 0 0 0 1.13 1.35l14.91 12.4 11.07-12a5.25 5.25 0 0 0 1.88-5.75l-12-67.42a14 14 0 0 1 -.32-4.12 7.21 7.21 0 0 1 5.43-6c-1.29-3.5-4.41-4.59-7.87-6-2.72 2.2-4.7 3.09-6.41 6.14" fill="#18c4ff"/><path d="m129.37 289.8c4 1.16 4 5.91 3.55 9.24-.4 2.77-.92 5.53-1.35 8.29-.92 5.91-1.78 11.83-2.63 17.75-1.81 12.48-3.58 25-5.87 37.38-1 5.56-1.93 11.34-3.65 16.73l2.25.31c0 .6 0 .06.06-.1.09-.32.15-.63.23-.95.25-1 .5-2 .76-2.93s.53-2 .82-3c.11-.36.22-.73.35-1.09 0-.14 0-.37.06-.19-.07-.39 1.34-.21-.53.29l-.89-.12c-.37-.45-.47-.52-.3-.22a1.48 1.48 0 0 0 .28.45 4.78 4.78 0 0 0 .68.74c.64.59 1.33 1.11 2 1.67l4.39 3.66 8.79 7.31a1.17 1.17 0 0 0 1.64 0l7.21-7.79 3.52-3.8a11.07 11.07 0 0 0 2.43-3.34 7.31 7.31 0 0 0 .08-3.91c-.31-1.81-.64-3.61-1-5.41l-1.85-10.33-7.4-41.78-1.06-5.91a54.06 54.06 0 0 1 -1-5.92 6.2 6.2 0 0 1 4.65-6.66 1.25 1.25 0 0 0 .87-1.53c-1.55-3.94-5.07-5.39-8.73-6.91a1.28 1.28 0 0 0 -1.23.33c-2.49 2-5 3.57-6.63 6.38a1.29 1.29 0 0 0 2.22 1.3c1.5-2.59 3.91-4.07 6.19-5.89l-1.23.32c2.72 1.11 5.85 2.18 7 5.13l.86-1.52a8.38 8.38 0 0 0 -5.56 4.64c-1.29 2.82-.48 5.79 0 8.7l3.79 21.41q3.75 21.17 7.49 42.33c.32 1.82 1 3.72-.18 5.36a40.63 40.63 0 0 1 -3.74 4.14l-8.38 9.06h1.67l-11.09-9.22a35.14 35.14 0 0 1 -4.79-4.31 1.23 1.23 0 0 0 -2.12.11c-.88 1.49-1.16 3.56-1.59 5.2a25 25 0 0 0 -1 4.26c-.11 1.34 1.87 1.49 2.25.31a130.54 130.54 0 0 0 3.34-15.48c1.18-6.3 2.21-12.64 3.18-19 2-12.78 3.64-25.61 5.63-38.39.24-1.55.48-3.1.74-4.65a29.37 29.37 0 0 0 .7-6.26c-.18-3.34-1.92-7-5.53-7.62a.73.73 0 0 0 -.39 1.41z" fill="#18c4ff"/><path d="m108.13 201.42a110.8 110.8 0 0 0 -.27 11.81 80 80 0 0 0 1.07 12.26c1.4 8 4.74 15.32 11 20.55a35.08 35.08 0 0 0 12.76 7.17 18 18 0 0 0 13.31-1.48 33.31 33.31 0 0 0 16.51-19.43 58.59 58.59 0 0 0 1.84-14.39 160.27 160.27 0 0 0 -.05-17.12 1 1 0 0 0 -2 0c-.4 9 .41 18.17-1.25 27.11a31 31 0 0 1 -12.8 19.46c-3.56 2.54-7.81 4.46-12.27 3.91-4.64-.57-8.94-3.05-12.62-5.81a28.65 28.65 0 0 1 -7.79-8.51 37 37 0 0 1 -4-10.36 72.76 72.76 0 0 1 -1.57-12.65c-.22-4.16-.08-8.36-.4-12.52a.72.72 0 0 0 -1.44 0z"/><path d="m109.18 208.09a3.88 3.88 0 0 0 -2.38-4.09 4.7 4.7 0 0 0 -5 1.09 7 7 0 0 0 -2 5.36 8.75 8.75 0 0 0 1.9 5.55 9.7 9.7 0 0 0 2.92 2c.51.25 1 .48 1.57.69a4.5 4.5 0 0 0 1.89.46 1 1 0 0 0 .51-1.91 5.47 5.47 0 0 0 -1.47-.57 13.88 13.88 0 0 1 -1.38-.58 8.75 8.75 0 0 1 -2.32-1.51 6.68 6.68 0 0 1 -1.4-5.06 4.08 4.08 0 0 1 2.6-3.67 2.32 2.32 0 0 1 3.11 2c0 .81 1.33 1 1.45.2z"/><path d="m106 210.67h.23.11.09c-.17 0-.11-.05 0 0a2.12 2.12 0 0 1 .2.12c.08.05-.15-.14 0 0l.07.06.08.09c.09.1 0 0 0-.05a1.2 1.2 0 0 1 .25.44l-.09-.22c0 .14.11.27.17.41l-.09-.22a6.66 6.66 0 0 1 .3 1v-.25.05-.25l.1-.23a.16.16 0 0 1 0 .07l.15-.2a1.58 1.58 0 0 0 -.44.69 1.42 1.42 0 0 0 .68 1.57 1.37 1.37 0 0 0 .62.17 1 1 0 0 0 .52-.14 1.3 1.3 0 0 0 .37-.37.93.93 0 0 0 .09-.73 1.09 1.09 0 0 0 -.43-.56 1.08 1.08 0 0 0 -.58-.16h.26-.09l.23.1-.08-.05.19.15-.09-.09.15.19v-.08l.1.23a.65.65 0 0 1 0-.13v.26-.1.26a.3.3 0 0 1 0-.1l-.09.23a.09.09 0 0 1 0-.06l-.15.2c.06-.08.14-.15.2-.24a1.07 1.07 0 0 0 .24-.69 2.35 2.35 0 0 0 -.17-.73c-.08-.23-.17-.45-.27-.68a3.12 3.12 0 0 0 -.4-.62 2.27 2.27 0 0 0 -2.35-.8.72.72 0 0 0 .19 1.41z"/><path d="m164.43 207.89a2.31 2.31 0 0 1 3.1-2 4.09 4.09 0 0 1 2.61 3.67 6.65 6.65 0 0 1 -1.41 5.06 8.54 8.54 0 0 1 -2.31 1.51c-.41.2-.84.38-1.27.54a6.17 6.17 0 0 0 -1.58.61 1 1 0 0 0 .51 1.91 6.92 6.92 0 0 0 3-.94 12.66 12.66 0 0 0 2.75-1.68 7.76 7.76 0 0 0 2.44-5.33 7.51 7.51 0 0 0 -1.47-5.63 4.94 4.94 0 0 0 -4.81-1.83 4 4 0 0 0 -3.05 4.36c.13.83 1.47.62 1.46-.2z"/><path d="m166.34 209.26a2.26 2.26 0 0 0 -2.35.8 2.94 2.94 0 0 0 -.39.6c-.1.22-.2.45-.28.68a2.47 2.47 0 0 0 -.17.75 1.06 1.06 0 0 0 .16.6c.09.13.19.21.28.33l-.15-.2v.06l-.09-.23a.3.3 0 0 1 0 .1v-.26a.38.38 0 0 1 0 .1v-.26a.65.65 0 0 1 0 .13l.1-.23-.05.08.15-.19-.09.09.19-.15-.08.05.23-.1h-.09.26a1.1 1.1 0 0 0 -.58.16 1 1 0 0 0 -.43.56.92.92 0 0 0 .09.73 1.27 1.27 0 0 0 .36.37 1.1 1.1 0 0 0 .53.14 1.28 1.28 0 0 0 .6-.16 1.34 1.34 0 0 0 .56-.57 1.39 1.39 0 0 0 .14-1 1.49 1.49 0 0 0 -.44-.7l.15.2a.16.16 0 0 1 0-.07l.1.23v.25-.15.25a5.65 5.65 0 0 1 .3-1l-.09.22.17-.41-.09.22a1.63 1.63 0 0 1 .11-.23s.09-.2.13-.21-.13.16 0 .07l.08-.09a.6.6 0 0 1 .08-.08c.1-.1-.12.08 0 0l.17-.11s.16-.07 0 0 0 0 0 0h.11-.05.23a.71.71 0 0 0 .5-.21.75.75 0 0 0 .2-.42.71.71 0 0 0 -.51-.78z"/><path d="m124 210.36a1.11 1.11 0 0 0 -.37 0 1.35 1.35 0 0 0 -.55.33l-.1.1a2 2 0 0 0 -.23.32 1.35 1.35 0 0 0 -.14.37c0 .11 0 .23-.05.35a2.84 2.84 0 0 0 .05.36 1.13 1.13 0 0 0 .14.36 1.61 1.61 0 0 0 .57.55 1.8 1.8 0 0 0 .38.16 1.75 1.75 0 0 0 .4.05 2.27 2.27 0 0 0 .35-.05h.06a1.47 1.47 0 0 0 .59-.35.81.81 0 0 0 .24-.31 1.44 1.44 0 0 0 .19-.67 1.51 1.51 0 0 0 -.05-.42.14.14 0 0 0 0-.06c0-.1-.08-.22-.13-.32a1.4 1.4 0 0 0 -.26-.33 1.44 1.44 0 0 0 -.61-.35 1.11 1.11 0 0 0 -.36 0 1.29 1.29 0 0 0 -.64.16l-.24.19a.91.91 0 0 0 -.24.37.67.67 0 0 0 -.08.3.94.94 0 0 0 0 .47l.12.28.18.24a1 1 0 0 0 .38.24.89.89 0 0 0 .46.1h-.32.06l-.28-.12.08.05-.24-.19a.13.13 0 0 1 .06.07l-.18-.24v.07l-.12-.28a.36.36 0 0 1 0 .1v-.31.05-.31s0 0 0 .06l.11-.28s0 0 0 0l.18-.23.23-.18h-.06l.27-.12h-.08.31a.21.21 0 0 1 -.11 0h.31a.21.21 0 0 1 -.12 0l.27.12-.1-.06.23.18-.07-.07.17.22a.63.63 0 0 1 -.07-.12l.11.27v-.11.29a.33.33 0 0 1 0-.14v.28a.57.57 0 0 1 0-.14l-.1.24a1 1 0 0 1 .08-.14l-.15.2.16-.2a.61.61 0 0 0 0-.12.77.77 0 0 1 .07-.16l-.1.23v-.06a.94.94 0 0 0 0-.93.92.92 0 0 0 -.33-.32.82.82 0 0 0 -.46-.13z"/><path d="m120.86 207.45c.27-.11.55-.19.82-.28l.45-.12h.2.17.12.25.42 1l1.83.05a3.67 3.67 0 0 0 1.1-.09 1.31 1.31 0 0 0 .94-1.59 1.11 1.11 0 0 0 -1.05-.8 1.25 1.25 0 0 0 -.73.17s.23 0 .26-.07a1 1 0 0 1 -.25 0h-.86c-.61 0-1.22 0-1.83.06a10 10 0 0 0 -1.88.32 4.45 4.45 0 0 0 -1.77 1 .89.89 0 0 0 -.13 1.06.88.88 0 0 0 1 .4z"/><path d="m147.36 211.74v.06l-.1-.23.07.16a.5.5 0 0 0 .13.22l.09.12-.15-.2a.64.64 0 0 1 .08.14l-.1-.24s0 .09 0 .14v-.28.14-.29.11l.11-.27a.36.36 0 0 1 -.08.12l.18-.22-.07.07.22-.18-.09.06.27-.12h-.12.31a.21.21 0 0 1 -.11 0h.31-.08l.27.12h-.06l.23.18.18.23.12.28a.13.13 0 0 1 0-.06v.31a.11.11 0 0 1 0-.08v.31a.36.36 0 0 1 0-.1l-.12.28.05-.07-.19.24a.23.23 0 0 1 .07-.07l-.24.19.08-.05-.28.12h.06-.32.32a1 1 0 0 0 .4-.21.7.7 0 0 0 .21-.21 1 1 0 0 0 .21-.4v-.31-.31a.9.9 0 0 0 -.21-.4 1.08 1.08 0 0 0 -.33-.31 1.26 1.26 0 0 0 -.63-.16 1.56 1.56 0 0 0 -.36 0 1.34 1.34 0 0 0 -.6.34 1.42 1.42 0 0 0 -.25.3 2 2 0 0 0 -.17.37 1.93 1.93 0 0 0 -.06.41 1.13 1.13 0 0 0 0 .41 1.4 1.4 0 0 0 .65.84 1.07 1.07 0 0 0 .37.15 1.18 1.18 0 0 0 .42 0 2 2 0 0 0 .39-.06 1.43 1.43 0 0 0 .38-.17 1.79 1.79 0 0 0 .31-.25 1.45 1.45 0 0 0 .34-.57 1.46 1.46 0 0 0 0-.83 1.61 1.61 0 0 0 -.16-.38 2.1 2.1 0 0 0 -.26-.33 1.23 1.23 0 0 0 -.95-.38.82.82 0 0 0 -.46.13.92.92 0 0 0 -.33.32.91.91 0 0 0 0 .93z"/><path d="m152.14 206a4.31 4.31 0 0 0 -1.71-1 9.86 9.86 0 0 0 -1.94-.34c-.59-.06-1.18 0-1.77-.06-.29 0-.57 0-.86 0h-.25.15c.2 0-.24-.09-.27-.1a1.09 1.09 0 0 0 -.4 0 1.1 1.1 0 0 0 -1.05.8 1.29 1.29 0 0 0 .79 1.53 3 3 0 0 0 1.17.17l1.88-.05a13.53 13.53 0 0 1 1.8.05h.08.2l.45.12c.29.09.58.18.87.29.82.31 1.47-.9.84-1.46z"/><path d="m132.08 222.56a1.74 1.74 0 0 0 -.36 1.9 3.11 3.11 0 0 0 1.48 1.43 7 7 0 0 0 4.16 1 13.32 13.32 0 0 0 2.16-.43 3.72 3.72 0 0 0 1.78-.95 2.3 2.3 0 0 0 .63-1.78c-.07-.82-.64-1.75-1.58-1.71a1.11 1.11 0 0 0 -.94 1.65 1.49 1.49 0 0 0 .24.32c0 .06.13.21 0 0s-.06-.18 0 0c-.07-.25 0-.08 0 0s0-.19 0 0v-.11c-.06.09-.06.11 0 .05s-.17.15 0 0a1.32 1.32 0 0 1 -.2.12 1.38 1.38 0 0 1 -.4.16c-.21.07-.43.12-.64.18a9.36 9.36 0 0 1 -1.26.25 5.37 5.37 0 0 1 -2.57-.33 4.09 4.09 0 0 1 -1.06-.49.54.54 0 0 1 -.21-.28v-.09a.78.78 0 0 0 -1.21-.94z"/><path d="m140.88 232.36a62 62 0 0 1 -9.34 0 .94.94 0 0 0 -.74.14c-.27.26-.14.71 0 1a6.76 6.76 0 0 0 11.11 1.2 2.17 2.17 0 0 0 .62-1.32 1 1 0 0 0 -.86-1"/><path d="m140.88 231.61c-2.56 0-5.15-.1-7.71-.31-1.13-.09-2.71-.55-3.45.64-.64 1 0 2.2.65 3.06a8 8 0 0 0 11.11 1.74 5.22 5.22 0 0 0 2.21-2.84 2 2 0 0 0 -2.26-2.53c-.82.19-1.11 1.56-.25 1.93.34.14.25.18 0 .53a4.81 4.81 0 0 1 -1.17 1.08 5.79 5.79 0 0 1 -3.28 1 5.52 5.52 0 0 1 -3-1 5.64 5.64 0 0 1 -1.18-1.06 4.25 4.25 0 0 1 -.43-.59c-.06-.09-.13-.31-.22-.37s.12 0 0 .17l-.43.43a4.71 4.71 0 0 1 .71 0h1.29 2.57a41.53 41.53 0 0 0 5.1-.5c.85-.13.63-1.48-.2-1.48z"/><path d="m116.43 241.2c.11 1.43.58 2.86.81 4.27.26 1.56.43 3.12.54 4.69.22 3 .27 6 .32 9.07a1.09 1.09 0 0 0 2.18 0c-.09-3.14-.17-6.28-.53-9.41-.18-1.5-.4-3-.69-4.49a15.88 15.88 0 0 0 -1.31-4.49.71.71 0 0 0 -1.32.36z"/><path d="m156.06 241.35a31.9 31.9 0 0 0 -1.59 9.15 45.63 45.63 0 0 0 .42 9.27c.16 1.1 2.06.85 1.94-.26a59 59 0 0 1 -.33-9c.13-3 .67-6 .95-9 .08-.85-1.13-.89-1.39-.19z"/><path d="m108.63 209.24c2.26-4.48 4.56-9.11 4.91-14.11.17-2.32 0-5 1.71-6.59 1.33-1.27 3.34-1.41 5.18-1.45 11.09-.24 22.14 4.33 36.31-2.25 2-.94.22 1.83.5 4.1a65.58 65.58 0 0 0 2.89 11.43c1.08 2.77 2.92 4.3 3.12 7.35 2.16-1.88 2.67-5 3-7.84.74-5.62 1.39-11.72-1.45-16.63a25.59 25.59 0 0 0 -3.65-4.54c-3.57-3.8-7.38-7.66-12.3-9.37a33.25 33.25 0 0 0 -9.06-1.39 75.26 75.26 0 0 0 -13 0 25.14 25.14 0 0 0 -12.12 4.34c-3.71 2.72-6.27 6.67-8.75 10.53a17.49 17.49 0 0 0 -2.29 4.44 6 6 0 0 0 .43 4.84c.55.87 1.4 1.53 1.9 2.43a7.69 7.69 0 0 1 .73 2.85l1 8.38"/><path d="m109.25 209.6a60.49 60.49 0 0 0 4.24-9 21.47 21.47 0 0 0 1.05-4.55 38.58 38.58 0 0 1 .45-4.69c.81-3.36 4.4-3.18 7.21-3.12s5.36.33 8 .61c5.78.61 11.55 1.07 17.32.07a36.73 36.73 0 0 0 4.63-1.12c.73-.23 1.45-.48 2.17-.75.45-.17.89-.35 1.33-.54s1.43-.41 1.61-.69l-.67-.63v.25a2.85 2.85 0 0 0 -.15.67 15.07 15.07 0 0 0 -.32 1.88 12.32 12.32 0 0 0 .35 3.25 65.58 65.58 0 0 0 2.13 8.27 20.07 20.07 0 0 0 1.73 3.84 10.8 10.8 0 0 1 1.77 4.41 1.18 1.18 0 0 0 2 .82c2.74-2.54 3.11-6.4 3.55-9.9.49-3.94.82-8-.15-11.92-1-4.1-3.74-7.07-6.57-10.05a35.2 35.2 0 0 0 -9.13-7.45c-3.94-2-8.31-2.31-12.66-2.57a67.79 67.79 0 0 0 -13.66.19 25.6 25.6 0 0 0 -11.2 4.21 32.72 32.72 0 0 0 -7.88 8.82c-2.24 3.37-5.47 7.56-3.82 11.84a8.53 8.53 0 0 0 1.64 2.43 5.53 5.53 0 0 1 1.29 3.2c.35 2.79.66 5.58 1 8.38.19 1.59 2.72 1.61 2.52 0l-.78-6.41c-.22-1.79-.24-3.83-1.14-5.44s-2.37-2.43-2.48-4.36.89-3.65 1.87-5.22a50.91 50.91 0 0 1 6.46-8.83 20.65 20.65 0 0 1 9.44-5.5 40.63 40.63 0 0 1 11.89-1.09c4.12.12 8.49.14 12.51 1.11a22.05 22.05 0 0 1 9.45 5.42c2.69 2.45 5.74 5.23 7.58 8.39 2.07 3.58 2.11 7.87 1.77 11.87-.3 3.59-.33 8.56-3.17 11.19l2 .82c-.28-3.12-2.29-5.26-3.33-8.1a59 59 0 0 1 -2.18-7.94 15.09 15.09 0 0 1 -.55-3.39c0-1.11.57-2.21.47-3.31a1.48 1.48 0 0 0 -1.88-1.37 16.14 16.14 0 0 0 -2.27 1c-1 .41-2 .77-3.06 1.09-6.34 2-12.84 1.82-19.37 1.15-3-.3-6-.68-9-.81-2.68-.11-6-.36-8.29 1.34-3 2.23-2.21 6.46-2.74 9.68a46.17 46.17 0 0 1 -4.23 11.83c-.39.82.79 1.55 1.24.72z"/><path d="m115.81 257.21a92 92 0 0 0 21.93 20.93 1.12 1.12 0 0 0 1.34-.18c7.19-6 14.13-12.86 19.4-20.64.57-.84-.75-1.88-1.42-1.1-3 3.56-6 7.19-9.26 10.57a126.1 126.1 0 0 1 -10.29 9.6l1.35-.17a109.61 109.61 0 0 1 -21.75-20c-.6-.71-1.86.25-1.3 1z"/><path d="m257 365.15c-2.6-3.42-6.32-6-10-8.21a48.07 48.07 0 0 0 -5.78-2.91c-1.65-.7-4.44-2.14-6-.65a1.07 1.07 0 0 0 .75 1.8c.42 0 .83-.09 1.25-.05a6.42 6.42 0 0 1 1.28.36c.94.32 1.87.68 2.79 1.06a47.79 47.79 0 0 1 10 5.64 33.11 33.11 0 0 1 4.61 3.83c.54.57 1.63-.21 1.13-.87z"/><path d="m246 384.39c-2.38-.64-4.58-1.68-7-2-2.29-.34-4.58-.43-6.84-1a29.14 29.14 0 0 1 -12-6c-1.13-.95-2.77.68-1.63 1.63a31.18 31.18 0 0 0 12.24 6.31 36 36 0 0 0 6.85 1c2.76.18 5.33 1 8.06 1.42.87.12 1.28-1.13.38-1.37z"/><path d="m107.39 211.63c-1.15.66-2.28 2-1.76 3.36a2 2 0 0 0 2.91 1.14l-1.64-1.26a143.15 143.15 0 0 0 -2.48 14.7 66.66 66.66 0 0 0 -.4 7.74c0 2 0 4.1 1.33 5.75 1.72 2.16 7.89 5.72 9.24 1.43a3 3 0 0 0 -2.35-3.76c-2.11-.33-2.69 2.54-1.35 3.74.84.76 2.52.31 2.42-1a6 6 0 0 0 -.25-1.53c-.38-1.1-2.34-1.4-2.55 0a6 6 0 0 0 0 1.53l2.41-1v.59l-1.35.35c.56.09.67.44 0 .48a4.36 4.36 0 0 1 -1.79-.65 6.29 6.29 0 0 1 -2.65-2c-.72-1.12-.59-2.67-.61-3.95 0-1.45 0-2.91.12-4.36a163.79 163.79 0 0 1 2.43-17.49c.14-.86-.76-1.86-1.64-1.26a9 9 0 0 0 1-1.24.85.85 0 0 0 -1-1.33z"/><path d="m312.22 256.89-1-3.64c-.76-2.87 2.13-5.55 4.82-4.31a.31.31 0 0 1 .1.05 3.21 3.21 0 0 1 1.79 2.49c.18 1.53-.74 2.11-1.58 2.72-4.54 3.25-7.75 8-10.89 12.61a1055.27 1055.27 0 0 1 -66.18 87.13"/><path d="m312.94 256.69c-.43-1.93-1.77-5 .19-6.43a2.48 2.48 0 0 1 2.36-.42 2 2 0 0 1 1.29 2.54c-.32.66-1.28 1.1-1.84 1.53a27.52 27.52 0 0 0 -2.51 2.19 67.58 67.58 0 0 0 -8 10.33q-4.23 6.19-8.54 12.33-17.3 24.58-36 48.17-10.5 13.24-21.41 26.14c-1 1.2.71 2.93 1.73 1.73q21.19-25.12 40.8-51.54 9.87-13.27 19.3-26.86c3-4.32 5.88-8.73 8.95-13a45.86 45.86 0 0 1 4.78-5.72 26.85 26.85 0 0 1 2.6-2.28 7.17 7.17 0 0 0 2-1.78c1.18-1.9.13-4.44-1.71-5.47a4.37 4.37 0 0 0 -5.33.8c-2.27 2.45-.88 5.41-.05 8.14a.74.74 0 0 0 1.43-.4z"/><path d="m190.47 408.15c5.31-4.56 10.53-9.24 15.67-14q3.86-3.57 7.63-7.22 1.8-1.74 3.58-3.5c.62-.61 1.23-1.24 1.84-1.87l1-1c.21-.22.59-.82.84-.9l-1.03-.16.16.11-.68-1.17v.15l1-1.29.59.09a1.26 1.26 0 0 0 -2 1.52 2 2 0 0 0 2.09 1 1.3 1.3 0 0 0 .93-.94 1.6 1.6 0 0 0 -2.58-1.62 14.74 14.74 0 0 0 -1.93 1.94c-.72.74-1.44 1.48-2.15 2.23q-4.17 4.42-8.45 8.75-8.56 8.65-17.57 16.82c-.74.67.34 1.74 1.09 1.09z"/><path d="m117.39 251.24c-2.31 1.16-4.56 2.46-6.75 3.82-1.77 1.1-3.18 2.42-3.49 4.56-.63 4.4.67 9.27 2.21 13.35a87.33 87.33 0 0 0 6.28 12.58c1 1.73 2 3.64 3.64 4.81a7.49 7.49 0 0 0 5.64 1 13.76 13.76 0 0 0 5.68-2.92c2-1.54 3.88-3.2 5.81-4.82.57-.47.65-.86 1.28-.38l1.32 1 3.2 2.5c1.8 1.41 3.61 3.2 5.75 4.08a4.6 4.6 0 0 0 5.32-1.23 59 59 0 0 0 4.54-5.32 75.61 75.61 0 0 0 7.47-11.73c1.13-2.19 2.6-4.62 2.28-7.18a19.7 19.7 0 0 0 -2.7-6.76 34.69 34.69 0 0 0 -4.07-5.79c-1.4-1.61-3.15-3.95-5.55-3.44-1.18.25-.94 2.27.29 2.14.93-.1 1.64.81 2.24 1.42s1.41 1.49 2.07 2.29a32.52 32.52 0 0 1 3.17 4.7 18.14 18.14 0 0 1 2.32 5.59c.32 2.05-1.06 4.16-2 5.92a73.35 73.35 0 0 1 -6.57 10.39c-1.22 1.63-2.51 3.19-3.85 4.71a12.69 12.69 0 0 1 -2 2c-1.06.73-2.18.21-3.16-.41-1.79-1.14-3.43-2.61-5.11-3.92l-2.63-2.07a7.86 7.86 0 0 0 -2.19-1.53c-1.75-.56-3.45 1.59-4.63 2.57-1.63 1.35-3.22 2.79-5 4a8.76 8.76 0 0 1 -5.42 1.91c-2-.12-3.15-1.38-4.12-3a106 106 0 0 1 -5.66-10.58 35 35 0 0 1 -3.55-13.24 7.19 7.19 0 0 1 .37-3.39 6 6 0 0 1 2.26-2.09c2.1-1.4 4.2-2.82 6.19-4.37.7-.55-.19-1.52-.89-1.17z"/><path d="m242.83 365.1a31.83 31.83 0 0 1 7.13 3.78 30.72 30.72 0 0 1 3.07 2.5c1 .92 1.84 2.08 2.92 2.9.8.6 1.75-.54 1.31-1.31a13 13 0 0 0 -3-3 33.42 33.42 0 0 0 -3.46-2.58 32.81 32.81 0 0 0 -7.63-3.64c-.88-.29-1.22 1.05-.38 1.36z"/><path d="m240.2 370.78a14.86 14.86 0 0 0 3.42 1.9 23.08 23.08 0 0 1 6.26 4.19c.46.44.91.9 1.34 1.38s.82 1.08 1.3 1.53a.87.87 0 0 0 1.37-1 12.76 12.76 0 0 0 -2.64-3 25.31 25.31 0 0 0 -3.11-2.44 23.26 23.26 0 0 0 -3.35-1.86 18.4 18.4 0 0 1 -3.73-1.82c-.63-.48-1.47.6-.86 1.12z"/><path d="m236.11 375.81a30.39 30.39 0 0 1 6.89 3.61 27.81 27.81 0 0 1 2.92 2.38 36.22 36.22 0 0 0 2.85 2.83c.81.6 1.78-.54 1.32-1.32a12.22 12.22 0 0 0 -2.9-2.93 33 33 0 0 0 -3.31-2.46 30.23 30.23 0 0 0 -7.39-3.47c-.88-.28-1.22 1.05-.38 1.36z"/><path d="m108.24 263.66c-13.28-1.05-24.18.67-36.89 4.71-6 1.92-12 4.46-16.85 8.52-10.81 9-14.45 24-16.29 37.93a254.69 254.69 0 0 0 1.52 76.38c1 5.94 2.27 11.9 4.77 17.38 8.18 18 28.8 27.89 48.56 28.37s38.87-6.83 56.75-15.27c24.18-11.42 47.33-25.14 68.3-41.74a52.66 52.66 0 0 0 -1.38-19.72 9.94 9.94 0 0 0 -2.42-4.87c-2.72-2.56-7.06-1.73-10.67-.77a733.9 733.9 0 0 1 -107.29 20.42c-3.66.42-8.61 2.83-7.09 6.19q-1.6-26.09-3.2-52.19"/><path d="m108.24 262.94a81.67 81.67 0 0 0 -14.16-.4 91.33 91.33 0 0 0 -13.37 2c-8.74 1.94-18 4.67-25.35 10.05-13.5 9.95-17 27.49-18.86 43.15a254.72 254.72 0 0 0 0 60.77c.6 5 1.33 10 2.23 14.91a71.37 71.37 0 0 0 3.72 13.85 44.72 44.72 0 0 0 13.46 18c12.19 9.73 28.09 13.8 43.56 12.91 19.31-1.11 37.49-8.84 54.66-17.21a367.89 367.89 0 0 0 49.21-28.6q5.9-4.1 11.59-8.46c.87-.66 1.73-1.33 2.59-2s1.69-1.14 1.83-2.44a50.27 50.27 0 0 0 .29-7.56 44.65 44.65 0 0 0 -2.33-13.91 8.18 8.18 0 0 0 -8.73-5.54 28.68 28.68 0 0 0 -5.73 1.08c-2.51.67-5 1.32-7.52 2q-7.31 1.88-14.63 3.59-14.89 3.48-29.94 6.36t-29.93 5.09q-7.65 1.14-15.31 2.11c-2.57.33-5.15.64-7.72.94a19.76 19.76 0 0 0 -5.42 1.18c-2.66 1.11-5.59 3.51-4.31 6.73.48 1.17 2.51 1.17 2.42-.33-1.07-17.38-2.23-34.76-3.3-52.14-.09-1.45-2.35-1.46-2.26 0 1.06 17.38 2 34.76 3.1 52.14l2.41-.33c-1.47-3.68 5.67-4.6 7.84-4.85q7.77-.9 15.51-2 15.77-2.17 31.42-5t30.94-6.34q7.82-1.77 15.59-3.73c4.85-1.21 9.67-2.75 14.57-3.74 2.07-.41 4.52-.68 6.41.46 2.28 1.32 2.77 4.32 3.28 6.7a52.61 52.61 0 0 1 .89 17.56l.35-.84c-20.78 16.45-43.73 30-67.68 41.31-22.37 10.53-48.18 20-73 12.57-9.92-3-19.25-8.48-25.79-16.62-8.05-10-9.76-23.36-11.36-35.72a255.65 255.65 0 0 1 -1.92-42.13q.39-10.42 1.64-20.8a119.71 119.71 0 0 1 3.15-17.31 52.85 52.85 0 0 1 6.42-15 34.6 34.6 0 0 1 12.83-11.7c5.64-3 11.88-4.83 18-6.44a96.23 96.23 0 0 1 19-2.91 90 90 0 0 1 9.58 0c.94.05.91-1.34 0-1.44z"/><g fill="#fff"><path d="m88.09 325.31q.34 27.24.89 54.49a1 1 0 0 0 1.51.86c15.3-8.23 33-10.14 49.89-12.59l16.06-2.32c1.26-.18.72-2.09-.53-1.91-9.28 1.34-18.56 2.63-27.83 4a160.28 160.28 0 0 0 -25.38 5.49 79.12 79.12 0 0 0 -13.22 5.58l1.5.86q-.56-27.26-1.37-54.49a.76.76 0 0 0 -1.52 0z"/><path d="m171.24 363 .88-1.66a.84.84 0 0 0 .08-.62.81.81 0 0 0 -.37-.48.79.79 0 0 0 -.62-.08.78.78 0 0 0 -.48.37l-.81 1.7a.78.78 0 0 0 -.07.58.73.73 0 0 0 .35.46.76.76 0 0 0 1-.27z"/><path d="m180.16 362.45a.7.7 0 0 0 0-1.4.7.7 0 0 0 0 1.4z"/><path d="m188.35 358c4.5-.84 9-1.53 13.58-2 2.19-.24 4.38-.45 6.58-.61 1.28-.09 5.8-1 5.51 1.33-.14 1.15 1.87 1.43 2 .28.3-2.12-1.26-3.56-3.29-3.78a18.4 18.4 0 0 0 -3.78.19c-1.46.14-2.92.29-4.38.47q-8.38 1-16.64 2.78c-.9.2-.51 1.53.38 1.37z"/><path d="m201.49 318.31a270.92 270.92 0 0 1 2.51 36.69l2.24-.31-.31-1c-.39-1.35-2.26-.76-2.06.57l.17 1.08c.19 1.29 2.24 1 2.24-.3a226.86 226.86 0 0 0 -3.46-37.05c-.15-.9-1.49-.51-1.36.38z"/></g><path d="m77.22 430q-14.88 67-23.9 135.09-9 67.9-12.1 136.41-2.62 58.2-.95 116.5c.59 20.61.9 43.35-12.37 59.14a11.45 11.45 0 0 0 -2.61 4c-4.37 15.1 42 9.58 49.26 7.87 3.9-.93 5-3.54 5.68-7.48 12.14-75 36.6-149.34 37.84-225.81.5-30.86-3.62-60.31 6.51-90.22 9-26.59 20.61-52.63 28.12-79.68a138.05 138.05 0 0 0 3.88-54.38"/><path d="m76.49 429.82q-12.4 53.64-20.49 108.18-8.19 54.15-12.58 108.77-4.4 55-5 110.29-.28 27.76.42 55.53c.38 15 1.39 30.48-2.56 45.14a50.62 50.62 0 0 1 -10 19.33c-2.23 2.71-3.67 6.3-1.58 9.52 1.62 2.42 4.58 3.63 7.3 4.42a51.8 51.8 0 0 0 12.27 1.65 144.78 144.78 0 0 0 25.22-1.46c2.85-.4 6.35-.61 8.69-2.43 2-1.53 2.76-3.9 3.21-6.26.81-4.33 1.44-8.69 2.21-13 6.2-34.82 14.57-69.2 21.65-103.83s12.82-69.45 13.88-104.67c.52-17.32-.62-34.63-.19-52a170.28 170.28 0 0 1 2.34-25.61 156.31 156.31 0 0 1 7.17-25.39c6-16.71 12.68-33.14 18.53-49.89 5.74-16.47 10.67-33.12 11.77-50.61a138.6 138.6 0 0 0 -.83-26.08c-.21-1.69-2.89-1.71-2.68 0a138.11 138.11 0 0 1 -3.24 51.96c-4.33 16.72-10.54 32.94-16.64 49.08s-13.15 32.41-16.27 49.47c-3 16.3-2.8 32.91-2.45 49.41a499.64 499.64 0 0 1 -1.12 51.34c-1.43 17.39-3.86 34.69-6.86 51.87-6 34.29-14.17 68.14-21.29 102.2q-2.62 12.59-5 25.2-1.2 6.4-2.3 12.83c-.57 3.3-.56 7.62-2.31 10.57-1.62 2.75-5.65 2.89-8.52 3.29-3.82.54-7.66.91-11.5 1.16-8.24.55-17.25 1-25.26-1.36-2.28-.68-5.44-1.85-6.08-4.46-.5-2.05.72-3.86 2-5.38a51.92 51.92 0 0 0 5.73-8.3c6.67-12.39 7.7-26.95 7.68-40.75 0-17-.8-34.08-.87-51.13q-.19-54.1 3.32-108.15t10.64-107.85c4.76-35.7 10.81-71.2 17.79-106.54q2.53-12.88 5.31-25.66c.2-1-1.25-1.36-1.47-.4z"/><path d="m361.75 333.86a52.45 52.45 0 0 1 6.46-10.86c1.31-1.74 2.71-3.42 4.12-5.1a25.3 25.3 0 0 1 4.4-4.61 12.48 12.48 0 0 1 5.95-1.9 11.15 11.15 0 0 1 4.88.11c2.15.77 1.33 3-.25 4s-3.88.95-5 2.39a5.89 5.89 0 0 0 -.76 2.92 20.41 20.41 0 0 1 -4.18 9.47c-.79 1.07 1 2.46 1.86 1.44a20.69 20.69 0 0 0 3.44-5.88 19.61 19.61 0 0 0 1-3.38c.2-1 .05-2.93 1-3.45s2.09-.73 3.07-1.21a6.5 6.5 0 0 0 2.39-1.89 4.08 4.08 0 0 0 .13-5.12 6 6 0 0 0 -4.55-1.69 23.75 23.75 0 0 0 -6.39.78c-4.8 1.28-7.73 5.64-10.62 9.36a52.36 52.36 0 0 0 -8.29 14.08c-.28.78 1 1.35 1.35.57z"/><path d="m390.35 313.86a10.34 10.34 0 0 0 1.66-.68c.57-.23 1.12-.48 1.69-.69a25.06 25.06 0 0 1 3.27-1 27.07 27.07 0 0 1 3.34-.56c1.22-.13 2.43-.08 3.65-.13a1.06 1.06 0 0 0 0-2.11 20.89 20.89 0 0 0 -7.53.83 26.25 26.25 0 0 0 -3.45 1.24 9.71 9.71 0 0 0 -3.31 1.92.7.7 0 0 0 .68 1.16z"/><path d="m406.38 315.48a10.05 10.05 0 0 0 -4.66 0 10.35 10.35 0 0 0 -4.27 2c-.8.63.24 2 1.09 1.42a12.18 12.18 0 0 1 3.63-1.75 12.63 12.63 0 0 1 4-.26c.8.06.95-1.19.19-1.39z"/><path d="m407.32 322.69a15.8 15.8 0 0 0 -4.38.66 17.75 17.75 0 0 0 -2.11.77 6.76 6.76 0 0 0 -2 1.12.94.94 0 0 0 .91 1.57 19.65 19.65 0 0 0 1.94-1 15.33 15.33 0 0 1 1.82-.78 22.2 22.2 0 0 1 4-1c.81-.12.59-1.39-.18-1.39z"/><path d="m407.27 330.31c-10.75 7.57-22.27 13.63-35.27 16.48-1.69.38-1 3 .72 2.61 12.87-3.16 25.54-8.95 35.38-18 .59-.54-.2-1.6-.87-1.13z"/><g fill="#18c4ff"><path d="m42.05 848.3c7.95.9 15.95 1.8 23.95 2.7l11.83 1.26c1.59.17 7.65 1.6 6.87-1.87a1 1 0 0 0 -2 .27c0-.31.1-.14-.37-.1a5.73 5.73 0 0 1 -1-.08l-2.71-.25-4.93-.47-10.6-1c-7-.66-14-1.27-21-1.89-.95-.08-.93 1.38 0 1.48z"/><path d="m66 585.11a23.06 23.06 0 0 0 17.53-.67c.92-.42.12-1.76-.79-1.36a23.1 23.1 0 0 1 -16.37.67c-.87-.29-1.21 1-.37 1.36z"/><path d="m68.05 601.39h10.08a.75.75 0 0 0 0-1.5h-10.08a.73.73 0 0 0 0 1.46z"/></g><path d="m209.66 430q14.9 67 23.91 135.09 9 67.9 12.09 136.41 2.63 58.2 1 116.5c-.6 20.61-.91 43.35 12.37 59.14a11.59 11.59 0 0 1 2.61 4c4.36 15.1-42 9.58-49.26 7.87-3.91-.93-5-3.54-5.68-7.48-12.14-75-36.61-149.34-37.85-225.81-.5-30.86 3.62-60.31-6.5-90.22-9-26.59-20.62-52.63-28.12-79.68a138.24 138.24 0 0 1 -3.89-54.38"/><path d="m208.93 430.22c7.45 35 14 70.28 19.29 105.71q8.1 53.8 12.52 108.1 4.39 53.9 5.11 108 .35 27.09-.23 54.16c-.32 15.07-1.5 30.38 1 45.32a60.68 60.68 0 0 0 6.38 19.09 55.78 55.78 0 0 0 5.79 8.27c1.21 1.49 2.3 3.36 1.68 5.33-.79 2.52-3.91 3.63-6.18 4.29a49.76 49.76 0 0 1 -12 1.58 140.91 140.91 0 0 1 -24.71-1.45c-3.1-.44-7.12-.6-8.64-3.79s-1.54-7.13-2.12-10.48q-1.1-6.42-2.31-12.83c-6.41-34.19-14.68-68-21.53-102.1s-12.39-68.49-12.98-103.26c-.28-16.83.87-33.67.23-50.5a164.62 164.62 0 0 0 -2.61-24.57 164 164 0 0 0 -7.3-24.93c-5.84-16.29-12.32-32.34-18-48.69-5.73-16.53-10.67-33.25-11.63-50.81a140.66 140.66 0 0 1 .93-25.21c.21-1.71-2.47-1.7-2.68 0a140 140 0 0 0 3.31 52.2c4.43 17.14 10.88 33.75 17.17 50.28 6.19 16.27 13.25 32.65 16.24 49.89 3 17.08 2.43 34.5 2.09 51.76a464 464 0 0 0 1.7 52.73c1.62 17.3 4.18 34.51 7.25 51.61 6.27 35 14.68 69.52 21.77 104.33q2.64 13 5 26.07c.73 4.14 1.29 8.33 2.12 12.46.48 2.43 1.41 4.83 3.54 6.26 2.35 1.59 5.71 1.78 8.45 2.16 4 .54 8 .94 12 1.2 8.33.54 17.41.94 25.5-1.46 2.69-.8 5.68-2.08 7.18-4.59 2.09-3.49.19-7.06-2.15-9.84-9.6-11.48-12-26.63-12.36-41.14-.46-17 .63-34 .75-51q.41-55.49-3.09-110.9-3.41-54.9-10.75-109.42c-4.85-36.12-10.83-72.15-18.41-107.8q-2.82-13.25-5.85-26.43c-.22-1-1.67-.55-1.47.4z"/><g fill="#18c4ff"><path d="m244.83 846.82c-7 .62-14 1.23-21 1.89l-10.36 1-5.18.49-2.46.23a7.53 7.53 0 0 1 -1.25.1h-.27c-.27-.14-.31-.1-.11.13a1 1 0 0 0 -2-.27c-.77 3.41 5 2.06 6.62 1.9l12.1-1.29c8-.85 15.94-1.75 23.91-2.65.93-.1 1-1.56 0-1.48z"/><path d="m220.53 583.75a23.07 23.07 0 0 1 -16.36-.67c-.92-.4-1.72.94-.8 1.36a23.08 23.08 0 0 0 17.54.67c.84-.31.5-1.65-.38-1.36z"/><path d="m218.84 599.93h-10.08a.75.75 0 0 0 0 1.5h10.08a.73.73 0 0 0 0-1.46z"/><path d="m81.89 435.42c16.35 2.4 32.44-2.39 47.77-7.6q23.7-8.06 46.81-17.78 12.87-5.42 25.52-11.35c1.06-.5.14-2.07-.93-1.58q-22.37 10.44-45.41 19.33-11.34 4.37-22.84 8.36c-7.71 2.67-15.46 5.29-23.41 7.2-8.94 2.14-18.16 3.21-27.32 2-.81-.11-1 1.31-.19 1.43z"/><path d="m407.74 312.53c25.46.37 50.93.26 76.4.33q38 .11 75.9.33c14.3.07 28.64.26 42.94-.11a1.3 1.3 0 0 0 0-2.6c-12.72-.33-25.47-.13-38.2-.12s-25.47.12-38.2.18q-38 .19-75.9.25c-14.32 0-28.63 0-42.94.24a.75.75 0 0 0 0 1.5z"/><path d="m605.55 372.7c-25.46-.37-50.94-.26-76.4-.33q-37.95-.11-75.9-.33c-14.31-.07-28.65-.26-42.95.11a1.3 1.3 0 0 0 0 2.6c12.73.33 25.47.13 38.2.12s25.47-.12 38.2-.18q37.95-.19 75.91-.25c14.31 0 28.63 0 42.94-.24a.75.75 0 0 0 0-1.5z"/><path d="m605.55 392.19c-25.46-.37-50.94-.26-76.4-.33q-37.95-.11-75.9-.32c-14.31-.08-28.65-.27-42.95.11a1.3 1.3 0 0 0 0 2.59c12.73.33 25.47.13 38.2.12s25.47-.11 38.2-.18q37.95-.18 75.91-.25c14.31 0 28.63 0 42.94-.24a.75.75 0 0 0 0-1.5z"/><path d="m605.55 411.68c-25.46-.37-50.94-.26-76.4-.33q-37.95-.11-75.9-.32c-14.31-.07-28.65-.26-42.95.11a1.3 1.3 0 0 0 0 2.59c12.73.33 25.47.13 38.2.12s25.47-.11 38.2-.18q37.95-.18 75.91-.25c14.31 0 28.63 0 42.94-.23a.76.76 0 0 0 0-1.51z"/><path d="m605.55 431.17c-25.46-.36-50.94-.26-76.4-.33q-37.95-.09-75.9-.32c-14.31-.07-28.65-.26-42.95.11a1.3 1.3 0 0 0 0 2.59c12.73.33 25.47.14 38.2.12s25.47-.11 38.2-.17q37.95-.19 75.91-.25c14.31-.05 28.63 0 42.94-.24a.76.76 0 0 0 0-1.51z"/><path d="m605.55 462.5c-25.46-.37-50.94-.27-76.4-.33q-37.95-.1-75.9-.33c-14.31-.07-28.65-.26-42.95.11a1.3 1.3 0 0 0 0 2.59c12.73.34 25.47.14 38.2.13s25.47-.12 38.2-.18q37.95-.19 75.91-.25c14.31 0 28.63 0 42.94-.24a.75.75 0 0 0 0-1.5z"/><path d="m605.55 482c-25.46-.37-50.94-.26-76.4-.33q-37.95-.11-75.9-.33c-14.31-.07-28.65-.26-42.95.11a1.3 1.3 0 0 0 0 2.6c12.73.33 25.47.13 38.2.12s25.5-.17 38.2-.17q37.95-.19 75.91-.25c14.31 0 28.63 0 42.94-.24a.75.75 0 0 0 0-1.5z"/><path d="m605.55 501.48c-25.46-.37-50.94-.26-76.4-.33q-37.95-.11-75.9-.32c-14.31-.08-28.65-.27-42.95.11a1.3 1.3 0 0 0 0 2.59c12.73.33 25.47.13 38.2.12s25.47-.12 38.2-.18q37.95-.18 75.91-.25c14.31 0 28.63 0 42.94-.24a.75.75 0 0 0 0-1.5z"/><path d="m605.55 521c-25.46-.37-50.94-.26-76.4-.33q-37.95-.1-75.9-.32c-14.31-.07-28.65-.26-42.95.11a1.3 1.3 0 0 0 0 2.59c12.73.33 25.47.13 38.2.12s25.5-.17 38.2-.17q37.95-.18 75.91-.25c14.31 0 28.63 0 42.94-.23a.76.76 0 0 0 0-1.51z"/></g><path d="m907 433.19h-241.73c-3.25 0-6.54-.15-9.79 0h-.43l2.09 2.1v-241.71c0-3.26.06-6.53 0-9.8v-.43c0-2.69-4.18-2.69-4.18 0v241.71c0 3.26-.06 6.53 0 9.8v.43a2.12 2.12 0 0 0 2.09 2.09h241.7c3.27 0 6.54.06 9.8 0h.45c2.69 0 2.69-4.19 0-4.19z"/><path d="m681.92 191.34c-4.75-.12-9.52-.49-14.28-.41a1.19 1.19 0 0 0 0 2.37c4.76.07 9.53-.29 14.28-.41a.78.78 0 0 0 0-1.55z"/><path d="m673.31 208.14c-.94-.06-1.89-.16-2.83-.23a24.63 24.63 0 0 0 -2.84-.19 1.2 1.2 0 0 0 -1.18 1.19 1.22 1.22 0 0 0 1.18 1.19 27.08 27.08 0 0 0 2.84-.19c.94-.07 1.89-.17 2.83-.23a.77.77 0 1 0 0-1.54z"/><path d="m681.92 224.93c-4.75-.12-9.52-.48-14.28-.41a1.19 1.19 0 0 0 0 2.37c4.76.07 9.53-.29 14.28-.41a.78.78 0 0 0 0-1.55z"/><path d="m673.31 241.73c-.94-.06-1.89-.16-2.83-.23a27.08 27.08 0 0 0 -2.84-.19 1.2 1.2 0 0 0 -1.18 1.19 1.22 1.22 0 0 0 1.18 1.19 24.63 24.63 0 0 0 2.84-.19c.94-.07 1.89-.17 2.83-.23a.77.77 0 1 0 0-1.54z"/><path d="m681.92 258.52c-4.75-.12-9.52-.48-14.28-.41a1.19 1.19 0 0 0 0 2.37c4.76.08 9.53-.29 14.28-.41a.78.78 0 0 0 0-1.55z"/><path d="m673.31 275.32c-.94-.06-1.89-.16-2.83-.23a27.08 27.08 0 0 0 -2.84-.19 1.2 1.2 0 0 0 -1.18 1.19 1.22 1.22 0 0 0 1.18 1.19 24.63 24.63 0 0 0 2.84-.19c.94-.07 1.89-.17 2.83-.23a.77.77 0 1 0 0-1.54z"/><path d="m681.92 292.11c-4.75-.12-9.52-.48-14.28-.41a1.19 1.19 0 0 0 0 2.37c4.76.08 9.53-.29 14.28-.41a.78.78 0 0 0 0-1.55z"/><path d="m673.31 308.91c-.94-.06-1.89-.16-2.83-.23a27.08 27.08 0 0 0 -2.84-.19 1.19 1.19 0 0 0 0 2.38 27.07 27.07 0 0 0 2.84-.18c.94-.08 1.89-.17 2.83-.23a.8.8 0 0 0 .78-.78.79.79 0 0 0 -.78-.77z"/><path d="m681.92 325.7c-4.75-.12-9.52-.48-14.28-.41a1.19 1.19 0 0 0 0 2.37c4.76.08 9.53-.29 14.28-.41a.78.78 0 0 0 0-1.55z"/><path d="m673.31 342.5c-.94-.06-1.89-.16-2.83-.23a24.61 24.61 0 0 0 -2.84-.18 1.19 1.19 0 0 0 -1.18 1.18 1.21 1.21 0 0 0 1.18 1.19 24.61 24.61 0 0 0 2.84-.18c.94-.08 1.89-.17 2.83-.23a.8.8 0 0 0 .78-.78.79.79 0 0 0 -.78-.77z"/><path d="m681.92 359.29c-4.75-.12-9.52-.48-14.28-.41a1.19 1.19 0 0 0 0 2.38c4.76.07 9.53-.3 14.28-.42a.78.78 0 0 0 0-1.55z"/><path d="m673.31 376.09c-.94-.06-1.89-.16-2.83-.23a24.61 24.61 0 0 0 -2.84-.18 1.19 1.19 0 0 0 0 2.37 24.61 24.61 0 0 0 2.84-.18c.94-.08 1.89-.17 2.83-.23a.8.8 0 0 0 .78-.78.79.79 0 0 0 -.78-.77z"/><path d="m681.92 392.89c-4.75-.13-9.52-.49-14.28-.42a1.19 1.19 0 0 0 0 2.38c4.76.07 9.53-.3 14.28-.42a.77.77 0 0 0 0-1.54z"/><path d="m673.31 409.68c-.94-.06-1.89-.16-2.83-.23a24.61 24.61 0 0 0 -2.84-.18 1.19 1.19 0 0 0 0 2.37 24.61 24.61 0 0 0 2.84-.18c.94-.07 1.89-.17 2.83-.23a.8.8 0 0 0 .78-.78.79.79 0 0 0 -.78-.77z"/><path d="m628.8 570.45h8.82v313.21h-8.82z"/><path d="m577.11 869.79h112.2v21.64h-112.2z"/></svg>