<?xml version="1.0" standalone="no"?>
<!DOCTYPE svg PUBLIC "-//W3C//DTD SVG 20010904//EN"
 "http://www.w3.org/TR/2001/REC-SVG-20010904/DTD/svg10.dtd">
<svg version="1.0" xmlns="http://www.w3.org/2000/svg"
 width="190.000000pt" height="190.000000pt" viewBox="0 0 190.000000 190.000000"
 preserveAspectRatio="xMidYMid meet">
<metadata>
Created by potrace 1.15, written by Peter Selinger 2001-2017
</metadata>
<g transform="translate(0.000000,190.000000) scale(0.100000,-0.100000)"
fill="#000000" stroke="none">
<path d="M0 950 l0 -950 408 1 c259 1 393 4 367 10 -87 19 -157 43 -162 57 -4
8 -8 10 -12 4 -4 -6 -34 4 -76 25 -231 116 -406 320 -484 565 -26 82 -26 88
-2 88 25 0 36 30 17 49 -13 13 -16 11 -25 -12 -6 -15 -13 -27 -15 -27 -7 0 18
70 39 110 9 17 15 33 13 34 -2 1 -15 7 -31 14 -28 12 -41 57 -12 46 19 -8 47
20 39 40 -8 20 9 20 47 0 44 -22 62 -5 53 52 -6 40 -4 44 20 55 14 7 26 16 26
20 0 5 24 8 53 7 28 -1 80 7 114 16 54 16 60 20 48 33 -21 21 -18 33 8 33 43
0 52 33 21 69 -7 7 -44 -32 -44 -46 0 -7 -7 -13 -15 -13 -21 0 -20 56 1 64 41
16 94 -7 94 -41 0 -5 7 -25 17 -43 16 -32 17 -33 24 -12 5 13 17 25 26 29 10
3 26 14 36 25 27 28 78 23 109 -9 15 -16 30 -40 33 -55 5 -21 16 -28 50 -37
60 -15 61 -15 26 18 -71 67 -11 168 78 131 28 -11 51 -46 51 -78 0 -9 -9 -32
-20 -49 -14 -24 -27 -33 -47 -33 -29 0 -28 -8 3 -13 45 -8 114 -55 180 -124
116 -122 177 -241 195 -385 14 -106 20 -136 26 -120 3 6 9 12 14 12 6 0 7 -5
4 -11 -4 -6 2 -13 14 -16 11 -3 18 -9 15 -14 -3 -5 -14 -3 -24 4 -24 14 -49 2
-66 -32 -11 -21 -11 -21 -28 -2 -21 23 -12 45 15 38 48 -13 26 186 -35 318
-36 75 -83 141 -71 98 12 -42 -12 -24 -32 25 -11 26 -32 62 -47 79 l-27 33
-24 -27 -23 -27 45 -51 c179 -204 177 -532 -7 -737 l-47 -53 29 -27 c17 -16
32 -28 34 -28 9 0 3 37 -7 47 -21 21 -5 57 34 77 36 17 39 17 57 1 13 -11 20
-13 25 -5 4 6 -3 21 -14 32 -25 22 -24 46 1 62 13 8 23 8 38 -2 28 -17 26 5
-2 27 -31 26 -18 55 22 47 36 -7 38 0 8 23 -12 10 -18 23 -14 29 10 16 45 15
52 -1 6 -17 -60 -204 -81 -226 -8 -10 -15 -27 -15 -39 0 -28 -34 -62 -62 -62
-15 0 -31 -13 -46 -36 -13 -20 -21 -38 -18 -41 2 -3 11 9 20 25 25 49 64 55
101 17 32 -31 31 -43 -2 -48 -16 -2 155 -5 380 -6 l407 -1 0 950 0 950 -950 0
-950 0 0 -950z m402 770 c-18 -17 -38 -30 -44 -30 -6 0 6 13 28 30 50 38 58
38 16 0z m181 -89 c33 -13 34 -19 2 -31 -26 -10 -84 4 -71 17 3 3 -1 14 -10
24 -15 16 -13 17 18 9 18 -4 45 -13 61 -19z m-111 -70 c41 -31 40 -41 -4 -41
-28 0 -78 38 -78 60 0 19 45 9 82 -19z m-144 -1 c43 -26 41 -40 -5 -33 -48 7
-95 31 -88 43 10 16 58 11 93 -10z m-124 -59 c3 -5 -1 -12 -10 -15 -25 -10
-34 -7 -28 9 7 17 30 20 38 6z m1360 -275 c14 -29 16 -45 9 -69 -18 -63 -63
-21 -63 59 0 67 23 72 54 10z m-1114 24 c0 -5 -5 -10 -11 -10 -5 0 -7 5 -4 10
3 6 8 10 11 10 2 0 4 -4 4 -10z m1034 -174 c18 -8 46 -30 61 -50 l27 -36 20
25 c16 21 28 25 73 25 63 0 76 -13 44 -46 -24 -26 -85 -34 -106 -13 -6 6 -17
8 -24 3 -18 -11 -79 -16 -106 -9 -27 6 -48 37 -58 83 -6 28 -4 32 15 32 11 0
36 -6 54 -14z m13 -171 c22 -19 43 -44 46 -55 4 -17 0 -20 -29 -20 -51 0 -101
24 -118 59 -23 44 -20 51 22 51 29 0 48 -8 79 -35z m213 18 c0 -17 -40 -73
-63 -87 -12 -9 -37 -19 -55 -22 l-32 -6 1 48 c1 37 3 43 8 24 6 -21 8 -23 17
-9 20 36 124 79 124 52z m118 -74 c36 -35 45 -60 40 -109 l-3 -32 -37 37 c-39
39 -64 95 -54 120 8 22 19 19 54 -16z m-158 -79 c0 -42 -4 -52 -25 -66 -29
-19 -31 -30 -8 -58 10 -13 7 -11 -9 4 -25 23 -26 28 -17 74 9 52 32 96 49 96
6 0 10 -22 10 -50z m-77 -86 c-3 -8 -11 -14 -18 -14 -7 0 -15 -7 -19 -15 -9
-23 -51 -18 -86 11 -24 21 -28 29 -19 40 15 18 67 18 103 -1 35 -19 40 -16 26
19 -5 15 -10 35 -9 44 0 9 6 -3 14 -27 7 -24 11 -49 8 -57z m205 26 c49 -13
65 -30 56 -64 -8 -34 -38 -34 -60 -1 -9 14 -24 25 -34 25 -18 0 -30 19 -30 47
0 9 6 13 14 10 8 -3 33 -11 54 -17z m-148 -157 c0 -28 -3 -34 -10 -23 -13 20
-13 60 0 60 6 0 10 -17 10 -37z m96 6 c4 -8 1 -8 -14 0 -12 6 -24 16 -28 22
-4 8 -1 8 14 0 12 -6 24 -16 28 -22z m69 2 c3 -5 1 -12 -5 -16 -5 -3 -10 1
-10 9 0 18 6 21 15 7z m-498 -117 c-3 -3 -12 -4 -19 -1 -8 3 -5 6 6 6 11 1 17
-2 13 -5z"/>
<path d="M487 1159 c-21 -3 -43 -11 -49 -17 -18 -18 7 -40 40 -34 l27 4 -33
-30 c-47 -45 -75 -116 -68 -174 3 -29 1 -48 -5 -48 -20 0 -20 -30 2 -79 12
-28 25 -51 30 -51 5 0 9 20 9 44 0 89 18 146 56 182 34 32 39 34 110 34 42 0
83 -4 92 -9 15 -8 17 -3 16 41 -2 58 -12 68 -71 68 -36 0 -49 6 -81 38 -34 34
-41 37 -75 31z"/>
<path d="M349 1135 c-44 -14 -45 -16 -41 -50 2 -19 6 -35 8 -35 2 0 10 16 18
35 11 26 23 37 46 41 17 4 33 11 36 15 7 12 -13 10 -67 -6z"/>
<path d="M722 1128 c-23 -23 -12 -29 44 -24 83 7 89 19 14 30 -31 4 -50 2 -58
-6z"/>
<path d="M835 1102 c-17 -12 -41 -47 -28 -38 7 4 23 0 35 -8 31 -22 43 -20 56
9 10 21 9 26 -8 35 -22 12 -41 13 -55 2z"/>
<path d="M175 1000 c-8 -13 20 -24 41 -16 20 8 9 26 -16 26 -10 0 -22 -5 -25
-10z"/>
<path d="M750 918 c11 -24 20 -56 20 -72 0 -19 4 -26 9 -20 5 5 7 37 4 72 -5
56 -8 62 -29 62 l-23 0 19 -42z"/>
<path d="M100 920 c-6 -11 -7 -20 -2 -20 6 0 12 9 15 20 3 11 3 20 1 20 -2 0
-8 -9 -14 -20z"/>
<path d="M130 933 c0 -6 -3 -18 -6 -27 -3 -9 -2 -16 4 -16 15 0 21 25 11 41
-5 9 -9 9 -9 2z"/>
<path d="M478 886 c-15 -11 -16 -18 -6 -50 10 -33 14 -37 37 -31 14 4 28 11
32 16 3 5 13 7 22 3 19 -7 23 11 6 22 -6 3 -30 6 -52 6 -38 0 -39 1 -17 10 14
5 37 8 53 5 15 -2 27 0 27 5 0 4 -12 10 -27 14 -16 3 -35 8 -43 10 -8 2 -23
-3 -32 -10z"/>
<path d="M657 883 c-15 -15 -5 -21 21 -13 16 4 36 4 45 -2 13 -7 17 -5 17 7 0
11 -10 15 -38 15 -21 0 -42 -3 -45 -7z"/>
<path d="M653 852 c-21 -13 1 -29 37 -28 41 2 52 18 18 28 -32 9 -41 9 -55 0z"/>
<path d="M567 772 c-20 -22 -13 -32 20 -32 15 0 22 4 18 11 -4 6 -13 8 -21 5
-8 -3 -14 -1 -14 3 0 5 6 11 13 14 6 2 9 7 6 11 -3 3 -13 -2 -22 -12z"/>
<path d="M520 713 c0 -5 13 -17 30 -26 17 -11 27 -23 24 -31 -7 -18 30 -30 52
-18 14 8 13 10 -9 16 -21 5 -25 11 -21 31 3 19 0 25 -13 25 -10 0 -28 3 -40 6
-13 4 -23 2 -23 -3z"/>
<path d="M670 702 c-8 -3 -21 -11 -28 -19 -19 -19 7 -18 34 1 21 16 18 26 -6
18z"/>
<path d="M451 680 c-1 -35 122 -140 164 -140 22 0 25 -3 20 -20 -5 -16 -2 -20
18 -20 20 0 30 11 51 50 14 27 26 54 26 59 0 11 -37 8 -88 -8 -25 -7 -41 -6
-70 6 -20 9 -41 16 -46 14 -15 -3 -57 29 -66 52 -5 13 -9 16 -9 7z"/>
<path d="M433 609 c-23 -48 -22 -61 8 -154 16 -52 31 -95 33 -95 6 0 -1 56 -8
68 -4 7 -4 17 0 23 4 8 12 3 21 -12 9 -14 12 -17 9 -6 -4 11 -9 30 -12 44 -4
15 -9 20 -14 14 -3 -7 -7 3 -7 21 0 18 -4 53 -9 77 -9 42 -10 43 -21 20z"/>
<path d="M750 534 c0 -34 -2 -77 -5 -95 -5 -29 -4 -30 4 -11 6 12 13 22 16 22
4 0 6 -10 5 -22 -1 -13 -1 -36 0 -53 2 -25 4 -23 11 15 14 82 10 143 -11 175
l-20 30 0 -61z m21 -67 c-13 -13 -15 1 -4 30 7 17 8 17 11 -1 2 -10 -1 -23 -7
-29z"/>
<path d="M520 345 c0 -5 5 -17 10 -25 5 -8 10 -10 10 -5 0 6 -5 17 -10 25 -5
8 -10 11 -10 5z"/>
<path d="M761 314 c0 -11 3 -14 6 -6 3 7 2 16 -1 19 -3 4 -6 -2 -5 -13z"/>
<path d="M751 264 c0 -11 3 -14 6 -6 3 7 2 16 -1 19 -3 4 -6 -2 -5 -13z"/>
<path d="M741 224 c0 -11 3 -14 6 -6 3 7 2 16 -1 19 -3 4 -6 -2 -5 -13z"/>
<path d="M581 190 c0 -8 4 -24 9 -35 5 -13 9 -14 9 -5 0 8 -4 24 -9 35 -5 13
-9 14 -9 5z"/>
<path d="M540 184 c0 -6 7 -19 16 -30 14 -18 14 -18 3 6 -14 31 -19 36 -19 24z"/>
<path d="M835 64 c-33 -18 -52 -34 -42 -34 10 0 20 -6 23 -13 3 -10 26 -13 76
-13 78 1 100 17 48 34 -23 8 -30 17 -30 36 0 32 -1 32 -75 -10z"/>
</g>
</svg>
