<?xml version="1.0" standalone="no"?>
<!DOCTYPE svg PUBLIC "-//W3C//DTD SVG 20010904//EN"
 "http://www.w3.org/TR/2001/REC-SVG-20010904/DTD/svg10.dtd">
<svg version="1.0" xmlns="http://www.w3.org/2000/svg"
 width="192.000000pt" height="192.000000pt" viewBox="0 0 192.000000 192.000000"
 preserveAspectRatio="xMidYMid meet">
<metadata>
Created by potrace 1.16, written by Peter Selinger 2001-2019
</metadata>
<g transform="translate(0.000000,192.000000) scale(0.100000,-0.100000)"
fill="#000000" stroke="none">
<path d="M0 1664 c0 -225 2 -255 15 -244 18 15 85 31 98 23 14 -8 -54 -73 -77
-73 -19 0 -19 1 -1 13 20 16 7 31 -19 21 -14 -5 -16 -41 -15 -313 l0 -306 33
70 c27 59 30 71 17 74 -28 6 -41 23 -40 50 0 14 3 20 6 14 2 -7 9 -13 15 -13
17 0 38 28 32 44 -8 20 18 21 46 4 35 -22 56 1 52 56 -3 36 -1 46 11 46 9 0
23 7 32 16 11 12 27 15 54 11 21 -2 51 1 67 8 16 6 46 15 67 19 36 7 38 8 23
25 -19 20 -12 31 19 31 34 0 49 23 33 49 -17 28 -23 27 -50 -9 -28 -39 -40
-38 -36 3 3 29 6 32 41 35 41 4 66 -16 67 -51 0 -10 7 -20 15 -23 8 -4 15 -13
15 -22 0 -13 4 -11 16 6 8 12 21 22 29 22 8 0 19 9 25 20 8 14 21 20 46 20 50
0 73 -16 95 -65 14 -32 26 -44 46 -48 16 -3 37 -9 48 -13 12 -5 6 4 -15 23
-64 57 -37 143 47 143 71 0 109 -85 63 -143 -11 -14 -20 -28 -20 -31 0 -3 24
-21 53 -39 28 -18 81 -65 117 -104 118 -127 178 -257 187 -406 5 -70 7 -77 24
-72 14 5 19 1 19 -14 0 -12 7 -21 15 -21 8 0 15 -4 15 -10 0 -5 -5 -10 -10
-10 -6 0 -9 -3 -8 -7 3 -9 -5 -13 -27 -13 -8 0 -15 8 -15 18 0 14 2 15 10 2 5
-8 12 -11 15 -8 10 9 -3 28 -19 28 -7 0 -17 -24 -23 -58 -11 -56 -52 -176 -58
-170 -2 2 5 28 15 58 36 109 30 134 -8 30 -20 -58 -47 -122 -59 -143 -13 -21
-23 -46 -23 -56 0 -25 -32 -51 -63 -51 -15 0 -27 -4 -27 -9 0 -4 12 -6 26 -3
56 10 102 -42 68 -79 -17 -19 -11 -19 389 -19 l407 0 0 146 c0 126 -3 150 -18
172 -11 15 -34 57 -52 94 -18 37 -41 70 -51 73 -31 10 -21 25 16 25 42 0 48
24 10 42 -14 6 -25 17 -25 25 0 19 32 1 58 -32 11 -14 23 -25 26 -25 4 0 6 26
4 58 -3 53 -5 57 -28 58 -53 1 -61 5 -70 30 -8 19 -16 25 -30 21 -20 -5 -30
10 -30 45 0 16 5 19 23 14 12 -3 27 -6 33 -6 6 0 28 -11 48 -25 48 -33 50 -7
2 38 -40 38 -66 86 -66 122 0 35 25 32 66 -9 28 -28 34 -41 34 -79 0 -24 5
-58 11 -76 l11 -32 14 27 c11 21 14 134 14 620 l0 594 -960 0 -960 0 0 -256z
m1564 -405 c14 -24 17 -41 11 -73 -9 -52 -9 -78 0 -123 4 -20 10 -32 13 -26
15 22 52 33 96 27 25 -4 46 -11 46 -16 0 -44 -64 -77 -110 -58 -17 7 -33 10
-36 8 -2 -3 -7 -30 -11 -59 l-6 -54 24 21 c49 44 119 61 119 29 0 -24 -59 -83
-96 -97 -37 -13 -40 -23 -22 -83 l11 -40 9 45 c8 44 41 90 55 76 4 -4 8 -25 8
-48 0 -32 -6 -45 -29 -64 -27 -24 -27 -25 -11 -50 9 -14 14 -28 12 -31 -3 -2
-13 7 -22 21 -19 29 -59 35 -69 11 -13 -34 -116 1 -116 40 0 28 73 34 120 10
l30 -15 -11 27 c-6 16 -14 46 -18 68 l-7 40 -57 6 c-64 7 -99 31 -116 80 -12
35 -6 39 46 32 42 -5 93 -43 120 -88 10 -17 12 -9 12 50 l1 71 -39 -4 c-21 -2
-49 1 -61 8 -22 12 -50 65 -50 95 0 34 104 6 134 -36 l16 -23 0 34 c0 19 -12
53 -25 75 -18 29 -25 54 -25 91 0 28 3 53 6 57 11 10 30 -3 48 -34z"/>
<path d="M480 1173 c-60 -11 -61 -49 -1 -39 l36 6 -38 -35 c-51 -47 -80 -116
-74 -177 2 -27 0 -48 -5 -48 -19 0 -18 -31 3 -79 12 -28 25 -51 30 -51 5 0 9
22 9 48 0 27 6 57 15 68 14 19 14 19 16 -1 1 -11 2 -26 2 -33 -1 -14 11 -14
86 5 30 7 32 10 17 22 -9 8 -35 14 -59 14 -37 0 -39 1 -17 9 14 5 41 7 60 3
33 -5 34 -4 16 10 -11 8 -30 15 -42 15 -13 0 -26 5 -29 10 -9 15 -25 12 -25
-5 0 -8 -4 -15 -10 -15 -22 0 -8 37 26 72 35 37 36 37 112 36 42 0 84 -4 92
-8 13 -7 15 0 14 42 -2 58 -12 68 -67 68 -39 0 -82 22 -105 52 -13 18 -17 19
-62 11z"/>
<path d="M984 1016 l-20 -23 44 -48 c88 -98 132 -219 132 -365 0 -131 -36
-243 -108 -338 l-24 -32 28 15 c37 19 63 19 71 -1 4 -12 8 -13 14 -3 5 8 0 18
-12 27 -43 30 -11 83 41 67 11 -3 20 -2 20 3 0 5 -9 12 -20 15 -13 3 -20 14
-20 30 0 28 26 43 45 27 9 -8 15 -8 20 0 3 5 -1 10 -10 10 -22 0 -30 28 -13
48 8 9 18 25 21 35 4 9 12 17 19 17 27 0 36 35 28 106 -10 93 -26 146 -65 224
-34 67 -71 121 -59 88 3 -9 3 -22 -1 -28 -4 -7 -22 18 -42 59 -40 84 -60 99
-89 67z"/>
<path d="M451 700 c-1 -32 121 -140 158 -140 14 0 21 -6 21 -20 0 -14 7 -20
24 -20 19 0 30 11 50 50 33 64 33 70 -6 63 -88 -14 -108 -14 -139 1 -18 9 -40
16 -49 16 -18 0 -43 24 -53 50 -5 13 -5 13 -6 0z"/>
<path d="M12 512 c-8 -2 -12 -27 -12 -78 0 -56 6 -86 24 -129 14 -30 29 -55
34 -55 6 0 13 -12 17 -27 8 -34 49 -89 76 -103 15 -8 19 -8 17 2 -2 9 9 13 34
13 l36 0 -44 44 c-84 82 -135 175 -157 282 -8 36 -16 54 -25 51z"/>
<path d="M0 148 l0 -148 108 0 c106 0 107 1 83 19 -13 10 -21 23 -17 30 4 6 1
11 -9 11 -10 0 -13 5 -9 12 5 7 2 9 -8 5 -18 -7 -42 25 -106 143 l-42 75 0
-147z"/>
</g>
</svg>
