<?xml version="1.0" standalone="no"?>
<!DOCTYPE svg PUBLIC "-//W3C//DTD SVG 20010904//EN"
 "http://www.w3.org/TR/2001/REC-SVG-20010904/DTD/svg10.dtd">
<svg version="1.0" xmlns="http://www.w3.org/2000/svg"
 width="192.000000pt" height="192.000000pt" viewBox="0 0 192.000000 192.000000"
 preserveAspectRatio="xMidYMid meet">

<g transform="translate(0.000000,192.000000) scale(0.100000,-0.100000)"
fill="#000000" stroke="none">
<path d="M1297 1894 c179 -42 438 -127 606 -199 14 -6 17 -2 17 27 0 30 -4 36
-36 47 -19 7 -33 15 -30 18 3 3 19 1 35 -5 27 -10 31 -9 31 7 0 23 -20 31
-203 86 l-154 45 -184 -1 -184 -1 102 -24z"/>
<path d="M1825 1890 c50 -16 91 -30 93 -30 1 0 2 14 2 30 l0 30 -92 0 -93 -1
90 -29z"/>
<path d="M803 1856 c-191 -37 -352 -118 -487 -245 -263 -251 -347 -629 -215
-971 34 -89 131 -243 136 -218 2 9 -11 38 -30 65 -105 147 -155 330 -144 531
6 124 32 222 83 325 117 234 310 394 571 474 80 24 103 26 248 27 188 0 262
-16 412 -89 386 -188 584 -618 468 -1019 -36 -124 -104 -254 -173 -328 -13
-14 -22 -32 -20 -39 6 -19 105 118 149 207 164 335 102 726 -159 1006 -34 36
-59 67 -57 70 3 3 -3 11 -12 19 -16 13 -17 12 -4 -3 7 -10 9 -18 4 -18 -12 0
-50 40 -45 47 2 3 0 8 -4 11 -4 4 -4 1 0 -5 11 -20 1 -16 -59 23 -73 46 -178
90 -274 115 -100 26 -291 33 -388 15z"/>
<path d="M860 1785 c0 -8 9 -15 20 -15 17 0 20 -7 20 -43 0 -48 5 -58 26 -50
9 3 14 21 14 49 0 32 4 44 15 44 8 0 15 7 15 15 0 12 -13 15 -55 15 -42 0 -55
-3 -55 -15z"/>
<path d="M1011 1739 l-34 -61 41 7 c30 5 47 2 66 -10 23 -15 26 -15 26 -2 0
29 -23 117 -31 117 -4 0 -13 2 -21 5 -8 3 -25 -17 -47 -56z m59 -10 c0 -5 -7
-9 -15 -9 -9 0 -12 6 -9 15 6 15 24 11 24 -6z"/>
<path d="M695 1758 c-16 -6 -31 -12 -32 -13 -2 -1 5 -26 15 -56 20 -58 48 -75
45 -27 -1 19 4 29 18 33 29 9 23 28 -6 21 -18 -5 -25 -2 -25 8 0 7 11 17 25
20 14 4 23 11 20 16 -8 12 -21 12 -60 -2z"/>
<path d="M1160 1750 c-25 -25 -26 -72 -2 -93 23 -21 65 -22 82 -2 13 16 11 17
-35 19 -34 1 -43 22 -21 51 14 19 15 20 45 2 26 -15 31 -16 31 -3 0 18 -38 46
-62 46 -10 0 -27 -9 -38 -20z"/>
<path d="M1291 1674 l-30 -55 44 -21 c46 -22 74 -17 41 7 -10 8 -23 16 -29 18
-5 1 0 22 12 45 25 49 25 48 6 55 -9 4 -23 -11 -44 -49z"/>
<path d="M546 1689 c-31 -25 -34 -61 -6 -89 27 -27 66 -25 95 4 22 22 23 28
14 55 -18 53 -59 64 -103 30z m64 -30 c15 -26 6 -49 -18 -49 -24 0 -45 43 -29
59 17 17 35 13 47 -10z"/>
<path d="M369 1683 c-13 -16 -12 -17 4 -4 9 7 17 15 17 17 0 8 -8 3 -21 -13z"/>
<path d="M280 1603 l-55 -58 58 55 c31 30 57 56 57 57 0 8 -10 -1 -60 -54z"/>
<path d="M810 1625 c-36 -8 -108 -36 -160 -61 -253 -125 -408 -407 -370 -676
13 -89 29 -143 41 -131 5 5 2 30 -6 57 -20 65 -19 235 0 311 72 277 324 478
620 492 131 7 222 -13 345 -73 152 -75 266 -205 327 -372 46 -126 42 -315 -9
-435 -12 -26 -18 -51 -14 -55 11 -10 24 15 49 93 18 58 22 92 22 200 0 115 -4
138 -27 203 -38 106 -83 177 -163 257 -133 133 -279 195 -475 201 -76 2 -137
-2 -180 -11z"/>
<path d="M1401 1614 c-27 -34 -26 -50 4 -79 32 -33 68 -32 94 1 27 34 27 58
-1 84 -31 28 -72 26 -97 -6z m82 -19 c9 -21 -26 -60 -46 -52 -20 7 -22 38 -5
55 16 16 45 15 51 -3z"/>
<path d="M1630 1616 c0 -2 8 -10 18 -17 15 -13 16 -12 3 4 -13 16 -21 21 -21
13z"/>
<path d="M856 1579 c-66 -45 -108 -133 -100 -213 4 -43 2 -54 -10 -59 -9 -4
-16 -14 -16 -22 0 -20 41 -119 52 -123 4 -2 12 -20 19 -40 6 -20 20 -49 31
-64 30 -43 135 -118 164 -118 23 0 26 -4 22 -25 -4 -20 -1 -25 16 -25 12 0 29
6 38 13 16 13 68 103 68 118 0 11 -42 6 -97 -11 -36 -11 -47 -10 -85 5 -24 9
-54 19 -68 22 -56 10 -83 62 -95 188 -4 39 -3 55 4 46 7 -11 10 -10 13 8 4 31
21 27 26 -6 2 -15 5 -29 7 -32 9 -9 125 24 125 36 0 14 -59 27 -95 21 -14 -3
-25 -2 -25 3 0 12 66 22 95 15 14 -4 25 -2 25 4 0 5 -11 12 -25 15 -14 3 -36
7 -50 10 -14 3 -23 10 -20 15 8 13 -6 13 -25 0 -11 -7 -11 -10 -2 -10 7 0 10
-4 7 -10 -11 -18 -35 -11 -35 11 0 12 20 40 47 65 l46 44 99 -5 c55 -2 103 -7
107 -10 16 -9 61 -116 61 -143 0 -15 7 -35 14 -45 13 -16 14 -14 11 20 -2 21
-5 63 -8 94 -3 40 -15 74 -41 121 -32 58 -43 68 -88 88 -29 12 -77 24 -107 27
-50 4 -61 1 -105 -28z m-89 -311 c-3 -8 -6 -5 -6 6 -1 11 2 17 5 13 3 -3 4
-12 1 -19z"/>
<path d="M394 1585 c-4 -8 -4 -24 -1 -35 4 -16 1 -18 -22 -14 -17 4 -32 0 -39
-9 -10 -12 -6 -15 24 -20 20 -4 47 -16 60 -28 23 -21 44 -19 44 5 0 8 -6 19
-14 25 -8 7 -17 30 -21 52 -7 40 -21 51 -31 24z"/>
<path d="M1529 1511 l-44 -40 37 -37 c39 -39 65 -41 75 -4 3 11 12 20 19 20
27 0 26 29 -3 64 -15 20 -31 36 -34 36 -4 0 -26 -18 -50 -39z m71 -27 c0 -16
-16 -19 -25 -4 -8 13 4 32 16 25 5 -4 9 -13 9 -21z m-30 -35 c0 -12 -27 -11
-35 1 -11 17 5 32 21 19 8 -6 14 -15 14 -20z"/>
<path d="M1690 1546 c0 -2 8 -10 18 -17 15 -13 16 -12 3 4 -13 16 -21 21 -21
13z"/>
<path d="M199 1513 c-13 -16 -12 -17 4 -4 9 7 17 15 17 17 0 8 -8 3 -21 -13z"/>
<path d="M262 1436 c-33 -45 -29 -67 6 -45 16 10 25 8 51 -10 26 -19 34 -21
47 -11 12 11 9 16 -23 38 -21 14 -40 27 -42 29 -3 2 1 9 7 15 16 16 15 28 -1
28 -8 0 -28 -20 -45 -44z"/>
<path d="M1612 1391 c-18 -3 -33 -9 -32 -13 0 -5 0 -12 0 -18 0 -5 7 -10 15
-10 18 0 34 -28 28 -50 -10 -37 16 -28 57 21 34 41 40 52 30 64 -13 15 -40 17
-98 6z m55 -38 c-9 -9 -19 -14 -23 -11 -10 10 6 28 24 28 15 0 15 -1 -1 -17z"/>
<path d="M203 1345 c-7 -19 -11 -15 51 -49 38 -20 51 -24 58 -14 13 21 11 22
-47 51 -48 23 -56 25 -62 12z"/>
<path d="M1066 1341 c-16 -3 -31 -12 -34 -18 -4 -15 -5 -15 37 -3 22 6 40 6
53 -1 25 -13 35 -4 18 16 -13 16 -26 17 -74 6z"/>
<path d="M1049 1303 c-23 -5 -12 -43 12 -43 10 0 21 5 24 10 9 15 25 12 25 -5
0 -19 7 -19 25 -1 11 11 12 16 2 24 -15 11 -66 20 -88 15z"/>
<path d="M1698 1272 c-47 -17 -53 -22 -46 -43 2 -7 12 -7 31 0 32 12 34 5 7
-29 -39 -50 -22 -66 46 -43 58 19 66 24 55 41 -6 10 -14 10 -34 3 -32 -13 -33
-8 -6 30 19 27 20 60 2 58 -4 0 -29 -8 -55 -17z"/>
<path d="M160 1251 c-14 -28 -12 -66 4 -80 8 -7 30 -14 49 -18 28 -4 37 -1 51
18 18 26 20 57 6 79 -14 21 -29 -3 -22 -36 3 -19 0 -24 -16 -24 -49 0 -67 25
-37 50 21 17 19 30 -5 30 -10 0 -24 -9 -30 -19z"/>
<path d="M950 1212 c-30 -25 -18 -42 28 -42 31 1 34 2 19 11 -10 6 -25 8 -33
5 -20 -7 -18 4 3 20 10 7 15 15 12 18 -3 4 -17 -2 -29 -12z"/>
<path d="M1186 1205 c-3 -9 -6 -26 -5 -38 1 -14 4 -9 9 13 9 37 7 52 -4 25z"/>
<path d="M1025 1180 c-3 -5 1 -10 10 -10 9 0 13 5 10 10 -3 6 -8 10 -10 10 -2
0 -7 -4 -10 -10z"/>
<path d="M890 1141 c0 -5 16 -19 35 -31 27 -17 34 -27 30 -41 -6 -17 -1 -19
34 -19 46 0 65 17 24 22 -16 2 -28 8 -28 13 0 6 -4 16 -9 24 -7 10 -4 12 14 6
15 -5 20 -4 16 4 -4 6 -25 11 -47 11 -24 0 -38 4 -34 10 3 6 -3 10 -14 10 -12
0 -21 -4 -21 -9z"/>
<path d="M1100 1141 c0 -5 -13 -12 -29 -16 -37 -8 -58 -30 -36 -39 8 -3 15 -2
15 3 0 5 14 14 30 21 17 7 30 19 30 26 0 8 -2 14 -5 14 -3 0 -5 -4 -5 -9z"/>
<path d="M1152 1085 c-12 -25 -18 -45 -14 -45 8 0 45 80 39 86 -2 2 -13 -17
-25 -41z"/>
<path d="M21 1094 c0 -11 3 -14 6 -6 3 7 2 16 -1 19 -3 4 -6 -2 -5 -13z"/>
<path d="M787 1013 c-9 -18 -17 -45 -17 -61 0 -28 59 -215 79 -249 15 -25 13
-12 -4 36 -8 23 -11 49 -8 58 4 10 2 14 -4 10 -6 -4 -13 2 -16 13 -3 11 0 18
7 17 6 -1 9 5 7 13 -2 8 -5 24 -7 35 l-5 20 10 -20 c6 -11 31 -78 57 -148 25
-70 48 -126 50 -124 2 2 -16 57 -40 123 -46 125 -82 242 -88 284 -4 25 -4 25
-21 -7z"/>
<path d="M157 978 c-6 -23 -13 -28 -40 -28 l-32 0 24 -19 c19 -14 22 -24 17
-45 -6 -26 -6 -26 17 -12 21 14 25 14 46 -1 24 -16 24 -16 17 11 -5 21 -2 31
16 46 l23 19 -31 1 c-24 0 -32 6 -40 28 l-10 27 -7 -27z"/>
<path d="M1755 978 c-6 -23 -13 -28 -39 -28 l-31 0 23 -18 c19 -15 22 -24 16
-47 -7 -28 -7 -28 16 -12 21 14 25 14 47 0 24 -16 24 -16 17 12 -5 22 -2 31
17 46 l24 19 -32 0 c-25 0 -33 5 -41 28 l-10 27 -7 -27z"/>
<path d="M12 965 c0 -16 2 -22 5 -12 2 9 2 23 0 30 -3 6 -5 -1 -5 -18z"/>
<path d="M1160 938 c0 -31 -2 -75 -4 -99 -2 -24 -2 -36 1 -26 2 9 9 17 14 17
14 0 24 -33 12 -37 -7 -3 -9 -17 -6 -36 2 -18 -3 -66 -12 -107 -8 -41 -18 -88
-21 -105 -4 -28 -4 -28 6 -6 11 25 44 209 55 304 7 61 -6 117 -31 137 -12 11
-14 4 -14 -42z m26 -75 c-10 -26 -18 -8 -9 23 5 21 8 24 11 11 2 -10 1 -25 -2
-34z"/>
<path d="M1142 760 c0 -14 2 -19 5 -12 2 6 2 18 0 25 -3 6 -5 1 -5 -13z"/>
<path d="M1132 695 c0 -16 2 -22 5 -12 2 9 2 23 0 30 -3 6 -5 -1 -5 -18z"/>
<path d="M1121 644 c0 -11 3 -14 6 -6 3 7 2 16 -1 19 -3 4 -6 -2 -5 -13z"/>
<path d="M940 595 c0 -5 5 -17 10 -25 5 -8 10 -10 10 -5 0 6 -5 17 -10 25 -5
8 -10 11 -10 5z"/>
<path d="M1101 564 c0 -11 3 -14 6 -6 3 7 2 16 -1 19 -3 4 -6 -2 -5 -13z"/>
<path d="M906 550 c7 -28 46 -102 51 -97 1 2 -11 30 -27 63 -17 32 -27 48 -24
34z"/>
<path d="M961 545 c0 -5 6 -28 14 -50 8 -22 14 -31 14 -20 0 21 -27 88 -28 70z"/>
<path d="M130 514 c0 -13 81 -122 111 -149 26 -23 23 -19 -10 20 -24 28 -54
69 -68 93 -23 39 -33 50 -33 36z"/>
<path d="M1071 448 c-7 -24 -15 -50 -18 -58 -3 -8 2 -6 10 5 13 19 33 95 24
95 -3 0 -10 -19 -16 -42z"/>
<path d="M1835 453 c-50 -26 -92 -59 -150 -118 -187 -193 -416 -285 -713 -285
-99 0 -127 -4 -182 -25 l-65 -24 218 0 218 -1 100 35 c55 19 107 42 115 50 9
8 21 15 27 15 7 0 6 -4 -3 -10 -12 -8 -11 -10 7 -10 28 0 74 21 68 31 -3 4 0
11 6 15 8 5 9 3 4 -6 -6 -10 -4 -12 9 -7 10 4 20 7 22 7 3 0 3 4 0 8 -2 4 7 9
22 10 17 1 -14 -20 -85 -58 -62 -33 -117 -60 -122 -60 -6 0 -13 -5 -16 -10 -4
-7 98 -10 299 -10 l306 0 0 245 c0 135 -3 245 -7 245 -5 -1 -39 -17 -78 -37z"/>
<path d="M1116 434 c-4 -14 -5 -28 -3 -31 3 -2 8 8 11 23 4 14 5 28 3 31 -3 2
-8 -8 -11 -23z"/>
<path d="M980 402 c11 -20 37 -55 56 -77 l34 -40 -16 37 c-10 20 -21 35 -25
33 -4 -3 -19 15 -33 40 -32 54 -46 61 -16 7z"/>
<path d="M1666 352 c-33 -37 -47 -56 -31 -42 44 38 105 110 93 110 -2 0 -30
-30 -62 -68z"/>
<path d="M1115 328 c-4 -13 -13 -26 -19 -30 -8 -5 -7 -8 2 -8 12 0 37 49 28
57 -2 3 -7 -6 -11 -19z"/>
<path d="M1390 298 c0 -15 4 -29 9 -33 16 -9 18 9 5 35 l-14 25 0 -27z"/>
<path d="M528 304 c-5 -4 -8 -16 -8 -26 0 -10 -7 -21 -15 -24 -8 -4 -15 -11
-15 -16 0 -6 7 -8 15 -4 14 5 14 2 0 -24 -14 -27 -14 -30 8 -45 22 -15 22 -15
25 25 4 57 -2 123 -10 114z"/>
<path d="M335 270 c10 -11 20 -20 23 -20 3 0 -3 9 -13 20 -10 11 -20 20 -23
20 -3 0 3 -9 13 -20z"/>
<path d="M960 280 c0 -8 24 -20 41 -20 6 0 8 4 5 9 -8 12 -46 21 -46 11z"/>
<path d="M1164 275 c-10 -8 -14 -15 -8 -15 6 0 17 7 24 15 16 19 9 19 -16 0z"/>
<path d="M1496 209 c-33 -22 -54 -39 -47 -39 7 0 33 14 59 32 58 39 56 37 51
42 -2 2 -31 -14 -63 -35z"/>
<path d="M970 190 c-8 -5 -12 -11 -9 -14 3 -3 14 1 25 9 21 16 8 20 -16 5z"/>
<path d="M1160 186 c0 -2 7 -6 15 -10 8 -3 15 -1 15 4 0 6 -7 10 -15 10 -8 0
-15 -2 -15 -4z"/>
<path d="M1032 135 c0 -16 2 -22 5 -12 2 9 2 23 0 30 -3 6 -5 -1 -5 -18z"/>
<path d="M1100 141 c0 -5 7 -14 15 -21 16 -14 18 -10 9 14 -6 17 -24 22 -24 7z"/>
</g>
</svg>
