<?xml version="1.0" ?><svg enable-background="new 0 0 512 512" id="Layer_1" version="1.1" viewBox="0 0 512 512" xml:space="preserve" xmlns="http://www.w3.org/2000/svg" xmlns:xlink="http://www.w3.org/1999/xlink"><g><g><linearGradient gradientUnits="userSpaceOnUse" id="SVGID_1_" x1="-0.0000027" x2="512" y1="256" y2="256"><stop offset="0" style="stop-color:#E24263"/><stop offset="1" style="stop-color:#DD1E47"/></linearGradient><circle cx="256" cy="256" fill="url(#SVGID_1_)" r="256"/><linearGradient gradientUnits="userSpaceOnUse" id="SVGID_2_" x1="42.6666641" x2="469.3333435" y1="256.0005188" y2="256.0005188"><stop offset="0" style="stop-color:#DD1E47"/><stop offset="1" style="stop-color:#E24263"/></linearGradient><path d="M256,469.3338623c-117.6309967,0-213.3333435-95.7018738-213.3333435-213.3333435    c0-117.6309204,95.7023392-213.333313,213.3333435-213.333313c117.6362,0,213.3333435,95.7024002,213.3333435,213.333313    C469.3333435,373.6319885,373.6362,469.3338623,256,469.3338623z" fill="url(#SVGID_2_)"/></g><g><path d="M145.2047424,321.3807983V384h237.5909424v-62.6192017H145.2047424z M301.4308777,365.2058716h-74.8634644    v-24.4117432h10v14.4117432h54.8634644v-14.4117432h10V365.2058716z" opacity="0.3"/><path d="M145.2047424,232.6901398v62.6197357h237.5909424v-62.6197357H145.2047424z M301.4308777,276.5141296    h-74.8634644V252.105072h10v14.4090576h54.8634644V252.105072h10V276.5141296z" opacity="0.3"/><path d="M145.2047424,144v62.6192017h237.5909424V144H145.2047424z M301.4308777,187.8250732h-74.8634644    v-24.4112091h10v14.4112091h54.8634644v-14.4112091h10V187.8250732z" opacity="0.3"/></g><g><path d="M137.2047424,313.3807983V376h237.5909424v-62.6192017H137.2047424z M293.4308777,357.2058716h-74.8634644    v-24.4117432h10v14.4117432h54.8634644v-14.4117432h10V357.2058716z" fill="#FFFFFF"/><path d="M137.2047424,224.6901398v62.6197357h237.5909424v-62.6197357H137.2047424z M293.4308777,268.5141296    h-74.8634644V244.105072h10v14.4090576h54.8634644V244.105072h10V268.5141296z" fill="#FFFFFF"/><path d="M137.2047424,136v62.6192017h237.5909424V136H137.2047424z M293.4308777,179.8250732h-74.8634644    v-24.4112091h10v14.4112091h54.8634644v-14.4112091h10V179.8250732z" fill="#FFFFFF"/></g></g></svg>