<?xml version="1.0" ?><svg enable-background="new 0 0 512 512" id="Layer_1" version="1.1" viewBox="0 0 512 512" xml:space="preserve" xmlns="http://www.w3.org/2000/svg" xmlns:xlink="http://www.w3.org/1999/xlink"><g><g><linearGradient gradientUnits="userSpaceOnUse" id="SVGID_1_" x1="-0.0000027" x2="512" y1="256" y2="256"><stop offset="0" style="stop-color:#B49A85"/><stop offset="0.0650802" style="stop-color:#B0957F"/><stop offset="0.2856463" style="stop-color:#A88A71"/><stop offset="0.5538635" style="stop-color:#A38369"/><stop offset="1" style="stop-color:#A18166"/></linearGradient><circle cx="256" cy="256" fill="url(#SVGID_1_)" r="256"/><linearGradient gradientUnits="userSpaceOnUse" id="SVGID_2_" x1="42.6666641" x2="469.3333435" y1="256.0005188" y2="256.0005188"><stop offset="0" style="stop-color:#A18166"/><stop offset="0.4461364" style="stop-color:#A38369"/><stop offset="0.7143537" style="stop-color:#A88A71"/><stop offset="0.9349198" style="stop-color:#B0957F"/><stop offset="1" style="stop-color:#B49A85"/></linearGradient><path d="M256,469.3338623c-117.6315002,0-213.3333435-95.7018738-213.3333435-213.3333435    c0-117.6309204,95.7018356-213.333313,213.3333435-213.333313c117.6357117,0,213.3333435,95.7024002,213.3333435,213.333313    C469.3333435,373.6319885,373.6357117,469.3338623,256,469.3338623z" fill="url(#SVGID_2_)"/></g><g><path d="M169.0954437,207.5247955c-13.8501434,0-25.1002655,11.2501373-25.1002655,25.1002655    c0,13.8496094,11.2501221,25.0992126,25.1002655,25.0992126c13.8495941,0,25.0997314-11.2496033,25.0997314-25.0992126    C194.1951752,218.7749329,182.9450378,207.5247955,169.0954437,207.5247955z" opacity="0.3"/><rect height="10" opacity="0.3" width="174.8245239" x="209.1797028" y="227.6351929"/><path d="M169.0954437,144.7754669c-13.8501434,0-25.1002655,11.2997284-25.1002655,25.0997314    c0,13.8495941,11.2501221,25.0997314,25.1002655,25.0997314c13.8495941,0,25.0997314-11.2501373,25.0997314-25.0997314    C194.1951752,156.0751953,182.9450378,144.7754669,169.0954437,144.7754669z" opacity="0.3"/><rect height="10" opacity="0.3" width="174.8245239" x="209.1797028" y="164.8912048"/><path d="M169.0954437,270.2746582c-13.8501434,0-25.1002655,11.2496033-25.1002655,25.0997314    c0,13.8506775,11.2501221,25.1007996,25.1002655,25.1007996c13.8495941,0,25.0997314-11.2501221,25.0997314-25.1007996    C194.1951752,281.5242615,182.9450378,270.2746582,169.0954437,270.2746582z" opacity="0.3"/><rect height="10" opacity="0.3" width="174.8245239" x="209.1797028" y="290.3818665"/><path d="M169.0954437,333.0250549c-13.8501434,0-25.1002655,11.2501526-25.1002655,25.0997314    c0,13.8501587,11.2501221,25.1002808,25.1002655,25.1002808c13.8495941,0,25.0997314-11.2501221,25.0997314-25.1002808    C194.1951752,344.2752075,182.9450378,333.0250549,169.0954437,333.0250549z" opacity="0.3"/><rect height="10" opacity="0.3" width="174.8245239" x="209.1797028" y="353.12854"/></g><g><path d="M161.0954437,199.5247955c-13.8501434,0-25.1002655,11.2501373-25.1002655,25.1002655    c0,13.8496094,11.2501221,25.0992126,25.1002655,25.0992126c13.8495941,0,25.0997314-11.2496033,25.0997314-25.0992126    C186.1951752,210.7749329,174.9450378,199.5247955,161.0954437,199.5247955z" fill="#FFFFFF"/><rect fill="#FFFFFF" height="10" width="174.8245239" x="201.1797028" y="219.6351929"/><path d="M161.0954437,136.7754669c-13.8501434,0-25.1002655,11.2997284-25.1002655,25.0997314    c0,13.8495941,11.2501221,25.0997314,25.1002655,25.0997314c13.8495941,0,25.0997314-11.2501373,25.0997314-25.0997314    C186.1951752,148.0751953,174.9450378,136.7754669,161.0954437,136.7754669z" fill="#FFFFFF"/><rect fill="#FFFFFF" height="10" width="174.8245239" x="201.1797028" y="156.8912048"/><path d="M161.0954437,262.2746582c-13.8501434,0-25.1002655,11.2496033-25.1002655,25.0997314    c0,13.8506775,11.2501221,25.1007996,25.1002655,25.1007996c13.8495941,0,25.0997314-11.2501221,25.0997314-25.1007996    C186.1951752,273.5242615,174.9450378,262.2746582,161.0954437,262.2746582z" fill="#FFFFFF"/><rect fill="#FFFFFF" height="10" width="174.8245239" x="201.1797028" y="282.3818665"/><path d="M161.0954437,325.0250549c-13.8501434,0-25.1002655,11.2501526-25.1002655,25.0997314    c0,13.8501587,11.2501221,25.1002808,25.1002655,25.1002808c13.8495941,0,25.0997314-11.2501221,25.0997314-25.1002808    C186.1951752,336.2752075,174.9450378,325.0250549,161.0954437,325.0250549z" fill="#FFFFFF"/><rect fill="#FFFFFF" height="10" width="174.8245239" x="201.1797028" y="345.12854"/></g></g></svg>