<?xml version="1.0" ?><svg enable-background="new 0 0 512 512" id="Layer_1" version="1.1" viewBox="0 0 512 512" xml:space="preserve" xmlns="http://www.w3.org/2000/svg" xmlns:xlink="http://www.w3.org/1999/xlink"><g><g><linearGradient gradientUnits="userSpaceOnUse" id="SVGID_1_" x1="-0.0000027" x2="512" y1="256" y2="256"><stop offset="0" style="stop-color:#95A5A6"/><stop offset="1" style="stop-color:#7F8C8D"/></linearGradient><circle cx="256" cy="256" fill="url(#SVGID_1_)" r="256"/><linearGradient gradientUnits="userSpaceOnUse" id="SVGID_2_" x1="42.6666641" x2="469.3333435" y1="256.0005188" y2="256.0005188"><stop offset="0" style="stop-color:#7F8C8D"/><stop offset="1" style="stop-color:#95A5A6"/></linearGradient><path d="M256,469.3338623c-117.6315155,0-213.3333435-95.7018738-213.3333435-213.3333435    c0-117.6309204,95.7018204-213.333313,213.3333435-213.333313c117.6356812,0,213.3333435,95.7024002,213.3333435,213.333313    C469.3333435,373.6319885,373.6356812,469.3338623,256,469.3338623z" fill="url(#SVGID_2_)"/></g><g><path d="M370.5412903,298.3568115c-17.9445496-17.9450684-47.0389404-17.9450684-64.9834595,0    c-17.9450684,17.9440002-17.9450684,47.0389099,0,64.9829102c17.944519,17.9456177,47.0389099,17.9456177,64.9834595,0    C388.4863586,345.3957214,388.4863586,316.3008118,370.5412903,298.3568115z M329.3828735,355.2538757l-20.8698425-20.8693542    l7.0709839-7.0698547l13.7988586,13.7984009l31.1322937-31.1322632l7.0703735,7.0698547L329.3828735,355.2538757z" opacity="0.3"/><circle cx="249.5555725" cy="201.0237274" opacity="0.3" r="49.8222542"/><path d="M298.4890137,291.2842712c8.2389526-8.2389526,18.6053467-13.5450745,29.8523254-15.503479    c-5.7840576-6.4927979-12.3008423-12.3189392-19.5136414-17.2229309c-0.785614-0.5343933-2.3664246-1.5610657-2.3664246-1.5610657    c-12.7354431,17.6821289-33.4986572,29.2144165-56.9055786,29.2144165c-23.410141,0-44.1743622-11.5344238-56.9098663-29.2192078    c0,0-1.3280029,0.8682556-1.9888,1.3135986C162.5130157,277.2629395,144,309.4261475,144,345.9130554v11.067749h144.5807495    C277.434082,335.8528137,280.7332764,309.0405273,298.4890137,291.2842712z" opacity="0.3"/></g><g><path d="M362.5412903,290.3568115c-17.9445496-17.9450684-47.0389404-17.9450684-64.9834595,0    c-17.9450684,17.9440002-17.9450684,47.0389099,0,64.9829102c17.944519,17.9456177,47.0389099,17.9456177,64.9834595,0    C380.4863586,337.3957214,380.4863586,308.3008118,362.5412903,290.3568115z M321.3828735,347.2538757l-20.8698425-20.8693542    l7.0709839-7.0698547l13.7988586,13.7984009l31.1322937-31.1322632l7.0703735,7.0698547L321.3828735,347.2538757z" fill="#FFFFFF"/><circle cx="241.5555725" cy="193.0237274" fill="#FFFFFF" r="49.8222542"/><path d="M290.4890137,283.2842712c8.2389526-8.2389526,18.6053467-13.5450745,29.8523254-15.503479    c-5.7840576-6.4927979-12.3008423-12.318924-19.5136414-17.2229309c-0.785614-0.5343933-2.3664246-1.5610657-2.3664246-1.5610657    c-12.7354431,17.6821289-33.4986572,29.2144165-56.9055786,29.2144165c-23.410141,0-44.1743622-11.5344238-56.9098663-29.2192078    c0,0-1.3280029,0.8682556-1.9888,1.3135986C154.5130157,269.2629395,136,301.4261475,136,337.9130554v11.067749h144.5807495    C269.434082,327.8528137,272.7332764,301.0405273,290.4890137,283.2842712z" fill="#FFFFFF"/></g></g></svg>