<?xml version="1.0" ?><svg enable-background="new 0 0 512 512" id="Layer_1" version="1.1" viewBox="0 0 512 512" xml:space="preserve" xmlns="http://www.w3.org/2000/svg" xmlns:xlink="http://www.w3.org/1999/xlink"><g><g><linearGradient gradientUnits="userSpaceOnUse" id="SVGID_1_" x1="-0.0000027" x2="512" y1="256" y2="256"><stop offset="0" style="stop-color:#B49A85"/><stop offset="0.0650802" style="stop-color:#B0957F"/><stop offset="0.2856463" style="stop-color:#A88A71"/><stop offset="0.5538635" style="stop-color:#A38369"/><stop offset="1" style="stop-color:#A18166"/></linearGradient><circle cx="256" cy="256" fill="url(#SVGID_1_)" r="256"/><linearGradient gradientUnits="userSpaceOnUse" id="SVGID_2_" x1="42.6666641" x2="469.3333435" y1="256.0005188" y2="256.0005188"><stop offset="0" style="stop-color:#A18166"/><stop offset="0.4461364" style="stop-color:#A38369"/><stop offset="0.7143537" style="stop-color:#A88A71"/><stop offset="0.9349198" style="stop-color:#B0957F"/><stop offset="1" style="stop-color:#B49A85"/></linearGradient><path d="M256,469.3338623c-117.631012,0-213.3333435-95.7018738-213.3333435-213.3333435    S138.368988,42.6671982,256,42.6671982c117.6362,0,213.3333435,95.7018661,213.3333435,213.333313    S373.6362,469.3338623,256,469.3338623z" fill="url(#SVGID_2_)"/></g><g><g><g><polygon opacity="0.3" points="174.0793915,218.883728 144,188.8037262 150.967392,181.8357391 174.0793915,204.9477386       223.7892609,155.2405396 230.7567291,162.2085266     "/></g><g><rect height="9.8543997" opacity="0.3" width="143.4293365" x="240.5706635" y="190.8394623"/></g></g><g><g><polygon opacity="0.3" points="174.0793915,295.8213196 144,265.7418518 150.967392,258.7738647 174.0793915,281.8858643       223.7892609,232.1786652 230.7567291,239.1466675     "/></g><g><rect height="9.8543997" opacity="0.3" width="143.4293365" x="240.5706635" y="267.7775879"/></g></g><g><g><polygon opacity="0.3" points="174.0793915,372.7594604 144,342.6799927 150.967392,335.7120056 174.0793915,358.8240051       223.7892609,309.116272 230.7567291,316.084259     "/></g><g><rect height="9.8543997" opacity="0.3" width="143.4293365" x="240.5706635" y="344.7157288"/></g></g></g><g><g><g><polygon fill="#FFFFFF" points="166.0793915,210.883728 136,180.8037262 142.967392,173.8357391 166.0793915,196.9477386       215.7892609,147.2405396 222.7567291,154.2085266     "/></g><g><rect fill="#FFFFFF" height="9.8543997" width="143.4293365" x="232.5706635" y="182.8394623"/></g></g><g><g><polygon fill="#FFFFFF" points="166.0793915,287.8213196 136,257.7418518 142.967392,250.7738647 166.0793915,273.8858643       215.7892609,224.1786652 222.7567291,231.1466675     "/></g><g><rect fill="#FFFFFF" height="9.8543997" width="143.4293365" x="232.5706635" y="259.7775879"/></g></g><g><g><polygon fill="#FFFFFF" points="166.0793915,364.7594604 136,334.6799927 142.967392,327.7120056 166.0793915,350.8240051       215.7892609,301.116272 222.7567291,308.084259     "/></g><g><rect fill="#FFFFFF" height="9.8543997" width="143.4293365" x="232.5706635" y="336.7157288"/></g></g></g></g></svg>