<?xml version="1.0" ?><svg enable-background="new 0 0 512 512" id="Layer_1" version="1.1" viewBox="0 0 512 512" xml:space="preserve" xmlns="http://www.w3.org/2000/svg" xmlns:xlink="http://www.w3.org/1999/xlink"><g><g><linearGradient gradientUnits="userSpaceOnUse" id="SVGID_1_" x1="-0.0000027" x2="512" y1="256" y2="256"><stop offset="0" style="stop-color:#95A5A6"/><stop offset="1" style="stop-color:#7F8C8D"/></linearGradient><circle cx="256" cy="256" fill="url(#SVGID_1_)" r="256"/><linearGradient gradientUnits="userSpaceOnUse" id="SVGID_2_" x1="42.6666641" x2="469.3333435" y1="256.0005188" y2="256.0005188"><stop offset="0" style="stop-color:#7F8C8D"/><stop offset="1" style="stop-color:#95A5A6"/></linearGradient><path d="M256,469.3338623c-117.631012,0-213.3333435-95.7023926-213.3333435-213.3333435    c0-117.6314545,95.7023239-213.333313,213.3333435-213.333313c117.6362,0,213.3333435,95.7018661,213.3333435,213.333313    C469.3333435,373.6314697,373.6362,469.3338623,256,469.3338623z" fill="url(#SVGID_2_)"/></g><g><path d="M144.0004578,144v107.4997406h239.9989319V144H144.0004578z M180.7663269,212.4832001h-10v-10h10    V212.4832001z M180.7663269,173.5498657h-10v-10h10V173.5498657z M194.0041962,231.9503937h-10v-10h10V231.9503937z     M194.0041962,193.0149384h-10v-10h10V193.0149384z M207.2457886,212.4832001h-10v-10h10V212.4832001z M207.2457886,173.5498657    h-10v-10h10V173.5498657z M220.4879303,231.9503937h-10v-10h10V231.9503937z M220.4879303,193.0149384h-10v-10h10V193.0149384z     M233.7300568,212.4832001h-10v-10h10V212.4832001z M233.7300568,173.5498657h-10v-10h10V173.5498657z M246.9721832,231.9503937    h-9.9999847v-10h9.9999847V231.9503937z M246.9721832,193.0149384h-9.9999847v-10h9.9999847V193.0149384z     M260.2095337,212.4832001h-10.0000153v-10h10.0000153V212.4832001z M260.2095337,173.5498657h-10.0000153v-10h10.0000153    V173.5498657z M348.8271179,228.8965302h-9.9994507v-62.2922668h9.9994507V228.8965302z" opacity="0.3"/><path d="M144.0004578,383.9994812h239.9989319V276.4997253H144.0004578V383.9994812z M338.8276672,299.1034546    h9.9994507v62.2922668h-9.9994507V299.1034546z M250.2095184,296.0490723h10.0000153v10h-10.0000153V296.0490723z     M250.2095184,334.9823914h10.0000153v10h-10.0000153V334.9823914z M236.9721985,315.514679h9.9999847v10h-9.9999847V315.514679z     M236.9721985,354.4496155h9.9999847v10h-9.9999847V354.4496155z M223.7300568,296.0490723h10v10h-10V296.0490723z     M223.7300568,334.9823914h10v10h-10V334.9823914z M210.4879303,315.514679h10v10h-10V315.514679z M210.4879303,354.4496155h10v10    h-10V354.4496155z M197.2457886,296.0490723h10v10h-10V296.0490723z M197.2457886,334.9823914h10v10h-10V334.9823914z     M184.0041962,315.514679h10v10h-10V315.514679z M184.0041962,354.4496155h10v10h-10V354.4496155z M170.7663269,296.0490723h10v10    h-10V296.0490723z M170.7663269,334.9823914h10v10h-10V334.9823914z" opacity="0.3"/></g><g><path d="M136.0004578,136v107.4997406h239.9989319V136H136.0004578z M172.7663269,204.4832001h-10v-10h10    V204.4832001z M172.7663269,165.5498657h-10v-10h10V165.5498657z M186.0041962,223.9503937h-10v-10h10V223.9503937z     M186.0041962,185.0149384h-10v-10h10V185.0149384z M199.2457886,204.4832001h-10v-10h10V204.4832001z M199.2457886,165.5498657    h-10v-10h10V165.5498657z M212.4879303,223.9503937h-10v-10h10V223.9503937z M212.4879303,185.0149384h-10v-10h10V185.0149384z     M225.7300568,204.4832001h-10v-10h10V204.4832001z M225.7300568,165.5498657h-10v-10h10V165.5498657z M238.9721985,223.9503937    h-10v-10h10V223.9503937z M238.9721985,185.0149384h-10v-10h10V185.0149384z M252.2095184,204.4832001h-10v-10h10V204.4832001z     M252.2095184,165.5498657h-10v-10h10V165.5498657z M340.8271179,220.8965302h-9.9994507v-62.2922668h9.9994507V220.8965302z" fill="#FFFFFF"/><path d="M136.0004578,375.9994812h239.9989319V268.4997253H136.0004578V375.9994812z M330.8276672,291.1034546    h9.9994507v62.2922668h-9.9994507V291.1034546z M242.2095184,288.0490723h10v10h-10V288.0490723z M242.2095184,326.9823914h10v10    h-10V326.9823914z M228.9721985,307.514679h10v10h-10V307.514679z M228.9721985,346.4496155h10v10h-10V346.4496155z     M215.7300568,288.0490723h10v10h-10V288.0490723z M215.7300568,326.9823914h10v10h-10V326.9823914z M202.4879303,307.514679h10    v10h-10V307.514679z M202.4879303,346.4496155h10v10h-10V346.4496155z M189.2457886,288.0490723h10v10h-10V288.0490723z     M189.2457886,326.9823914h10v10h-10V326.9823914z M176.0041962,307.514679h10v10h-10V307.514679z M176.0041962,346.4496155h10v10    h-10V346.4496155z M162.7663269,288.0490723h10v10h-10V288.0490723z M162.7663269,326.9823914h10v10h-10V326.9823914z" fill="#FFFFFF"/></g></g></svg>