<?xml version="1.0" encoding="iso-8859-1"?>
<!-- Generator: Adobe Illustrator 18.1.1, SVG Export Plug-In . SVG Version: 6.00 Build 0)  -->
<svg version="1.1" id="Capa_1" xmlns="http://www.w3.org/2000/svg" xmlns:xlink="http://www.w3.org/1999/xlink" x="0px" y="0px"
	 viewBox="0 0 32.27 32.27" style="enable-background:new 0 0 32.27 32.27;" xml:space="preserve">
<g>
	<g>
		<path style="fill:#010002;" d="M31.686,13.895c-0.202,0.419-0.538,0.748-0.671,1.143c-0.152,0.448-0.18,0.992-0.269,1.477
			c-0.254,1.369-0.517,2.865-1.409,3.689c-0.743,0.683-2.583,1.231-3.896,1.342c-4.698,0.38-6.646-1.959-7.779-5.166
			c-0.344-0.967-0.47-1.982-1.744-1.879c-1.022,0.083-1.068,0.916-1.479,2.146c-0.88,2.657-2.521,4.702-5.901,4.963
			c-1.987,0.151-4.418-0.252-5.436-1.207c-0.942-0.89-1.281-2.683-1.608-4.294c-0.12-0.588-0.259-0.84-0.537-1.272
			c-0.131-0.206-0.231-0.378-0.335-0.605c-0.371-0.818-0.877-1.665-0.472-2.818c4.346-0.698,8.224-0.688,12.145,0.066
			c1.251,0.24,2.521,0.642,3.758,0.671c1.443,0.035,3.189-0.521,4.562-0.805c3.597-0.74,7.531-1.062,11.475-0.201
			C32.507,12.19,32.128,12.973,31.686,13.895z"/>
	</g>
</g>
<g>
</g>
<g>
</g>
<g>
</g>
<g>
</g>
<g>
</g>
<g>
</g>
<g>
</g>
<g>
</g>
<g>
</g>
<g>
</g>
<g>
</g>
<g>
</g>
<g>
</g>
<g>
</g>
<g>
</g>
</svg>
