<svg xmlns="http://www.w3.org/2000/svg" xmlns:xlink="http://www.w3.org/1999/xlink" version="1.1" width="256" height="256" viewBox="0 0 256 256" xml:space="preserve">
<desc>Created with Fabric.js 1.7.22</desc>
<defs>
</defs>
<g transform="translate(128 128) scale(0.72 0.72)" style="">
	<g style="stroke: none; stroke-width: 0; stroke-dasharray: none; stroke-linecap: butt; stroke-linejoin: miter; stroke-miterlimit: 10; fill: none; fill-rule: nonzero; opacity: 1;" transform="translate(-175.05 -175.05000000000004) scale(3.89 3.89)" >
	<path d="M 63.055 13.627 h 10.973 c 2.068 0 3.744 1.676 3.744 3.744 v 68.885 c 0 2.068 -1.676 3.744 -3.744 3.744 H 15.972 c -2.068 0 -3.744 -1.676 -3.744 -3.744 V 17.371 c 0 -2.068 1.676 -3.744 3.744 -3.744 h 10.973" style="stroke: none; stroke-width: 1; stroke-dasharray: none; stroke-linecap: butt; stroke-linejoin: miter; stroke-miterlimit: 10; fill: rgb(202,243,244); fill-rule: nonzero; opacity: 1;" transform=" matrix(1 0 0 1 0 0) " stroke-linecap="round" />
	<path d="M 52.882 7.085 C 52.461 3.103 49.094 0 45 0 s -7.461 3.103 -7.882 7.085 h -4.62 c -3.066 0 -5.552 2.486 -5.552 5.552 v 5.75 h 36.109 v -5.75 c 0 -3.066 -2.486 -5.552 -5.552 -5.552 H 52.882 z" style="stroke: none; stroke-width: 1; stroke-dasharray: none; stroke-linecap: butt; stroke-linejoin: miter; stroke-miterlimit: 10; fill: rgb(147,179,186); fill-rule: nonzero; opacity: 1;" transform=" matrix(1 0 0 1 0 0) " stroke-linecap="round" />
	<polygon points="30.72,26.41 20.15,26.41 20.15,40.3 34.98,40.3 34.98,34.82 34.98,26.41 " style="stroke: none; stroke-width: 1; stroke-dasharray: none; stroke-linecap: butt; stroke-linejoin: miter; stroke-miterlimit: 10; fill: rgb(144,219,71); fill-rule: nonzero; opacity: 1;" transform="  matrix(1 0 0 1 0 0) "/>
	<polygon points="30.72,47.43 20.15,47.43 20.15,61.31 34.98,61.31 34.98,55.84 34.98,47.43 " style="stroke: none; stroke-width: 1; stroke-dasharray: none; stroke-linecap: butt; stroke-linejoin: miter; stroke-miterlimit: 10; fill: rgb(144,219,71); fill-rule: nonzero; opacity: 1;" transform="  matrix(1 0 0 1 0 0) "/>
	<polygon points="30.72,68.45 20.15,68.45 20.15,82.33 34.98,82.33 34.98,76.86 34.98,68.45 " style="stroke: none; stroke-width: 1; stroke-dasharray: none; stroke-linecap: butt; stroke-linejoin: miter; stroke-miterlimit: 10; fill: rgb(144,219,71); fill-rule: nonzero; opacity: 1;" transform="  matrix(1 0 0 1 0 0) "/>
	<path d="M 27.692 37.099 c -0.028 0 -0.057 -0.001 -0.085 -0.004 c -0.311 -0.026 -0.591 -0.196 -0.758 -0.459 l -3.027 -4.757 c -0.296 -0.466 -0.159 -1.084 0.307 -1.38 c 0.465 -0.297 1.083 -0.16 1.38 0.307 l 2.324 3.652 l 8.116 -8.922 c 0.372 -0.407 1.004 -0.438 1.413 -0.067 c 0.409 0.372 0.438 1.004 0.067 1.413 l -8.997 9.891 C 28.242 36.981 27.973 37.099 27.692 37.099 z" style="stroke: none; stroke-width: 1; stroke-dasharray: none; stroke-linecap: butt; stroke-linejoin: miter; stroke-miterlimit: 10; fill: rgb(199,255,208); fill-rule: nonzero; opacity: 1;" transform=" matrix(1 0 0 1 0 0) " stroke-linecap="round" />
	<path d="M 66.785 30.909 H 41.927 c -0.552 0 -1 -0.448 -1 -1 s 0.448 -1 1 -1 h 24.858 c 0.553 0 1 0.448 1 1 S 67.338 30.909 66.785 30.909 z" style="stroke: none; stroke-width: 1; stroke-dasharray: none; stroke-linecap: butt; stroke-linejoin: miter; stroke-miterlimit: 10; fill: rgb(117,145,151); fill-rule: nonzero; opacity: 1;" transform=" matrix(1 0 0 1 0 0) " stroke-linecap="round" />
	<path d="M 60.301 37.596 H 41.927 c -0.552 0 -1 -0.448 -1 -1 s 0.448 -1 1 -1 h 18.374 c 0.553 0 1 0.448 1 1 S 60.854 37.596 60.301 37.596 z" style="stroke: none; stroke-width: 1; stroke-dasharray: none; stroke-linecap: butt; stroke-linejoin: miter; stroke-miterlimit: 10; fill: rgb(117,145,151); fill-rule: nonzero; opacity: 1;" transform=" matrix(1 0 0 1 0 0) " stroke-linecap="round" />
	<path d="M 27.692 58.115 c -0.028 0 -0.057 -0.001 -0.085 -0.004 c -0.311 -0.026 -0.591 -0.196 -0.758 -0.459 l -3.027 -4.757 c -0.296 -0.466 -0.159 -1.084 0.307 -1.381 c 0.465 -0.295 1.083 -0.158 1.38 0.307 l 2.324 3.652 l 8.116 -8.922 c 0.372 -0.407 1.004 -0.438 1.413 -0.066 c 0.409 0.371 0.438 1.004 0.067 1.412 l -8.997 9.891 C 28.242 57.997 27.973 58.115 27.692 58.115 z" style="stroke: none; stroke-width: 1; stroke-dasharray: none; stroke-linecap: butt; stroke-linejoin: miter; stroke-miterlimit: 10; fill: rgb(199,255,208); fill-rule: nonzero; opacity: 1;" transform=" matrix(1 0 0 1 0 0) " stroke-linecap="round" />
	<path d="M 66.785 51.926 H 41.927 c -0.552 0 -1 -0.447 -1 -1 s 0.448 -1 1 -1 h 24.858 c 0.553 0 1 0.447 1 1 S 67.338 51.926 66.785 51.926 z" style="stroke: none; stroke-width: 1; stroke-dasharray: none; stroke-linecap: butt; stroke-linejoin: miter; stroke-miterlimit: 10; fill: rgb(117,145,151); fill-rule: nonzero; opacity: 1;" transform=" matrix(1 0 0 1 0 0) " stroke-linecap="round" />
	<path d="M 60.301 58.612 H 41.927 c -0.552 0 -1 -0.447 -1 -1 s 0.448 -1 1 -1 h 18.374 c 0.553 0 1 0.447 1 1 S 60.854 58.612 60.301 58.612 z" style="stroke: none; stroke-width: 1; stroke-dasharray: none; stroke-linecap: butt; stroke-linejoin: miter; stroke-miterlimit: 10; fill: rgb(117,145,151); fill-rule: nonzero; opacity: 1;" transform=" matrix(1 0 0 1 0 0) " stroke-linecap="round" />
	<path d="M 27.692 79.132 c -0.028 0 -0.057 -0.001 -0.085 -0.004 c -0.311 -0.026 -0.591 -0.196 -0.758 -0.459 l -3.027 -4.757 c -0.296 -0.466 -0.159 -1.084 0.307 -1.381 c 0.465 -0.295 1.083 -0.159 1.38 0.307 l 2.324 3.652 l 8.116 -8.922 c 0.372 -0.407 1.004 -0.439 1.413 -0.066 c 0.409 0.371 0.438 1.004 0.067 1.412 l -8.997 9.891 C 28.242 79.014 27.973 79.132 27.692 79.132 z" style="stroke: none; stroke-width: 1; stroke-dasharray: none; stroke-linecap: butt; stroke-linejoin: miter; stroke-miterlimit: 10; fill: rgb(199,255,208); fill-rule: nonzero; opacity: 1;" transform=" matrix(1 0 0 1 0 0) " stroke-linecap="round" />
	<path d="M 66.785 72.941 H 41.927 c -0.552 0 -1 -0.447 -1 -1 s 0.448 -1 1 -1 h 24.858 c 0.553 0 1 0.447 1 1 S 67.338 72.941 66.785 72.941 z" style="stroke: none; stroke-width: 1; stroke-dasharray: none; stroke-linecap: butt; stroke-linejoin: miter; stroke-miterlimit: 10; fill: rgb(117,145,151); fill-rule: nonzero; opacity: 1;" transform=" matrix(1 0 0 1 0 0) " stroke-linecap="round" />
	<path d="M 60.301 79.629 H 41.927 c -0.552 0 -1 -0.447 -1 -1 s 0.448 -1 1 -1 h 18.374 c 0.553 0 1 0.447 1 1 S 60.854 79.629 60.301 79.629 z" style="stroke: none; stroke-width: 1; stroke-dasharray: none; stroke-linecap: butt; stroke-linejoin: miter; stroke-miterlimit: 10; fill: rgb(117,145,151); fill-rule: nonzero; opacity: 1;" transform=" matrix(1 0 0 1 0 0) " stroke-linecap="round" />
	<path d="M 45 9.171 c -0.552 0 -1 -0.448 -1 -1 v -2.54 c 0 -0.552 0.448 -1 1 -1 s 1 0.448 1 1 v 2.54 C 46 8.723 45.552 9.171 45 9.171 z" style="stroke: none; stroke-width: 1; stroke-dasharray: none; stroke-linecap: butt; stroke-linejoin: miter; stroke-miterlimit: 10; fill: rgb(202,243,244); fill-rule: nonzero; opacity: 1;" transform=" matrix(1 0 0 1 0 0) " stroke-linecap="round" />
</g>
</g>
</svg>