<svg xmlns="http://www.w3.org/2000/svg" xmlns:xlink="http://www.w3.org/1999/xlink" version="1.1" width="256" height="256" viewBox="0 0 256 256" xml:space="preserve">
<desc>Created with Fabric.js 1.7.22</desc>
<defs>
</defs>
<g transform="translate(128 128) scale(0.72 0.72)" style="">
	<g style="stroke: none; stroke-width: 0; stroke-dasharray: none; stroke-linecap: butt; stroke-linejoin: miter; stroke-miterlimit: 10; fill: none; fill-rule: nonzero; opacity: 1;" transform="translate(-175.05 -175.05000000000004) scale(3.89 3.89)" >
	<path d="M 45 90 c -15.687 0 -29.998 -8.623 -37.349 -22.505 l -0.743 -1.404 l 0.743 -1.403 c 4.182 -7.899 10.911 -14.396 18.945 -18.294 c 2.883 -1.397 6.24 -1.377 9.215 0.052 c 2.879 1.384 5.971 2.086 9.188 2.086 c 3.218 0 6.31 -0.702 9.188 -2.086 c 2.975 -1.43 6.333 -1.449 9.215 -0.052 c 8.035 3.898 14.764 10.396 18.945 18.294 c 0.775 1.464 0.217 3.279 -1.248 4.055 c -1.467 0.778 -3.28 0.217 -4.055 -1.248 c -3.59 -6.779 -9.364 -12.356 -16.262 -15.702 c -1.224 -0.595 -2.681 -0.57 -3.996 0.062 C 53.091 53.63 49.125 54.531 45 54.531 c -4.125 0 -8.09 -0.901 -11.788 -2.678 c -1.315 -0.633 -2.773 -0.656 -3.997 -0.062 c -6.415 3.112 -11.859 8.154 -15.478 14.3 C 20.244 77.179 32.079 84 45 84 c 2.58 0 5.157 -0.272 7.658 -0.81 c 1.612 -0.351 3.215 0.682 3.563 2.303 c 0.349 1.619 -0.683 3.215 -2.303 3.563 C 51.004 89.683 48.004 90 45 90 z" style="stroke: none; stroke-width: 1; stroke-dasharray: none; stroke-linecap: butt; stroke-linejoin: miter; stroke-miterlimit: 10; fill: rgb(0,0,0); fill-rule: nonzero; opacity: 1;" transform=" matrix(1 0 0 1 0 0) " stroke-linecap="round" />
	<path d="M 45 43.747 c -12.061 0 -21.873 -9.813 -21.873 -21.874 S 32.939 0 45 0 c 12.061 0 21.873 9.812 21.873 21.873 S 57.061 43.747 45 43.747 z M 45 6 c -8.752 0 -15.873 7.121 -15.873 15.873 c 0 8.753 7.121 15.874 15.873 15.874 c 8.752 0 15.873 -7.121 15.873 -15.874 C 60.873 13.121 53.752 6 45 6 z" style="stroke: none; stroke-width: 1; stroke-dasharray: none; stroke-linecap: butt; stroke-linejoin: miter; stroke-miterlimit: 10; fill: rgb(0,0,0); fill-rule: nonzero; opacity: 1;" transform=" matrix(1 0 0 1 0 0) " stroke-linecap="round" />
	<path d="M 82.468 80.5 c 0.039 -0.093 0.06 -0.191 0.089 -0.287 c 0.027 -0.091 0.062 -0.178 0.081 -0.272 c 0.038 -0.191 0.058 -0.385 0.058 -0.579 c 0 -0.003 0.001 -0.005 0.001 -0.007 c 0 0 0 0 0 0 c 0 -0.197 -0.021 -0.394 -0.059 -0.588 c -0.018 -0.089 -0.051 -0.171 -0.076 -0.257 c -0.03 -0.101 -0.053 -0.204 -0.094 -0.302 c -0.043 -0.104 -0.102 -0.198 -0.156 -0.296 c -0.04 -0.073 -0.072 -0.149 -0.119 -0.219 c -0.111 -0.166 -0.237 -0.321 -0.378 -0.462 l -7.642 -7.642 c -1.172 -1.172 -3.07 -1.172 -4.242 0 c -1.172 1.171 -1.172 3.071 0 4.242 l 2.524 2.524 H 64.85 c -3.421 0 -6.203 -2.782 -6.203 -6.203 v -4.211 c 0 -1.657 -1.343 -3 -3 -3 s -3 1.343 -3 3 v 4.211 c 0 6.729 5.475 12.203 12.203 12.203 h 7.606 l -2.525 2.525 c -1.172 1.172 -1.172 3.071 0 4.242 C 70.517 89.707 71.284 90 72.052 90 s 1.536 -0.293 2.121 -0.879 l 7.642 -7.643 c 0.141 -0.141 0.268 -0.296 0.379 -0.463 c 0.044 -0.066 0.073 -0.137 0.112 -0.205 C 82.362 80.708 82.423 80.609 82.468 80.5 z" style="stroke: none; stroke-width: 1; stroke-dasharray: none; stroke-linecap: butt; stroke-linejoin: miter; stroke-miterlimit: 10; fill: rgb(0,0,0); fill-rule: nonzero; opacity: 1;" transform=" matrix(1 0 0 1 0 0) " stroke-linecap="round" />
</g>
</g>
</svg>