<?xml version="1.0" ?><svg data-name="Layer 1" id="Layer_1" viewBox="0 0 100 100" xmlns="http://www.w3.org/2000/svg"><title/><path d="M50,5A45,45,0,1,0,94.99988,50,45.00023,45.00023,0,0,0,50,5Zm0,88A43,43,0,1,1,80.40564,80.40552,42.86126,42.86126,0,0,1,50,93Z"/><path d="M72,29H42a3.00034,3.00034,0,0,0-3,3v4a3.00038,3.00038,0,0,0,3,3H72a3.00027,3.00027,0,0,0,2.99988-3L75,32A3.00042,3.00042,0,0,0,72,29Zm1,7a1.00213,1.00213,0,0,1-1,1H42a1.00206,1.00206,0,0,1-1.00006-1L41,32a1.00193,1.00193,0,0,1,1-1H72a1.00209,1.00209,0,0,1,1,1Z"/><path d="M32,29H28a3.00034,3.00034,0,0,0-3,3v4a3.00038,3.00038,0,0,0,3,3h4a3.00036,3.00036,0,0,0,2.99994-3L35,32A3.00042,3.00042,0,0,0,32,29Zm1,7a1.002,1.002,0,0,1-1,1H28a1.00206,1.00206,0,0,1-1.00006-1L27,32a1.00193,1.00193,0,0,1,1-1h4a1.002,1.002,0,0,1,1,1Z"/><path d="M72,45H42a3.00034,3.00034,0,0,0-3,3v4a3.00038,3.00038,0,0,0,3,3H72a3.00027,3.00027,0,0,0,2.99988-3L75,48A3.00042,3.00042,0,0,0,72,45Zm1,7a1.00213,1.00213,0,0,1-1,1H42a1.00206,1.00206,0,0,1-1.00006-1L41,48a1.00193,1.00193,0,0,1,1-1H72a1.00209,1.00209,0,0,1,1,1Z"/><path d="M32,45H28a3.00034,3.00034,0,0,0-3,3v4a3.00038,3.00038,0,0,0,3,3h4a3.00036,3.00036,0,0,0,2.99994-3L35,48A3.00042,3.00042,0,0,0,32,45Zm1,7a1.002,1.002,0,0,1-1,1H28a1.00206,1.00206,0,0,1-1.00006-1L27,48a1.00193,1.00193,0,0,1,1-1h4a1.002,1.002,0,0,1,1,1Z"/><path d="M72,61H42a3.00034,3.00034,0,0,0-3,3v4a3.00038,3.00038,0,0,0,3,3H72a3.00027,3.00027,0,0,0,2.99988-3L75,64A3.00042,3.00042,0,0,0,72,61Zm1,7a1.00213,1.00213,0,0,1-1,1H42a1.00206,1.00206,0,0,1-1.00006-1L41,64a1.00193,1.00193,0,0,1,1-1H72a1.00209,1.00209,0,0,1,1,1Z"/><path d="M32,61H28a3.00034,3.00034,0,0,0-3,3v4a3.00038,3.00038,0,0,0,3,3h4a3.00036,3.00036,0,0,0,2.99994-3L35,64A3.00042,3.00042,0,0,0,32,61Zm1,7a1.002,1.002,0,0,1-1,1H28a1.00206,1.00206,0,0,1-1.00006-1L27,64a1.00193,1.00193,0,0,1,1-1h4a1.002,1.002,0,0,1,1,1Z"/></svg>