<?xml version="1.0" encoding="UTF-8" standalone="no"?>
<svg
   inkscape:export-ydpi="576"
   inkscape:export-xdpi="576"
   inkscape:export-filename="/media/taufikramadhan/Data/Tr Design Studio/Project Design/TR Creative Design/Icon Design/Project Hiring/Icon Icons/007 - Design And Development/Send/1 - Line/SVG/25 - Setting.png"
   width="64pt"
   height="64pt"
   viewBox="0 0 22.577778 22.577778"
   version="1.1"
   id="svg831"
   inkscape:version="1.1 (1:1.1+202106031931+af4d65493e)"
   sodipodi:docname="25 - Setting.svg"
   xmlns:inkscape="http://www.inkscape.org/namespaces/inkscape"
   xmlns:sodipodi="http://sodipodi.sourceforge.net/DTD/sodipodi-0.dtd"
   xmlns="http://www.w3.org/2000/svg"
   xmlns:svg="http://www.w3.org/2000/svg"
   xmlns:rdf="http://www.w3.org/1999/02/22-rdf-syntax-ns#"
   xmlns:cc="http://creativecommons.org/ns#"
   xmlns:dc="http://purl.org/dc/elements/1.1/">
  <defs
     id="defs825">
    <pattern
       id="EMFhbasepattern"
       patternUnits="userSpaceOnUse"
       width="6"
       height="6"
       x="0"
       y="0" />
    <pattern
       id="EMFhbasepattern-9"
       patternUnits="userSpaceOnUse"
       width="6"
       height="6"
       x="0"
       y="0" />
    <pattern
       id="EMFhbasepattern-0"
       patternUnits="userSpaceOnUse"
       width="6"
       height="6"
       x="0"
       y="0" />
    <pattern
       id="EMFhbasepattern-7"
       patternUnits="userSpaceOnUse"
       width="6"
       height="6"
       x="0"
       y="0" />
    <pattern
       id="EMFhbasepattern-2"
       patternUnits="userSpaceOnUse"
       width="6"
       height="6"
       x="0"
       y="0" />
    <pattern
       id="EMFhbasepattern-98"
       patternUnits="userSpaceOnUse"
       width="6"
       height="6"
       x="0"
       y="0" />
    <pattern
       id="EMFhbasepattern-6"
       patternUnits="userSpaceOnUse"
       width="6"
       height="6"
       x="0"
       y="0" />
    <pattern
       id="EMFhbasepattern-01"
       patternUnits="userSpaceOnUse"
       width="6"
       height="6"
       x="0"
       y="0" />
    <pattern
       id="EMFhbasepattern-07"
       patternUnits="userSpaceOnUse"
       width="6"
       height="6"
       x="0"
       y="0" />
    <pattern
       id="EMFhbasepattern-8"
       patternUnits="userSpaceOnUse"
       width="6"
       height="6"
       x="0"
       y="0" />
    <pattern
       id="EMFhbasepattern-4"
       patternUnits="userSpaceOnUse"
       width="6"
       height="6"
       x="0"
       y="0" />
    <pattern
       id="EMFhbasepattern-40"
       patternUnits="userSpaceOnUse"
       width="6"
       height="6"
       x="0"
       y="0" />
    <pattern
       id="EMFhbasepattern-08"
       patternUnits="userSpaceOnUse"
       width="6"
       height="6"
       x="0"
       y="0" />
    <pattern
       id="EMFhbasepattern-04"
       patternUnits="userSpaceOnUse"
       width="6"
       height="6"
       x="0"
       y="0" />
    <pattern
       id="EMFhbasepattern-014"
       patternUnits="userSpaceOnUse"
       width="6"
       height="6"
       x="0"
       y="0" />
    <pattern
       id="EMFhbasepattern-27"
       patternUnits="userSpaceOnUse"
       width="6"
       height="6"
       x="0"
       y="0" />
    <pattern
       id="EMFhbasepattern-09"
       patternUnits="userSpaceOnUse"
       width="6"
       height="6"
       x="0"
       y="0" />
    <pattern
       id="EMFhbasepattern-5"
       patternUnits="userSpaceOnUse"
       width="6"
       height="6"
       x="0"
       y="0" />
    <pattern
       id="EMFhbasepattern-018"
       patternUnits="userSpaceOnUse"
       width="6"
       height="6"
       x="0"
       y="0" />
  </defs>
  <sodipodi:namedview
     id="base"
     pagecolor="#ffffff"
     bordercolor="#666666"
     borderopacity="1.0"
     inkscape:pageopacity="0.0"
     inkscape:pageshadow="2"
     inkscape:zoom="4.2757863"
     inkscape:cx="42.682208"
     inkscape:cy="42.56527"
     inkscape:document-units="pt"
     inkscape:current-layer="layer1"
     showgrid="false"
     units="pt"
     inkscape:window-width="1366"
     inkscape:window-height="705"
     inkscape:window-x="0"
     inkscape:window-y="31"
     inkscape:window-maximized="1"
     inkscape:pagecheckerboard="true"
     inkscape:showpageshadow="false"
     inkscape:object-paths="true"
     inkscape:snap-intersection-paths="true"
     inkscape:snap-smooth-nodes="true"
     inkscape:snap-midpoints="true"
     showguides="false"
     inkscape:snap-bbox="true"
     inkscape:bbox-nodes="true"
     inkscape:snap-nodes="false"
     inkscape:snap-global="true"
     inkscape:document-rotation="0">
    <inkscape:grid
       type="xygrid"
       id="grid1378" />
    <sodipodi:guide
       position="0.97013831,21.607643"
       orientation="78.000048,0"
       id="guide1380"
       inkscape:locked="false" />
    <sodipodi:guide
       position="0.97013831,0.97013129"
       orientation="0,78.000005"
       id="guide1382"
       inkscape:locked="false" />
    <sodipodi:guide
       position="21.607639,0.97013129"
       orientation="-78.000048,0"
       id="guide1384"
       inkscape:locked="false" />
    <sodipodi:guide
       position="21.607639,21.607643"
       orientation="0,-78.000005"
       id="guide1386"
       inkscape:locked="false" />
  </sodipodi:namedview>
  <metadata
     id="metadata828">
    <rdf:RDF>
      <cc:Work
         rdf:about="">
        <dc:format>image/svg+xml</dc:format>
        <dc:type
           rdf:resource="http://purl.org/dc/dcmitype/StillImage" />
      </cc:Work>
    </rdf:RDF>
  </metadata>
  <g
     inkscape:label="Icon"
     inkscape:groupmode="layer"
     id="layer1"
     transform="translate(0,-274.42223)">
    <path
       id="path78369"
       style="color:#000000;clip-rule:evenodd;display:inline;fill:#000000;fill-rule:evenodd;stroke-width:1;stroke-linecap:round;stroke-linejoin:round;stroke-miterlimit:1.5;-inkscape-stroke:none"
       d="m 10.561748,275.39213 c -0.924522,0 -1.6754099,0.75514 -1.6831355,1.67794 -0.630457,0.17288 -1.2321287,0.4129 -1.7988569,0.71253 -0.08873,-0.0887 -0.1786375,-0.17863 -0.3907171,-0.39073 -0.6569991,-0.65698 -1.7331677,-0.65687 -2.3904564,0 -0.3028562,0.30319 -0.6381826,0.63852 -0.9413584,0.94136 -0.6568825,0.65729 -0.656999,1.73152 0,2.3885 0.1635058,0.16352 0.2166564,0.21601 0.2951506,0.29451 -0.4301806,0.70216 -0.7660595,1.46553 -0.9901187,2.27798 h -0.00267 c -0.9292791,0 -1.68833528,0.76103 -1.68833528,1.69029 v 1.32948 c 0,0.92927 0.75905618,1.69029 1.68833528,1.69029 h 0.00267 c 0.2240392,0.81314 0.5596353,1.57529 0.9901187,2.27798 -0.07849,0.0785 -0.1316415,0.131 -0.2951506,0.29451 -0.656999,0.657 -0.6568793,1.73382 0,2.39111 0.3031758,0.30283 0.6385022,0.63752 0.9413584,0.9407 0.6572887,0.65687 1.7334573,0.657 2.3904564,0 0.2040777,-0.20408 0.2839333,-0.28329 0.3764142,-0.37575 0.285115,0.15097 0.5720574,0.29805 0.8743976,0.418 0.1710884,0.0678 0.3647643,-0.016 0.4323242,-0.18723 0.067917,-0.1709 -0.015644,-0.36449 -0.1865795,-0.43231 -0.354459,-0.14063 -0.6959898,-0.30505 -1.0245759,-0.49149 -0.1305296,-0.0742 -0.2945681,-0.0518 -0.4004664,0.0546 0,0 -0.2480581,0.24804 -0.5428426,0.54284 -0.4025168,0.40251 -1.0442676,0.40264 -1.4471473,0 -0.3030459,-0.30338 -0.6379797,-0.63833 -0.9413617,-0.94137 -0.4026334,-0.40287 -0.4025135,-1.04462 0,-1.44713 0.2493628,-0.24936 0.449879,-0.44988 0.449879,-0.44988 0.1107919,-0.11184 0.1281497,-0.28591 0.041607,-0.41738 C 3.8075553,289.40064 3.4234155,288.52765 3.197945,287.59404 3.162077,287.444 3.0278154,287.33826 2.8735397,287.33855 h -0.213887 c -0.5694678,0 -1.0245727,-0.45511 -1.0245727,-1.02458 v -1.32947 c 0,-0.56945 0.4551049,-1.02457 1.0245727,-1.02457 h 0.213887 c 0.1542757,2.9e-4 0.2885367,-0.10543 0.3244053,-0.2555 0.2254705,-0.93361 0.6096103,-1.804 1.1227421,-2.58483 0.087977,-0.13202 0.070566,-0.30779 -0.041607,-0.41997 0,0 -0.2005162,-0.19793 -0.449879,-0.44729 -0.4025169,-0.40251 -0.4026334,-1.04685 0,-1.44974 0.303382,-0.30303 0.6383158,-0.63797 0.9413617,-0.94136 0.4028797,-0.40263 1.0446305,-0.4025 1.4471473,0 0.2947845,0.29481 0.5428426,0.5435 0.5428426,0.5435 0.1060578,0.10617 0.2700798,0.1283 0.4004664,0.054 0.6571689,-0.37288 1.3704871,-0.65877 2.1232623,-0.8406 0.1491066,-0.0356 0.2545889,-0.1685 0.2554941,-0.3218 v -0.21389 c 0,-0.56946 0.4525019,-1.02457 1.0219725,-1.02457 h 1.454298 c 0.569468,0 1.022623,0.45511 1.022623,1.02457 v 0.21389 c 9.97e-4,0.1533 0.106392,0.28617 0.255493,0.3218 0.752776,0.18183 1.465441,0.46772 2.12261,0.8406 0.13039,0.0744 0.294412,0.0522 0.40047,-0.054 0,0 0.248707,-0.24869 0.543492,-0.5435 0.402516,-0.4025 1.044267,-0.40263 1.447147,0 0.303043,0.30339 0.637331,0.63833 0.94071,0.94136 0.402636,0.40289 0.402516,1.04723 0,1.44974 -0.24936,0.24936 -0.449228,0.44729 -0.449228,0.44729 -0.11238,0.11196 -0.130066,0.2878 -0.04226,0.41997 0.513132,0.78083 0.897921,1.65122 1.123391,2.58483 0.03587,0.15005 0.17013,0.25579 0.324406,0.2555 h 0.213234 c 0.569469,0 1.024576,0.45512 1.024576,1.02457 v 1.32947 c 0,0.56947 -0.455107,1.02458 -1.024576,1.02458 H 19.7049 c -0.154276,-2.9e-4 -0.288537,0.10542 -0.324406,0.25549 -0.22547,0.93361 -0.610259,1.8066 -1.123391,2.58744 -0.08638,0.13162 -0.06874,0.30574 0.04226,0.41738 0,0 0.199868,0.20052 0.449228,0.44988 0.402516,0.40251 0.402636,1.04426 0,1.44713 -0.303379,0.30304 -0.637667,0.63799 -0.94071,0.94137 -0.40288,0.40264 -1.044631,0.40251 -1.447147,0 -0.294785,-0.2948 -0.543492,-0.54284 -0.543492,-0.54284 -0.105902,-0.10644 -0.26994,-0.1288 -0.40047,-0.0546 -0.328586,0.18644 -0.471112,0.25178 -0.82557,0.3924 -0.170945,0.0678 -0.2545,0.26141 -0.186583,0.43232 0.06756,0.1712 0.261235,0.25508 0.432323,0.18723 0.302341,-0.11989 0.390934,-0.16795 0.676049,-0.31892 0.09248,0.0925 0.171684,0.17167 0.375761,0.37575 0.656999,0.65698 1.733172,0.65687 2.390458,0 0.302859,-0.30318 0.638182,-0.63787 0.941361,-0.9407 0.656879,-0.65729 0.656999,-1.73411 0,-2.39111 -0.163509,-0.16351 -0.216657,-0.21601 -0.295151,-0.29451 0.430484,-0.70269 0.766725,-1.46484 0.990768,-2.27798 h 0.002 c 0.92928,0 1.688339,-0.76102 1.688339,-1.69029 v -1.32948 c 0,-0.92926 -0.759059,-1.69029 -1.688339,-1.69029 h -0.002 c -0.224059,-0.81245 -0.560588,-1.57582 -0.990768,-2.27798 0.07849,-0.0785 0.131642,-0.13099 0.295151,-0.29451 0.656999,-0.65698 0.656879,-1.73121 0,-2.3885 -0.303179,-0.30284 -0.638502,-0.63817 -0.941361,-0.94136 -0.657286,-0.65687 -1.733459,-0.65698 -2.390458,0 -0.212079,0.2121 -0.301984,0.302 -0.390713,0.39073 -0.566729,-0.29963 -1.168403,-0.53965 -1.798857,-0.71253 -0.0077,-0.9228 -0.758617,-1.67794 -1.683136,-1.67794 z m 0.727473,3.06397 c -3.8543807,0 -6.9906389,3.13628 -6.9906389,6.99064 0,1.41765 0.4250745,2.74005 1.1526458,3.8428 0.3637857,0.55136 0.8034294,1.04902 1.3041223,1.47641 0.1396632,0.11964 0.3498289,0.10329 0.469381,-0.0364 0.1195856,-0.13967 0.1032851,-0.34984 -0.036408,-0.46939 -0.4533074,-0.38694 -0.8526755,-0.83765 -1.1819006,-1.33662 -0.6584403,-0.99798 -1.0421274,-2.19167 -1.0421274,-3.4768 0,-3.49404 2.8308888,-6.32492 6.3249258,-6.32492 3.494036,0 6.324275,2.83088 6.324275,6.32492 0,1.28513 -0.383032,2.47882 -1.041475,3.4768 -0.329222,0.49897 -0.725994,0.94968 -1.179302,1.33662 -0.140687,0.11863 -0.158452,0.32885 -0.03965,0.46939 0.119552,0.13969 0.329717,0.15598 0.469381,0.0364 0.500689,-0.42739 0.940982,-0.92505 1.304771,-1.47641 0.727575,-1.10275 1.151994,-2.42515 1.151994,-3.8428 0,-3.85436 -3.135606,-6.99064 -6.989989,-6.99064 z m -2.4223118,2.95866 c -0.134424,10e-4 -0.2691311,0.0413 -0.3842163,0.12027 -0.00333,0.003 -0.00655,0.005 -0.00975,0.008 -1.2304411,0.91285 -2.0289974,2.37985 -2.0289974,4.02679 0,1.97103 1.1864807,3.62574 2.8474851,4.44284 v 3.68809 c 0,0.38252 0.077715,0.94105 0.4199718,1.43738 0.3422536,0.49635 0.9728806,0.89197 1.9093746,0.89197 0.936496,0 1.569074,-0.39562 1.911327,-0.89197 0.34225,-0.49633 0.420621,-1.05486 0.420621,-1.43738 v -3.87726 c 0.920195,-0.64909 1.565221,-1.77398 1.874918,-2.88974 l 0.002,-0.0101 c 0.06699,-0.27058 0.103373,-0.55232 0.103373,-0.84253 0,-1.152 -0.559592,-2.18001 -1.420493,-2.81888 -0.004,-0.003 -0.0082,-0.005 -0.01233,-0.008 -0.191243,-0.13064 -0.444547,-0.13286 -0.63841,-0.005 v 6.6e-4 c -0.193033,0.12779 -0.29318,0.36219 -0.248341,0.58965 l -0.0026,-0.0101 c 0.123262,0.74987 -0.104783,1.51426 -0.618905,2.07386 -0.319712,0.34858 -0.714996,0.70349 -1.063581,0.82564 -0.841547,-0.0662 -1.264698,-0.38591 -1.754649,-0.9056 -0.5994916,-0.63623 -0.8787382,-1.51016 -0.7593293,-2.37617 9.986e-4,-0.004 0.00166,-0.008 0.00267,-0.0101 0.043324,-0.41509 0.083021,-0.79335 0.1326234,-1.2014 0.053177,-0.27359 -0.064491,-0.55426 -0.2971012,-0.70732 l -6.657e-4,-6.7e-4 c -0.1162996,-0.0764 -0.2504414,-0.11373 -0.3848655,-0.11247 z m -0.1111844,1.94065 c -0.1468796,1.06523 0.1962955,2.13918 0.9335563,2.9216 1.0898369,1.03836 2.2708149,1.10595 3.1575879,1.10595 1.073453,-0.083 1.615703,-0.1248 2.032247,-0.15732 -0.343711,0.87966 -0.786004,1.80823 -1.430242,2.19411 -0.100605,0.0599 -0.162321,0.1683 -0.162531,0.28541 v 3.99492 c 0,0.28317 -0.07011,0.72326 -0.301651,1.05903 -0.231538,0.33579 -0.601315,0.60461 -1.36393,0.60461 -0.762614,0 -1.129792,-0.26882 -1.361334,-0.60461 -0.231539,-0.33577 -0.3023006,-0.77586 -0.3023006,-1.05903 v -3.82598 c 3.329e-4,-0.13344 -0.078931,-0.25421 -0.2015346,-0.30686 -1.5538379,-0.66195 -2.6459504,-2.20015 -2.6459504,-3.99752 0,-1.42881 0.6904478,-2.69221 1.7539978,-3.4846 0.0036,-0.003 0.00736,-0.004 0.011046,-0.005 l -10e-6,-1e-4 c 0.0037,-6.7e-4 0.00732,9e-5 0.011046,0.003 0.00906,0.006 0.011889,0.0133 0.00975,0.024 l -0.002,0.0101 c -0.012715,0.0767 -0.025297,0.19894 -0.04941,0.41543 z m 5.4966872,0.60193 c 0.602471,0.52103 1.014824,1.26328 1.014824,2.12326 0,0.15365 -0.01284,0.30354 -0.03641,0.44988 -0.174959,0.0136 -1.025751,0.0799 -2.074502,0.16122 0.117438,-0.11347 0.226462,-0.22908 0.327005,-0.3387 0.597568,-0.65043 0.844424,-1.52306 0.769081,-2.39566 z m -3.629568,4.41554 c -0.183833,6.7e-4 -0.332274,0.15034 -0.331555,0.33416 v 0.33156 c -6.66e-4,0.18384 0.147722,0.33344 0.331555,0.33416 0.184849,6.7e-4 0.334884,-0.1493 0.334158,-0.33416 v -0.33156 c 6.66e-4,-0.18484 -0.149309,-0.33487 -0.334158,-0.33416 z m 0.997921,0 c -0.183833,6.7e-4 -0.332278,0.15034 -0.331558,0.33416 v 0.33156 c -6.66e-4,0.18384 0.147725,0.33344 0.331558,0.33416 0.184849,6.7e-4 0.33488,-0.1493 0.334155,-0.33416 v -0.33156 c 6.66e-4,-0.18484 -0.149306,-0.33487 -0.334155,-0.33416 z m 0.999868,0 c -0.184848,-6.5e-4 -0.334881,0.14932 -0.334155,0.33416 v 0.33156 c -6.65e-4,0.18486 0.149307,0.33488 0.334155,0.33416 0.183834,-6.6e-4 0.332278,-0.15032 0.331559,-0.33416 v -0.33156 c 6.66e-4,-0.18382 -0.147725,-0.33344 -0.331559,-0.33416 z m -1.997789,5.32701 c 0,0.54755 0.450368,0.99793 0.997921,0.99793 0.547553,0 0.999868,-0.45038 0.999868,-0.99793 0,-0.54755 -0.445449,-0.99986 -0.999858,-0.99294 -0.554409,0.008 -0.997931,0.45395 -0.997931,0.99294 z m 0.997931,-0.33414 c 0.187775,0 0.334155,0.14637 0.334155,0.33414 0,0.18778 -0.14638,0.33156 -0.334155,0.33156 -0.187774,0 -0.331558,-0.14378 -0.331558,-0.33156 0,-0.18777 0.143784,-0.33414 0.331558,-0.33414 z"
       sodipodi:nodetypes="scccccsccssssccsccscscsccsccsccccssssccccscccccccsssscccccccsccccssssccccsccsccscscsccsccssssccsccsccssssscccssssscccssscccscssssscccsccccccccccccccccccccccsssssccscccccccccsccccsccsccssccsccssccsccsssscssssss" />
  </g>
</svg>
