<svg xmlns="http://www.w3.org/2000/svg" xmlns:xlink="http://www.w3.org/1999/xlink" version="1.1" width="256" height="256" viewBox="0 0 256 256" xml:space="preserve">
<desc>Created with Fabric.js 1.7.22</desc>
<defs>
</defs>
<g transform="translate(128 128) scale(0.72 0.72)" style="">
	<g style="stroke: none; stroke-width: 0; stroke-dasharray: none; stroke-linecap: butt; stroke-linejoin: miter; stroke-miterlimit: 10; fill: none; fill-rule: nonzero; opacity: 1;" transform="translate(-175.05 -175.05000000000004) scale(3.89 3.89)" >
	<path d="M 45 90 c -15.638 0 -29.905 -8.598 -37.233 -22.438 l -0.248 -0.468 l 0.248 -0.468 c 4.17 -7.876 10.878 -14.354 18.889 -18.238 c 2.426 -1.178 5.266 -1.156 7.79 0.057 c 3.308 1.59 6.859 2.396 10.555 2.396 c 3.695 0 7.246 -0.807 10.555 -2.396 c 2.525 -1.212 5.363 -1.233 7.79 -0.057 c 8.01 3.885 14.718 10.361 18.889 18.238 c 0.259 0.488 0.072 1.093 -0.416 1.352 c -0.49 0.259 -1.094 0.071 -1.352 -0.416 c -3.974 -7.504 -10.364 -13.674 -17.994 -17.375 c -1.872 -0.907 -4.078 -0.888 -6.05 0.061 c -3.581 1.721 -7.424 2.594 -11.422 2.594 s -7.841 -0.873 -11.421 -2.594 c -1.97 -0.946 -4.175 -0.969 -6.05 -0.061 c -7.472 3.624 -13.754 9.616 -17.742 16.907 C 16.838 80.004 30.282 88 45 88 c 2.854 0 5.704 -0.302 8.473 -0.896 c 0.537 -0.119 1.072 0.228 1.188 0.768 c 0.116 0.54 -0.228 1.071 -0.768 1.188 C 50.987 89.684 47.995 90 45 90 z" style="stroke: none; stroke-width: 1; stroke-dasharray: none; stroke-linecap: butt; stroke-linejoin: miter; stroke-miterlimit: 10; fill: rgb(0,0,0); fill-rule: nonzero; opacity: 1;" transform=" matrix(1 0 0 1 0 0) " stroke-linecap="round" />
	<path d="M 45 41.544 c -11.454 0 -20.772 -9.318 -20.772 -20.772 S 33.546 0 45 0 c 11.453 0 20.771 9.318 20.771 20.772 S 56.453 41.544 45 41.544 z M 45 2 c -10.351 0 -18.772 8.421 -18.772 18.772 S 34.649 39.544 45 39.544 c 10.351 0 18.771 -8.421 18.771 -18.772 S 55.351 2 45 2 z" style="stroke: none; stroke-width: 1; stroke-dasharray: none; stroke-linecap: butt; stroke-linejoin: miter; stroke-miterlimit: 10; fill: rgb(0,0,0); fill-rule: nonzero; opacity: 1;" transform=" matrix(1 0 0 1 0 0) " stroke-linecap="round" />
	<path d="M 82.273 81.372 c 0.101 -0.244 0.101 -0.519 0 -0.764 c -0.051 -0.123 -0.125 -0.234 -0.217 -0.327 l -8.008 -8.009 c -0.391 -0.391 -1.023 -0.391 -1.414 0 s -0.391 1.023 0 1.414 l 6.303 6.304 H 65.795 c -4.765 0 -8.642 -3.877 -8.642 -8.642 v -4.412 c 0 -0.553 -0.447 -1 -1 -1 s -1 0.447 -1 1 v 4.412 c 0 5.868 4.773 10.642 10.642 10.642 h 13.141 l -6.303 6.303 c -0.391 0.391 -0.391 1.023 0 1.414 C 72.828 89.902 73.084 90 73.34 90 s 0.512 -0.098 0.707 -0.293 l 8.008 -8.008 C 82.148 81.606 82.222 81.495 82.273 81.372 z" style="stroke: none; stroke-width: 1; stroke-dasharray: none; stroke-linecap: butt; stroke-linejoin: miter; stroke-miterlimit: 10; fill: rgb(0,0,0); fill-rule: nonzero; opacity: 1;" transform=" matrix(1 0 0 1 0 0) " stroke-linecap="round" />
</g>
</g>
</svg>