<?xml version="1.0" ?><svg viewBox="0 0 1000 1000" xmlns="http://www.w3.org/2000/svg"><path d="m544.64 66.16c-.94 56.55-.32 113.17-.37 169.73s-.1 113.15-.11 169.72l-.07 337.72q0 95.25 0 190.51a1.4 1.4 0 0 0 2.8 0q0-169.73 0-339.45 0-168.85-.13-337.72c-.05-63.49.67-127-.39-190.51a.85.85 0 0 0 -1.69 0z"/><path d="m289.84 415a233.09 233.09 0 0 1 30.7-.84 144.52 144.52 0 0 1 15.46 1.52 80.21 80.21 0 0 1 12.18 2.59c9.45 3.07 16.61 10.72 22.05 18.74 6.82 10 11.81 21.3 16.33 32.52 4.86 12.05 9.1 24.34 13.93 36.39 4.21 10.5 8.65 21.17 15.05 30.55.69 1 1.45 2 2.23 2.94s2.69-.33 1.91-1.47c-6.28-9.26-10.94-19.31-15.07-29.69-4.84-12.16-9.2-24.51-14-36.68-4.61-11.57-9.61-23.15-16.36-33.57-5.54-8.53-12.63-16.82-22.18-20.92a42.29 42.29 0 0 0 -8.41-2.47 132.91 132.91 0 0 0 -15-2.15 187.53 187.53 0 0 0 -31.17.1q-3.84.3-7.66.69c-1.14.12-1.17 1.91 0 1.81z"/><path d="m515.56 433.46c-.69-5.84-1-12.74 3.54-16.49 1.92-1.6 4.41-2.3 6.82-3l6.32-1.75a6.24 6.24 0 0 0 2.63-1.19c1-.9 1.28-2.3 1.69-3.57a14.53 14.53 0 0 1 10-9.69c4.72-1.13 10.16.84 12.66 5 .61 1 1.66 4 2.62 4.7 1.2.9 2.84.84 4.34.74 5-.33 12.68-3.28 16.75 1 5.91 6.17 2.54 14.67.81 21.85"/><path d="m516.55 433.46c-.2-3.67-.5-7.49.67-11a9.41 9.41 0 0 1 2.81-4.27 15.18 15.18 0 0 1 5.88-2.59c2.3-.64 4.61-1.25 6.9-1.91a6.14 6.14 0 0 0 4.33-3.31c.76-1.68 1.09-3.47 2-5.09a13.27 13.27 0 0 1 3.88-4.25 10.88 10.88 0 0 1 10.13-1.33 9.84 9.84 0 0 1 4.23 3.05 30.76 30.76 0 0 1 2.19 4.18c1.91 3.47 5.83 3 9.23 2.5s6.85-1.53 10.16-.74c4.16 1 5.84 5.63 5.8 9.49 0 4.33-1.75 8.31-2.47 12.53a1.48 1.48 0 0 0 2.86.78c2.34-7.31 4.9-17.06-1.21-23.27-2.8-2.85-6.92-2.93-10.64-2.45-1.87.24-3.72.62-5.59.89-1.45.21-4 .75-5.16-.43s-1.42-3.07-2.28-4.41a12.37 12.37 0 0 0 -4.27-4 13.64 13.64 0 0 0 -11.4-.91 16.09 16.09 0 0 0 -8.69 8.17 22.15 22.15 0 0 0 -1 2.75 3.76 3.76 0 0 1 -1.55 2.49 16.46 16.46 0 0 1 -3.33 1l-3.84 1.06a23 23 0 0 0 -7.2 2.79 11 11 0 0 0 -4 5.22c-1.61 4.16-1.12 9-.35 13.33.19 1.09 2 .85 1.94-.26z"/><path d="m457 511.84a399.44 399.44 0 0 1 2.39-48.66c1-8.81 2.64-18.39 9.29-24.26 4.32-3.81 10.09-5.43 15.66-6.86a556.47 556.47 0 0 1 127.83-17.25c3.2-.05 6.51-.06 9.46 1.19 7.82 3.32 9.63 13.43 10 21.91 1 25.23-1.34 50.45-3.66 75.59l-9.05 98.11c-.81 8.78-1.89 18.21-7.77 24.77-5.06 5.65-12.71 8.07-20 10.25l-91.15 27.37c-13.11 3.92-29 6.62-37.68-6.69-4.81-7.36-5.43-16.28-5.66-24.81-.25-9.42.21-18.84.33-28.25.18-13.2.74-28.83 1.52-42" fill="#18c4ff"/><path d="m135.3 439.39c-24.17 4.27-47.86 15-65.55 32.27a100.16 100.16 0 0 0 -30.06 67.86c-1.18 27.57 7.57 54.63 18.79 79.47 11.52 25.48 26.16 49.32 40.41 73.31 12.54 21.11 25.54 41.93 42.21 60.08 16.12 17.55 35.86 32.71 59.11 39.18a93.26 93.26 0 0 0 38.11 2.59c14.54-2.08 28.28-8 40.91-15.27 12.83-7.42 24.7-16.38 36.41-25.44s23-18.2 34-27.82c21.86-19 42.52-39.55 60.75-62.1a359.05 359.05 0 0 0 25.19-35.1q5.7-9.09 10.79-18.54c2.95-5.5 6.27-11.13 7.21-17.39.73-4.86-.16-10-4.68-12.65a1.4 1.4 0 0 0 -1.41 2.42c5.1 3 3.72 10 2.09 14.67-2.2 6.28-5.92 12.24-9.19 18a336.94 336.94 0 0 1 -22.94 35c-16.83 22.58-36.25 43.14-57 62.15a633 633 0 0 1 -66.63 53.72c-11.92 8.26-24.54 15.82-38.27 20.64a89.68 89.68 0 0 1 -39.95 4.63c-23.48-2.63-44.46-14.86-61.55-30.7-17.53-16.26-31.54-36-43.95-56.3-6.44-10.55-12.66-21.24-19-31.87-7-11.82-13.85-23.72-20.18-35.9-12.47-24-23.48-49.8-26.74-76.92-3.05-25.3 1.72-51 16.7-71.94 14.12-19.69 35.27-33.66 57.97-41.44a136.6 136.6 0 0 1 17-4.64c1.29-.27.73-2.18-.53-1.95z"/><path d="m411.2 554.41c-6.9-.92-13.11 2.13-18.37 6.34-5.79 4.63-10.42 10.46-15.45 15.86a214.82 214.82 0 0 1 -35.24 30.15c-12.38 8.53-25.45 16-38.62 23.21-13.37 7.34-26.85 14.48-39.95 22.32-6.82 4.08-13.54 8.35-20.07 12.88a104.33 104.33 0 0 0 -9.73 7.1c-2.39 2.1-3.66 6-.32 8a3.18 3.18 0 0 0 3.93-.43 1.54 1.54 0 0 0 0-2.13 514.72 514.72 0 0 1 -59.57-89.09q-3.5-6.65-6.81-13.38c-2.24-4.55-4.32-9.17-6.72-13.64-.62-1.17-2.66-.37-2.18.92 3.16 8.39 7.41 16.44 11.53 24.4s8.51 15.94 13.08 23.74a513.25 513.25 0 0 0 29.81 45.25q9 12.23 18.74 23.93v-2.13c-.14.13-.51-.14-.7-.41-.4-.55-.11-1.16.24-1.68 1-1.42 2.69-2.4 4.06-3.39 3.07-2.25 6.2-4.43 9.36-6.56 6.22-4.19 12.58-8.15 19-12 12.47-7.39 25.27-14.19 38-21.18 12.46-6.85 24.83-13.91 36.6-21.9a210.75 210.75 0 0 0 33.7-27.93c5-5.16 9.38-10.8 14.36-15.93 4.5-4.63 9.87-9.19 16.39-10.47a18.12 18.12 0 0 1 4.93-.26c1 .07 1-1.44 0-1.57z"/><g fill="#18c4ff"><path d="m343.16 473.64c-3.77-12.07-16.79-22.45-13-34.5 1.54-4.89 5.77-8.83 6.23-13.93.53-5.74-3.8-10.59-7-15.41-13.1-19.88-8.07-45.93-6.29-69.67 2.18-29.24 5-64.22-8.27-90.39-29.47-58.3-112.16-71-155.34-18.85h.06c-11 10.86-17.81 26.49-20.27 42-3.53 22.28.11 45 2 67.46s1.66 46.17-8.71 66.2c-5.91 11.42-15.2 24.22-9.42 35.7 3.1 6.17 10.37 11.24 8.95 18-.58 2.72-2.53 4.91-3.64 7.46-4.41 10.16 5.53 20.53 14.75 26.66 29.37 19.49 63.56 32.4 98.73 35.7 21.07 2 44 2.54 64.36-5 19.7-7.31 44.31-27.61 36.86-51.43zm-96.93-221.73a93.14 93.14 0 0 1 11.38-3l-11.38 3h-.12-.05zm61.87 96.86c-2.47 14.65-8 29.12-17.93 39.76s-24.63 16.23-38.69 13.93c-56.9-9.3-83-97-39.6-131.52a124.06 124.06 0 0 1 12.61-8.83c14.07-8.58 30.63-12.5 46.93-10.15 43.21 6.22 38.31 46.56 38.44 52.3.36 14.87.71 29.86-1.76 44.51z"/><path d="m345.39 473c-2.29-7.12-7-13-10.52-19.51a22.36 22.36 0 0 1 -3-8.79c-.27-3.65 1.1-6.65 2.91-9.72 2-3.32 4-6.73 4-10.72 0-3.84-1.77-7.38-3.83-10.52a98 98 0 0 1 -6.36-10.11 49.5 49.5 0 0 1 -3.8-11c-3.57-15.59-1.1-32 .28-47.67 1.42-16.16 2.64-32.49 2.14-48.72-.5-16-2.81-32.36-9.91-46.88a94.21 94.21 0 0 0 -22.3-29.06 99.63 99.63 0 0 0 -65.37-24.57 93.31 93.31 0 0 0 -65.35 26.56q-3.36 3.33-6.38 7c-1.56 1.88.45 5.19 2.8 3.63h.07l-2.8-3.63c-12.58 12.51-19.26 29.75-21.45 47.12-2.55 20.25.39 40.62 2.19 60.8 1.6 18.08 2.31 36.76-2.71 54.4a75.07 75.07 0 0 1 -4.83 12.68c-1.93 3.9-4.18 7.65-6.2 11.51-3.81 7.25-7.56 15.76-5.23 24.09 1.09 3.86 3.47 7 5.88 10.08 1.94 2.51 4.55 5.55 4.35 8.94-.12 2-1.26 3.64-2.23 5.29a18.25 18.25 0 0 0 -2.35 5.66 17.6 17.6 0 0 0 1.76 11.14c3.75 7.62 11 12.9 18 17.37a229.54 229.54 0 0 0 24 13.43 218.3 218.3 0 0 0 51.94 17.54 228.14 228.14 0 0 0 27.44 3.6 199.21 199.21 0 0 0 28.28.37c16.63-1.12 33.14-5.22 47-14.82 11.59-8 22.41-20.1 23-34.9a31.75 31.75 0 0 0 -1.42-10.59c-.86-2.84-5.33-1.63-4.46 1.23a27.9 27.9 0 0 1 -1.09 19.32c-2.69 6.27-7.2 11.61-12.27 16.1-11.54 10.24-26.05 15.73-41.17 18a149.84 149.84 0 0 1 -27.4 1.23 241 241 0 0 1 -26.82-2.32 210.07 210.07 0 0 1 -51.08-14.44 222.77 222.77 0 0 1 -24-11.92c-7.22-4.14-14.84-8.41-20.7-14.4a23.94 23.94 0 0 1 -6.13-9.4c-1.12-3.69-.33-6.9 1.59-10.15 2.05-3.48 3.48-7 2.24-11.06-1.06-3.43-3.41-6.22-5.56-9s-4.28-5.91-4.77-9.62c-.51-3.86.5-7.75 1.86-11.34 3-8 8.15-15 11.48-22.94 6.91-16.35 8-34.47 7.15-52-.92-19.36-4.21-38.57-4.1-58 .11-17.72 3.45-35.51 13.42-50.48a60.42 60.42 0 0 1 7.66-9.3c1.82-1.81-.57-5.11-2.81-3.63h-.06l2.8 3.63a88.59 88.59 0 0 1 61.38-31.9 95.3 95.3 0 0 1 64.33 19 90.35 90.35 0 0 1 23.25 26.27c7.67 13.11 11 27.91 12.06 42.94 1.15 16 .08 32.07-1.11 48-1.17 15.76-3.78 31.73-2.26 47.55a61.13 61.13 0 0 0 6.18 22.46c1.78 3.42 4.13 6.43 6.2 9.67 1.88 2.93 3.59 6.27 2.66 9.85s-3.35 6.31-4.85 9.52a18.2 18.2 0 0 0 -1.59 10.63c1 6.84 5.46 12.7 9 18.46a44.45 44.45 0 0 1 4.55 9.29c.87 2.83 5.34 1.62 4.42-1.25z"/><path d="m246.85 254.14a92.94 92.94 0 0 1 11.37-3l-1.22-4.51-10 2.69-1 .26c-.23.06-.79.15.08.06l.62 4.54h.17a2.31 2.31 0 0 0 -1.23-4.46h-.17a2.32 2.32 0 0 0 .61 4.55 30.57 30.57 0 0 0 4.41-1.1l6.26-1.67 1.49-.4a2.35 2.35 0 0 0 1.62-2.85 2.38 2.38 0 0 0 -2.85-1.62 93 93 0 0 0 -11.37 3.05 2.31 2.31 0 1 0 1.23 4.46z"/><path d="m305.87 348.16c-3.07 18-10.92 37.17-27.4 46.77a40.64 40.64 0 0 1 -25.47 5.44 56.58 56.58 0 0 1 -17.5-5.4 71.81 71.81 0 0 1 -26.89-23.71 91.15 91.15 0 0 1 -14.42-34 78.62 78.62 0 0 1 .61-35.36 54.89 54.89 0 0 1 18.07-28.79c7.77-6.37 16.55-12 26-15.36a68 68 0 0 1 29.42-3.8 50.45 50.45 0 0 1 20.88 6.34 32.9 32.9 0 0 1 6.62 5 31.23 31.23 0 0 1 4.91 6c.67 1.05 1.3 2.13 1.87 3.24.26.51.51 1 .75 1.55.14.29.27.58.4.87 0 .06.19.47.09.22s.1.26.12.31a47.64 47.64 0 0 1 2.15 6.81c.25 1.06.47 2.14.66 3.22.08.49.16 1 .23 1.47 0 .18.12.83 0 .29 0 .3.07.6.11.89.22 1.89.35 3.79.42 5.7.08 2.59 0 5.18-.07 7.77-.06 3.94.18 7.9.22 11.84.07 5.58 0 11.17-.25 16.74a140.41 140.41 0 0 1 -1.65 16 2.37 2.37 0 0 0 1.61 2.84 2.33 2.33 0 0 0 2.85-1.61c1.91-11.47 2.22-23.09 2.06-34.69-.07-4.92-.2-9.82-.12-14.73.14-8.64-1-17.32-4.44-25.29-5.06-11.69-15.26-19.63-27.36-23.15-19.53-5.69-40.86-1.53-57.94 9.07-7.1 4.41-14.18 9.42-19.65 15.82a59.72 59.72 0 0 0 -9.74 16c-4.79 11.52-6.07 24.38-4.79 36.73a96.54 96.54 0 0 0 12 37.53 81.73 81.73 0 0 0 26 28.34c12.32 8.06 27.84 12.58 42.41 8.89a48.36 48.36 0 0 0 23.93-14.64 71.84 71.84 0 0 0 14.25-25.69 100.5 100.5 0 0 0 3.45-14.19 2.39 2.39 0 0 0 -1.62-2.85 2.33 2.33 0 0 0 -2.78 1.57z"/></g><path d="m223.79 292.56a24.58 24.58 0 0 0 6.52-.19c2.32-.24 4.63-.54 7-.69a116.8 116.8 0 0 1 13.75-.11c2.92.13 2.91-4.4 0-4.53a100.49 100.49 0 0 0 -14 .3c-2.27.21-4.56.45-6.81.83s-4.85.87-6.73 2.1c-.82.53-.83 2.08.3 2.29z"/><path d="m305.79 290.57c-1.43-1.24-3.72-1.81-5.54-2.21a53 53 0 0 0 -6-.83 65.64 65.64 0 0 0 -12.14 0 2.33 2.33 0 0 0 -2.27 2.26 2.29 2.29 0 0 0 2.27 2.27 74.91 74.91 0 0 1 11.7-.18c1.91.13 3.8.39 5.7.61s4 .65 5.75.21a1.26 1.26 0 0 0 .56-2.09z"/><path d="m234.22 305.94a1.34 1.34 0 0 0 -1.21-1.29 2.51 2.51 0 0 0 -1.65.48 6.19 6.19 0 0 0 -2.27 2.59 4.89 4.89 0 0 0 -.31 3.58 4.1 4.1 0 0 0 2.6 2.64 4.21 4.21 0 0 0 5.24-3 4 4 0 0 0 -1.23-3.76 3.64 3.64 0 0 0 -4.14-.37 3.25 3.25 0 0 0 -1.49 1.95 3.47 3.47 0 0 0 .29 2.45 2.72 2.72 0 0 0 2.24 1.55 1.87 1.87 0 0 0 1.87-1.78 2.1 2.1 0 0 0 -.08-.56 2.26 2.26 0 0 0 -1-1.2l.38.3c-.16-.13-.32-.26-.49-.38l.38.29a1.88 1.88 0 0 1 -.25-.24l.3.37a1.23 1.23 0 0 1 -.21-.37l.18.45a2.25 2.25 0 0 1 -.09-.35l.06.49a2.06 2.06 0 0 1 0-.43l-.07.5a1.4 1.4 0 0 1 .1-.35l-.19.44.11-.19-.15.18.09-.08c.08-.12-.43.25-.13.1l.25-.12-.44.19a1.83 1.83 0 0 1 .46-.12l-.49.06a2.57 2.57 0 0 1 .48 0l-.48-.06a1.53 1.53 0 0 1 .45.13l-.43-.19c.09.05.18.12.28.17-.25-.21-.31-.25-.17-.13l.08.09c.1.11 0 0-.15-.2a.71.71 0 0 1 .1.14 2.1 2.1 0 0 1 .15.3l-.18-.43a2.65 2.65 0 0 1 .15.57l-.06-.48a2.91 2.91 0 0 1 0 .59l.06-.47a2.22 2.22 0 0 1 -.09.37c-.07.25.19-.36.08-.19s-.05.1-.08.15l-.08.12c-.13.23.25-.27.13-.16l-.25.24c-.11.12.39-.26.16-.12l-.12.08a1.91 1.91 0 0 0 -.32.17s.47-.16.18-.08h-.17l-.35.07.46-.06a2.66 2.66 0 0 1 -.63 0l.45.06a2.73 2.73 0 0 1 -.41-.1c-.27-.07.37.2.14.06l-.18-.1c-.24-.14.28.26.08.06l-.18-.17c-.21-.21.21.31.06.07l-.13-.21-.08-.15.1.24a1 1 0 0 1 -.08-.24c0-.16-.08-.32-.12-.49s0 .38 0 .09c0-.09 0-.17 0-.26s0-.17 0-.25a1 1 0 0 1 0-.17c0 .26-.05.32 0 .2s.08-.37.14-.55l.05-.14c0-.11 0-.11 0 0s-.05.12 0 0l.06-.12a5.05 5.05 0 0 1 .28-.51l.16-.24s.22-.3.09-.13.08-.09.11-.13l.32-.42a1.88 1.88 0 0 1 .16-.23l.08-.12q-.15.19-.06.09s.23-.17.07-.08-.08.06 0 0 .08 0 0 0l.19-.08h-.1-.13a.75.75 0 0 1 -.41-.14.87.87 0 0 0 1.46-.61z"/><path d="m285.41 307.48a1.35 1.35 0 0 0 -1.21-1.29 2.56 2.56 0 0 0 -1.65.48 6.21 6.21 0 0 0 -2.27 2.6 4.86 4.86 0 0 0 -.31 3.57 4.1 4.1 0 0 0 2.6 2.64 4.21 4.21 0 0 0 5.24-3 4 4 0 0 0 -1.23-3.76 3.61 3.61 0 0 0 -4.14-.37 3.23 3.23 0 0 0 -1.49 1.94 3.53 3.53 0 0 0 .29 2.45 2.75 2.75 0 0 0 2.24 1.56 1.87 1.87 0 0 0 1.87-1.79 2.1 2.1 0 0 0 -.08-.56 2.24 2.24 0 0 0 -1-1.19l.38.29c-.16-.13-.32-.26-.49-.38l.38.3-.25-.25.3.38a1.53 1.53 0 0 1 -.21-.37l.18.44a2 2 0 0 1 -.09-.35l.07.5a1.56 1.56 0 0 1 0-.43l-.07.49a1.54 1.54 0 0 1 .1-.35l-.19.45c0-.07.08-.13.11-.2-.22.26-.27.33-.15.19l.09-.08c.09-.12-.43.25-.13.1.09 0 .16-.09.25-.12l-.44.18a1.83 1.83 0 0 1 .46-.12l-.49.07a1.93 1.93 0 0 1 .48 0l-.48-.06a1.91 1.91 0 0 1 .45.13l-.43-.18c.1 0 .18.11.28.16-.25-.2-.31-.24-.17-.12l.08.09q.15.15-.15-.21l.1.14c.06.1.1.2.15.3l-.18-.43a2.82 2.82 0 0 1 .15.57l-.06-.47a2.81 2.81 0 0 1 0 .58l.06-.47a2.22 2.22 0 0 1 -.09.37c-.07.26.19-.36.08-.19l-.08.15-.07.12c-.14.23.24-.27.12-.16l-.25.25c-.11.12.39-.27.16-.12l-.12.08a1.91 1.91 0 0 0 -.32.16s.47-.16.18-.08l-.17.05a1.36 1.36 0 0 1 -.35.07l.46-.06a2.22 2.22 0 0 1 -.63 0l.45.06a3 3 0 0 1 -.41-.09c-.27-.08.38.19.14.06l-.18-.11c-.24-.13.28.26.08.06l-.17-.17c-.22-.21.2.32.05.07 0-.07-.09-.13-.13-.21a1 1 0 0 1 -.07-.15l.09.24a.9.9 0 0 1 -.08-.23c-.05-.17-.08-.33-.12-.5s0 .39 0 .09a2.09 2.09 0 0 1 0-.25 2.26 2.26 0 0 1 0-.26c0-.06 0-.11 0-.17v.2c.05-.18.08-.37.14-.55s0-.09.05-.13 0-.12 0 0l.06-.13c.09-.17.18-.34.28-.5l.16-.24.1-.14c-.13.17.07-.09.1-.12s.22-.28.32-.43l.16-.23a1 1 0 0 1 .08-.11q-.15.18-.06.09s.23-.17.07-.09-.07.06 0 0 .08 0 0 0-.08 0 .19-.09c-.14.06-.18.07-.1.05s0 0-.13 0a.68.68 0 0 1 -.41-.14.86.86 0 0 0 1.46-.61z"/><path d="m268.12 318c.16 2.68.28 5.36.39 8a12.13 12.13 0 0 0 .43 3.18 6.11 6.11 0 0 0 1.92 2.68 4.76 4.76 0 0 1 -.51 7.72 10.87 10.87 0 0 0 -2.53 1.53c-1.38 1.43.81 3.62 2.18 2.18.66-.7 1.84-1 2.63-1.59a7.55 7.55 0 0 0 2.06-2.43 7.71 7.71 0 0 0 -1.79-9.45c-.44-.39-.92-.72-1.36-1.1a2.62 2.62 0 0 1 -.88-1.87c-.42-2.94-.63-5.93-.9-8.89-.09-1-1.7-1.07-1.64 0z"/><path d="m272.64 355.15c-4.76 1-9.64.59-14.43.11-3.63-.37-7.59-2-11.24-1s-1.91 5-.49 7.13a18.3 18.3 0 0 0 11.81 7.55c2.76.49 5.74.12 7.59-2.17 2.14-2.64 1.76-6.23 1.5-9.39"/><path d="m272.64 354.35a55.83 55.83 0 0 1 -17.9-1.18c-3.56-.81-11-2.13-11.45 3.35-.34 4 3.16 7.92 6.11 10.17 3.62 2.77 8.86 4.85 13.45 3.75a7.89 7.89 0 0 0 5.6-5.05c.95-2.56.63-5.37.37-8-.19-1.8-3-1.87-2.87 0 .21 3.43.65 8.46-3.44 9.83-3.51 1.17-7.86-.7-10.72-2.68a14.82 14.82 0 0 1 -4.07-4.13 6.37 6.37 0 0 1 -1.3-3.5c.1-1.56 2.41-1.41 3.55-1.38a58.5 58.5 0 0 1 6.6.91 58 58 0 0 0 7.9.47 27.19 27.19 0 0 0 8.38-1c.81-.25.72-1.64-.21-1.56z"/><g fill="#18c4ff"><path d="m246.06 252.44a2.69 2.69 0 0 0 .7-.1h.09a1.64 1.64 0 0 0 .78-.41 1.71 1.71 0 0 0 .6-.65 1.65 1.65 0 0 0 .27-.86 1.7 1.7 0 0 0 0-.92l-.23-.55a2.28 2.28 0 0 0 -.83-.83l-.55-.24a2.33 2.33 0 0 0 -1.23 0h-.15a1.82 1.82 0 0 0 -.79.41 1.76 1.76 0 0 0 -.59.65 2.56 2.56 0 0 0 -.24 1.78l.24.56a2.36 2.36 0 0 0 .83.83l.55.23a2.33 2.33 0 0 0 1.23 0h.15l-1.23-4.46h-.13l.62-.08h-.05a1.71 1.71 0 0 0 -.89.19 1.89 1.89 0 0 0 -.74.48 1.67 1.67 0 0 0 -.48.75 1.69 1.69 0 0 0 -.2.89l.08.61a2.2 2.2 0 0 0 .6 1l.47.37a2.27 2.27 0 0 0 1.12.35z"/><path d="m246.85 252.31 10-2.66 1.42-.38a2.34 2.34 0 0 0 1.62-2.84 2.37 2.37 0 0 0 -2.85-1.62 94.78 94.78 0 0 0 -11.37 3 2.31 2.31 0 1 0 1.23 4.46 94.78 94.78 0 0 1 11.37-3l-1.27-4.46-10 2.66-1.42.38a2.31 2.31 0 1 0 1.23 4.46z"/><path d="m312.18 302.44c-.05-2.37.13-4.75.09-7.12a67.53 67.53 0 0 0 -1.32-12.6c-2.22-10.8-7.94-20.57-17.13-26.87a50.66 50.66 0 0 0 -20.52-7.75 71.17 71.17 0 0 0 -31 1.86c-10.32 2.95-19.66 8.22-28.23 14.59a64.32 64.32 0 0 0 -14.73 14.63c-7.18 10.25-10.68 22.71-11.32 35.11a91.84 91.84 0 0 0 6.34 37.91 90 90 0 0 0 21.49 32.72c9.34 8.85 21 15.34 33.68 17.71a45.21 45.21 0 0 0 27.29-3.44 51.85 51.85 0 0 0 21.4-19c11.76-17.83 14.15-39.9 14.23-60.74 0-5.67-.12-11.34-.25-17-.07-3-4.7-3-4.63 0 .51 21.06 1 42.83-6.82 62.79-3.37 8.58-8.41 16.76-15.35 22.91a42.37 42.37 0 0 1 -23.81 10.52c-13.16 1.23-26.32-4.29-36.63-12.05-9.62-7.23-17.3-17.21-22.76-28.07a91.11 91.11 0 0 1 -9.53-35.22c-.67-11.76 1.08-23.73 6.18-34.17a52.39 52.39 0 0 1 9.84-14 67.44 67.44 0 0 1 8.28-7 102 102 0 0 1 13.31-8.44c16.25-8.44 36.44-10.83 53.67-3.91a36.16 36.16 0 0 1 14.05 9.88 26.13 26.13 0 0 1 2.16 2.8q1.07 1.56 2 3.21a34.41 34.41 0 0 1 2.78 6.36 50.75 50.75 0 0 1 1.73 6.65c.09.49.18 1 .26 1.49.05.28.09.55.13.83s.13.94.06.38c.13 1 .24 2 .32 3a85.71 85.71 0 0 1 .19 9.48c0 .83-.07 1.67-.05 2.5.03 3.02 4.66 3.03 4.6.05z"/></g><path d="m229 314.58c3.29.27 6.57.51 9.86.74 1.23.08 1.24-1.86 0-1.93-3.29-.19-6.57-.36-9.86-.5-1.09-.05-1.07 1.6 0 1.69z"/><path d="m281.57 316.07a44 44 0 0 0 8.51-1.66c1.13-.34.64-2.14-.49-1.77a41.69 41.69 0 0 1 -8 1.79.84.84 0 0 0 -.82.82.82.82 0 0 0 .82.82z"/><g fill="#18c4ff"><path d="m251.2 362.74c.74-.17 1.47-.36 2.22-.47h.3a3.24 3.24 0 0 1 .44 0 3.65 3.65 0 0 1 .47 0h.19a6.86 6.86 0 0 1 .81.21l.42.14.19.08h.07a17.31 17.31 0 0 1 2 1.14 1.14 1.14 0 0 0 1.15-2 10.37 10.37 0 0 0 -4.41-1.72 9.75 9.75 0 0 0 -4.56 1 .86.86 0 0 0 -.35 1.07.88.88 0 0 0 1 .5z"/><path d="m215.24 324.18a.85.85 0 0 0 0-1.69.85.85 0 0 0 0 1.69z"/><path d="m221.31 322.52.29-.28a.79.79 0 0 0 .18-.29.62.62 0 0 0 .07-.33.63.63 0 0 0 -.07-.34.79.79 0 0 0 -.18-.29l-.18-.13a.89.89 0 0 0 -.45-.12h-.23a.84.84 0 0 0 -.39.22l-.28.29a.88.88 0 0 0 -.26.62.65.65 0 0 0 .07.34.61.61 0 0 0 .19.28l.17.14a.89.89 0 0 0 .45.12h.23a.86.86 0 0 0 .39-.23z"/><path d="m219.25 328.22a.87.87 0 0 0 0-1.73.87.87 0 0 0 0 1.73z"/><path d="m296.72 321a.82.82 0 0 0 0-1.64.82.82 0 0 0 0 1.64z"/><path d="m299.83 320.76v.28a.66.66 0 0 0 .08.34.57.57 0 0 0 .18.28.88.88 0 0 0 .62.26h.23a.86.86 0 0 0 .39-.23l.14-.17a.89.89 0 0 0 .12-.45v-.28a.73.73 0 0 0 -.08-.36.7.7 0 0 0 -.19-.29.67.67 0 0 0 -.3-.19.6.6 0 0 0 -.35-.08h-.24a1 1 0 0 0 -.41.24l-.14.18a1 1 0 0 0 -.12.47z"/><path d="m297.58 327.06a1.14 1.14 0 0 0 0-2.28 1.14 1.14 0 0 0 0 2.28z"/></g><path d="m278.92 245.08c-16 .23-31.85 5.57-46.13 12.59-7.3 3.59-14.57 7.54-20.82 12.8a61.55 61.55 0 0 0 -13.64 16.37 70.48 70.48 0 0 0 -8.33 22.72c-.21 1.15 1.53 1.65 1.76.49 2.78-13.67 10.26-25.93 20.46-35.37a93.55 93.55 0 0 1 19.11-13.24 134.48 134.48 0 0 1 21.67-9.54 110.51 110.51 0 0 1 26-5.26c1-.08 1-1.58 0-1.56z"/><path d="m190.27 315.79a.77.77 0 0 0 0-1.54.77.77 0 0 0 0 1.54z"/><path d="m191.31 319.82.06-.28a.82.82 0 0 0 0-.44.89.89 0 0 0 -.21-.38l-.17-.13a1 1 0 0 0 -.43-.11.64.64 0 0 0 -.33.07.65.65 0 0 0 -.27.17.89.89 0 0 0 -.21.38.82.82 0 0 0 0 .44l.05.28.08.18a.61.61 0 0 0 .2.22.4.4 0 0 0 .18.1.6.6 0 0 0 .3.07h.21l.18-.08a.48.48 0 0 0 .22-.2.51.51 0 0 0 .14-.26z"/><path d="m252.32 252a80.72 80.72 0 0 0 9.83 1.07l10.09.88 9.85.86c3.43.3 6.89.76 10.34.85 1.11 0 1.41-1.82.27-2-3.26-.48-6.59-.63-9.87-.91l-10.1-.87-9.85-.85c-1.72-.15-3.44-.27-5.17-.39s-3.46-.35-5.17-.29c-.89 0-1.17 1.43-.22 1.64z"/><path d="m232.86 413.64c10.44-3.55 20.87-7.14 31-11.45 9.35-4 19.14-8.42 26.61-15.47 3.72-3.51 6.89-7.59 8-12.69a.87.87 0 0 0 -1.67-.46c-2.73 9-10.67 14.28-18.45 18.73a212.82 212.82 0 0 1 -29 13.54c-5.61 2.16-11.27 4.19-16.94 6.22-1 .35-.57 1.92.44 1.58z"/><path d="m300.17 371.78a.81.81 0 0 0 0-1.62.81.81 0 0 0 0 1.62z"/><path d="m142.18 457.4c13.54 8 27.13 16.09 41.67 22.2a148.4 148.4 0 0 0 22.77 7.51 207.94 207.94 0 0 0 24.31 4.08c9.24 1.08 18.72 2.36 28 1.19 1.2-.15 1.23-2 0-1.9-8.13.9-16.32-.11-24.4-1.05s-16.4-2.16-24.48-3.91c-15.42-3.34-29.88-9.45-43.83-16.72-7.84-4.09-15.5-8.5-23.16-12.92a.88.88 0 0 0 -.88 1.52z"/><path d="m273.77 494h1.72a.82.82 0 0 0 0-1.64h-1.72a.87.87 0 0 0 -.57.24.82.82 0 0 0 -.24.57.8.8 0 0 0 .24.57.82.82 0 0 0 .57.24z"/><path d="m445.75 488.74c-4.25 11-13.92 18.57-19.87 28.55-5.57 9.33-8.55 20.15-11.35 30.56-.79 3-1.56 5.92-2.35 8.88a80 80 0 0 0 -2.14 8.46c-.18 1.21 1.58 2.29 2.2.93a48.71 48.71 0 0 0 2.28-7.4c.7-2.56 1.34-5.13 2-7.69 1.42-5.46 2.89-10.9 4.66-16.26a87.91 87.91 0 0 1 6.25-14.93c2.73-5 6.32-9.27 9.8-13.69 4.08-5.19 8-10.66 10.14-17 .35-1-1.25-1.44-1.63-.45z"/><path d="m503 498.24a305.85 305.85 0 0 1 -46.62 12.1c-1.69.31-1 2.89.71 2.58a261.8 261.8 0 0 0 46.35-13.1c1-.37.57-1.93-.44-1.58z"/><path d="m501.06 549.88c-8.18 6.18-18.08 9.32-27.42 13.23a129.23 129.23 0 0 0 -23.64 13.26 102.64 102.64 0 0 0 -11.59 8.86c-1.27 1.18.58 2.93 1.88 1.87a180.57 180.57 0 0 1 21.91-15.41c8.13-4.79 17-7.86 25.56-11.74a64.65 64.65 0 0 0 14.4-8.67c.77-.63-.27-2-1.08-1.4z"/><path d="m501.21 512.88a58.15 58.15 0 0 1 -20.76 10.21 1.24 1.24 0 0 0 .66 2.39 57.41 57.41 0 0 0 21.27-11.42c.83-.71-.35-1.82-1.17-1.18z"/><path d="m502.09 528a38.38 38.38 0 0 1 -8.09 5.7c-1.42.76-2.87 1.47-4.33 2.15l-2.34 1.06c-.28.13-1.29.7-1.53.44-.84-.91-2.5.31-1.74 1.34 1.21 1.67 3 .84 4.55.11 1.77-.85 3.53-1.71 5.26-2.65a35.72 35.72 0 0 0 9.45-7 .84.84 0 0 0 -1.18-1.18z"/><path d="m458 511.84c.05-12.57.58-25.16 1.69-37.68.5-5.63 1-11.32 2-16.89.84-4.73 2.15-9.51 4.83-13.55 2.8-4.2 7.09-6.73 11.78-8.34 5.45-1.87 11.18-3.06 16.79-4.38q17.87-4.19 36-7.18a558.67 558.67 0 0 1 73.36-7.24c3.06-.09 6.12-.19 9.17-.21 2.67 0 5.47.09 7.92 1.27 3.76 1.82 5.85 5.59 7 9.45a52.56 52.56 0 0 1 1.66 13.4c.19 6.34.18 12.69 0 19-.63 25.08-3.41 50.07-5.71 75q-3.48 37.76-6.91 75.51c-.88 9.72-1.71 20.79-9.74 27.52-3.82 3.19-8.62 5-13.29 6.52-5.66 1.83-11.4 3.45-17.09 5.15l-72.63 21.81c-8.56 2.56-17.57 5.63-26.65 4.5a20.28 20.28 0 0 1 -10.75-4.5 25.48 25.48 0 0 1 -7.56-12.89 67.51 67.51 0 0 1 -1.78-15.91c-.16-6.25 0-12.5.14-18.75.29-11.59.43-23.17.9-34.76.22-5.49.44-11 .77-16.48.1-1.77-2.65-1.76-2.75 0q-1 17.64-1.45 35.3c-.27 12.35-.84 24.77-.38 37.12.38 10.28 2.09 22 10.63 28.82 6.93 5.57 16 5.8 24.42 4.33a123.22 123.22 0 0 0 14-3.64l18.83-5.64 37.4-11.21 18.57-5.57c5.83-1.75 11.71-3.37 17.47-5.3 4.84-1.62 9.63-3.66 13.53-7a26.63 26.63 0 0 0 7.82-12.8 78.42 78.42 0 0 0 2.47-15.23q.91-9.63 1.82-19.27 1.85-19.51 3.61-39c2.39-25.83 5.21-51.67 6.74-77.57a351.93 351.93 0 0 0 .54-38.43c-.42-8.19-2.25-18.73-10.7-22.41a21 21 0 0 0 -8.42-1.42c-3.13 0-6.26.11-9.39.2q-9.42.3-18.84.92-18.94 1.23-37.78 3.77t-37.35 6.33q-9.24 1.89-18.41 4.1c-5.61 1.35-11.43 2.53-16.79 4.69a24.21 24.21 0 0 0 -11.76 9.32c-2.68 4.19-4 9.11-4.81 14-.94 5.66-1.37 11.42-1.82 17.13q-.74 9.59-1 19.21c-.19 6.32-.15 12.65 0 19a.94.94 0 0 0 1.88 0z" fill="#18c4ff"/><path d="m405.67 560.61a45.07 45.07 0 0 0 6.69 10.06 79.25 79.25 0 0 0 8.58 8.8 90.87 90.87 0 0 0 9.81 7.79 27.94 27.94 0 0 0 5.5 2.87c1.74.66 4.59 1.79 6.31.77a1.5 1.5 0 0 0 .3-2.34 4.89 4.89 0 0 0 -2.72-1.06 22.78 22.78 0 0 1 -2.92-.87 24.62 24.62 0 0 1 -5-2.74c-3.25-2.21-6.36-4.71-9.38-7.21a99.75 99.75 0 0 1 -8.44-7.74 93.37 93.37 0 0 1 -7.34-9.13.8.8 0 0 0 -1.38.8z" fill="#18c4ff"/><path d="m350 483.22c4.12 12.38 8.1 24.82 12.2 37.21l6.22 18.82c1.95 5.91 3.82 11.83 5.18 17.9a61.56 61.56 0 0 1 1.07 21.09c-.17 1.35 2 1.6 2.34.32 3.06-12.33-1-25.46-5-37.09-4.3-12.55-8.7-25.07-13.1-37.59q-3.7-10.53-7.36-21.08c-.33-1-1.86-.56-1.53.42z"/><path d="m113.82 718c-22.92 33.52-45.12 67.51-67.59 101.3q-9.52 14.34-19 28.66a1.47 1.47 0 0 0 .52 2c35 17.1 70.74 32.85 107.77 45.07 36.69 12.11 74.64 20.71 113.24 23.55 38.19 2.81 77.07-.09 114-10.59 8.27-2.35 17-4.68 24.61-8.86 7.33-4 12.16-10.44 13.42-18.78 1.28-8.52-.21-17.29-1.1-25.78q-1.53-14.64-3.08-29.26c-4.16-39-8.41-78.1-12.49-117.16q-.74-7-1.46-14c-.19-1.84-3.08-1.86-2.89 0 4 38.44 8.13 76.85 12.2 115.28 2 18.73 4.14 37.46 5.87 56.22.75 8.13 1.18 17.37-4 24.28-4.9 6.59-13.41 9.32-20.87 11.77-36.12 11.87-74.41 16-112.3 14.39s-75.53-9-111.87-20.13c-36.69-11.19-72.19-26-106.85-42.38q-6.39-3-12.75-6.1l.53 2q33.46-50.8 66.81-101.72 9.43-14.37 18.7-28.86c.56-.89-.81-1.67-1.39-.82z"/><path d="m285.69 522.29c2.06 2.59 4.38 5 6.43 7.59a51.81 51.81 0 0 1 5.51 8.46c3.11 6.12 5 12.84 6.88 19.41a230.63 230.63 0 0 1 7.94 40.82q.58 5.79.91 11.59c.21 4 .16 7.92.39 11.87a1.29 1.29 0 0 0 2.58 0c.2-3.62 0-7.3-.17-10.92s-.39-7-.71-10.41c-.66-7.06-1.64-14.09-2.93-21.05s-2.92-13.95-4.86-20.8a125.42 125.42 0 0 0 -7-19.66 60 60 0 0 0 -13.83-18.1.85.85 0 0 0 -1.19 1.2z" fill="#18c4ff"/><path d="m317.35 754.66c-2.79 23.66-5.4 47.33-8 71l-1 8.94c-.21 2-1.06 4.87.29 6.64 1 1.27 3.22 1.32 3.4-.58.11-1.17-.91-2.89-2.27-2.08-.84.5-.78 1.65-.87 2.48-.17 1.56-.34 3.12-.5 4.68q-.44 4.32-.81 8.64-.76 8.9-1.21 17.81c-.33 6.6-.49 13.21-.53 19.82s-.19 13.42.33 20.07a.92.92 0 0 0 1.83 0c.13-5.2-.08-10.41 0-15.61s.16-10.41.36-15.61c.39-10.41 1-20.8 2-31.17q.38-3.94.81-7.89a5.62 5.62 0 0 0 .1-1c-.07-.66.5-.49-.74-.5-1.64 0-.26.55-.09-.58 0-.27-.17-.74-.17-1a16.69 16.69 0 0 1 .17-1.86l1.66-15.64c1.1-10.43 2.23-20.85 3.29-31.28q1.82-17.62 3.55-35.26c.1-1-1.47-1-1.59 0z" fill="#18c4ff"/><path d="m395 890.81c-4.5 6-11.91 9-19 11.46-57 19.38-119.32 19.46-178.33 7.73-51.31-10.23-100.47-29.1-148-51.17-9.76 18.85-20.06 44.53-24.67 74.17h374.7z"/><path d="m292.57 468.7a108.07 108.07 0 0 0 15.84-11.91q3.64-3.29 6.95-6.92a67.66 67.66 0 0 0 6.36-7.78c.56-.86-.76-1.91-1.44-1.11-2.13 2.49-4.08 5.11-6.27 7.54s-4.39 4.65-6.73 6.84a107 107 0 0 1 -15.51 12c-.86.55-.07 1.92.8 1.38z" fill="#fff"/><path d="m303.44 477.82a61.8 61.8 0 0 0 10.56-10.35.91.91 0 0 0 0-1.25.89.89 0 0 0 -1.24 0 60.52 60.52 0 0 1 -10.32 10.35c-.71.55.24 1.8 1 1.25z" fill="#fff"/><path d="m84.57 923.14a53.84 53.84 0 0 0 28.43-21.27c.86-1.28-1.21-2.49-2.06-1.21a51.5 51.5 0 0 1 -26.94 20.51c-1.25.4-.72 2.37.54 2z" fill="#18c4ff"/><path d="m381.69 698.19c6.61 17.8 20.76 34.73 39.84 39.43a39.64 39.64 0 0 0 28.39-3.62c9.1-4.92 16.08-13.15 21.28-22a89.47 89.47 0 0 0 7.27-15.78c1.92-5.42 3.82-11.27 4.18-17 .09-1.4-2-1.57-2.36-.32-1.48 4.69-2.38 9.53-4 14.2a91.81 91.81 0 0 1 -5.86 13.74c-4.53 8.59-10.64 16.9-18.8 22.36a36.57 36.57 0 0 1 -26.15 5.95c-9.23-1.51-17.61-6.29-24.49-12.5-7.7-6.95-13.49-15.74-17.86-25.1-.38-.83-1.82-.24-1.49.63z"/><path d="m413.47 675c.17-3 .43-5.94.81-8.89s1-5.9 1.49-8.85c.22-1.4-1.87-2-2.16-.6a84.4 84.4 0 0 0 -1.2 9.11c-.31 3.07-.5 6.14-.58 9.23 0 1.06 1.57 1 1.64 0z"/><rect height="65.42" rx="6.4" width="65.42" x="597.2" y="187.91"/><path d="m656.22 251h-49.15c-2.49 0-5.63.5-7.05-2.12-1-1.8-.51-4.74-.51-6.71v-43.17c0-2-.5-5.14.67-6.92 1.56-2.34 4.59-1.84 7-1.84h43.08c2.06 0 4.2-.17 6.27 0a4.16 4.16 0 0 1 3.75 4.21v2.41 28.14c0 7.28.13 14.58 0 21.86a4.15 4.15 0 0 1 -4.09 4.18c-3 .08-3 4.71 0 4.63a8.84 8.84 0 0 0 8.66-7.88 23 23 0 0 0 0-2.35v-43.28c0-2.58.05-5.17 0-7.75a8.83 8.83 0 0 0 -4.69-7.83 10.6 10.6 0 0 0 -4.89-1h-26.27c-8.34 0-16.67 0-25 0a8.92 8.92 0 0 0 -9.15 9.06v8.84 42.52a10.87 10.87 0 0 0 .61 4.11 8.85 8.85 0 0 0 8.18 5.54c7.62.14 15.25 0 22.87 0h29.67c3.01-.01 3.02-4.65.04-4.65z"/><rect fill="#18c4ff" height="65.42" rx="6.4" width="65.42" x="586.3" y="187.91"/><path d="m645.31 251h-49.14c-2.49 0-5.64.5-7.06-2.12-1-1.8-.5-4.74-.5-6.71v-43.17c0-2-.51-5.14.67-6.92 1.56-2.34 4.59-1.84 7-1.84h43.09c2.06 0 4.2-.17 6.26 0a4.15 4.15 0 0 1 3.75 4.21v2.41 28.14c0 7.28.14 14.58 0 21.86a4.14 4.14 0 0 1 -4.09 4.18c-3 .08-3 4.71 0 4.63a8.82 8.82 0 0 0 8.66-7.88 20.43 20.43 0 0 0 .06-2.35v-43.28c0-2.58 0-5.17 0-7.75a8.85 8.85 0 0 0 -4.69-7.83 10.62 10.62 0 0 0 -4.89-1h-26.3c-8.33 0-16.66 0-25 0a8.93 8.93 0 0 0 -9.16 9.06v8.84 42.52a10.87 10.87 0 0 0 .62 4.11 8.85 8.85 0 0 0 8.18 5.54c7.61.14 15.24 0 22.86 0h29.67c2.99-.01 2.99-4.65.01-4.65z" fill="#18c4ff"/><path d="m645.31 251h-49.14c-2.49 0-5.64.5-7.06-2.12-1-1.8-.5-4.74-.5-6.71v-43.17c0-2-.51-5.14.67-6.92 1.56-2.34 4.59-1.84 7-1.84h43.09c2.06 0 4.2-.17 6.26 0a4.15 4.15 0 0 1 3.75 4.21v2.41 28.14c0 7.28.14 14.58 0 21.86a4.14 4.14 0 0 1 -4.09 4.18c-3 .08-3 4.71 0 4.63a8.82 8.82 0 0 0 8.66-7.88 20.43 20.43 0 0 0 .06-2.35v-43.28c0-2.58 0-5.17 0-7.75a8.85 8.85 0 0 0 -4.69-7.83 10.62 10.62 0 0 0 -4.89-1h-26.3c-8.33 0-16.66 0-25 0a8.93 8.93 0 0 0 -9.16 9.06v8.84 42.52a10.87 10.87 0 0 0 .62 4.11 8.85 8.85 0 0 0 8.18 5.54c7.61.14 15.24 0 22.86 0h29.67c2.99-.01 2.99-4.65.01-4.65z"/><path d="m630.5 204.3c-.82 1-1.87 1.76-2.75 2.71s-1.66 2-2.46 3c-1.69 2.14-3.22 4.39-4.78 6.62s-2.88 4.27-4.2 6.47c-.69 1.13-1.36 2.27-2 3.41l-1 1.71-.5.85c-.43.64-.23.44.59-.61l2.25-.61a2.45 2.45 0 0 1 1.49.57c.21.17.23.17 0 0a4.84 4.84 0 0 0 -.77-.8c-.53-.57-1.07-1.13-1.61-1.69-1.34-1.4-2.6-3.14-4.58-3.58-3.28-.72-5.51 1.93-5 5 .32 2.1 2.64 3.93 4 5.45s2.79 3.34 4.93 3.77c3.14.62 5.21-1.2 6.74-3.69l3.12-5.08c2-3.32 3.82-6.78 5.61-10.24.92-1.78 1.74-3.58 2.55-5.41.41-.93.76-1.87 1.09-2.83s.48-2 .88-3c.82-2-2.26-3.68-3.58-2.09z" fill="#fff"/><path d="m882.41 219.85q-37-.22-73.95-.42c-24.65-.15-49.3-.13-74-.11q-20.75 0-41.48.17a1.13 1.13 0 0 0 0 2.26c24.65.2 49.3.17 74 .15s49.3-.15 74-.28l41.47-.24a.77.77 0 0 0 0-1.53z"/><path d="m882.41 233.91q-37-.22-73.95-.42c-24.65-.15-49.3-.13-74-.11q-20.75 0-41.48.17a1.13 1.13 0 0 0 0 2.26c24.65.2 49.3.17 74 .15s49.3-.15 74-.28l41.47-.24a.77.77 0 0 0 0-1.53z"/><path d="m775.1 248c-21.31-.29-42.61-.56-63.91-.53-6.06 0-12.1.05-18.16.17a1.13 1.13 0 0 0 0 2.25c21.3.4 42.61.15 63.91-.12l18.16-.24a.77.77 0 0 0 0-1.53z"/><path d="m693.03 187.91h82.06v13.77h-82.06z" fill="#18c4ff"/><path d="m775.1 199.37h-82.1l2.32 2.31v-13.77l-2.32 2.31h82.1l-2.32-2.31v13.77c0 3 4.63 3 4.63 0v-13.77a2.35 2.35 0 0 0 -2.31-2.32h-82.1a2.35 2.35 0 0 0 -2.31 2.32v13.77a2.34 2.34 0 0 0 2.31 2.32h82.1c2.97 0 2.98-4.63 0-4.63z" fill="#18c4ff"/><rect height="65.42" rx="6.4" width="65.42" x="597.2" y="309.53"/><path d="m656.22 372.63h-49.15c-2.49 0-5.63.5-7.05-2.11-1-1.81-.51-4.75-.51-6.72v-43.2c0-2-.5-5.14.67-6.92 1.56-2.34 4.59-1.84 7-1.84h43.08c2.06 0 4.2-.17 6.27 0a4.16 4.16 0 0 1 3.75 4.21v2.41 28.12c0 7.28.13 14.58 0 21.86a4.15 4.15 0 0 1 -4.09 4.18c-3 .08-3 4.71 0 4.63a8.84 8.84 0 0 0 8.66-7.88 23 23 0 0 0 0-2.35v-43.24c0-2.58.05-5.17 0-7.75a8.83 8.83 0 0 0 -4.69-7.83 10.6 10.6 0 0 0 -4.89-1h-26.27c-8.34 0-16.67 0-25 0a8.92 8.92 0 0 0 -9.15 9.06v8.84 42.5a10.84 10.84 0 0 0 .61 4.11 8.84 8.84 0 0 0 8.18 5.54c7.62.14 15.25 0 22.87 0h29.67c3.01.01 3.02-4.62.04-4.62z"/><rect fill="#18c4ff" height="65.42" rx="6.4" width="65.42" x="586.3" y="309.53"/><path d="m645.31 372.63h-49.14c-2.49 0-5.64.5-7.06-2.11-1-1.81-.5-4.75-.5-6.72v-43.2c0-2-.51-5.14.67-6.92 1.56-2.34 4.59-1.84 7-1.84h43.09c2.06 0 4.2-.17 6.26 0a4.15 4.15 0 0 1 3.75 4.21v2.41 28.12c0 7.28.14 14.58 0 21.86a4.14 4.14 0 0 1 -4.09 4.18c-3 .08-3 4.71 0 4.63a8.82 8.82 0 0 0 8.66-7.88 20.43 20.43 0 0 0 .05-2.37v-43.22c0-2.58 0-5.17 0-7.75a8.85 8.85 0 0 0 -4.69-7.83 10.62 10.62 0 0 0 -4.89-1h-26.29c-8.33 0-16.66 0-25 0a8.93 8.93 0 0 0 -9.16 9.06v8.84 42.5a10.84 10.84 0 0 0 .62 4.11 8.84 8.84 0 0 0 8.18 5.54c7.61.14 15.24 0 22.86 0h29.67c2.99.01 2.99-4.62.01-4.62z" fill="#18c4ff"/><path d="m630.5 325.92c-.82 1-1.87 1.76-2.75 2.71s-1.66 2-2.46 3c-1.69 2.14-3.22 4.39-4.78 6.63s-2.88 4.26-4.2 6.46c-.69 1.13-1.36 2.27-2 3.41l-1 1.71-.5.85c-.43.64-.23.44.59-.61l2.25-.61a2.45 2.45 0 0 1 1.49.57c.21.17.23.17 0 0a4.84 4.84 0 0 0 -.77-.8c-.53-.57-1.07-1.13-1.61-1.69-1.34-1.4-2.6-3.14-4.58-3.58-3.28-.72-5.51 1.93-5 5 .32 2.1 2.64 3.93 4 5.45s2.79 3.34 4.93 3.77c3.14.62 5.21-1.2 6.74-3.69l3.12-5.08c2-3.31 3.82-6.78 5.61-10.24.92-1.77 1.74-3.58 2.55-5.41.41-.93.76-1.87 1.09-2.83s.48-2 .88-3c.82-2-2.26-3.68-3.58-2.09z" fill="#fff"/><path d="m882.41 341.47q-37-.23-73.95-.42c-24.65-.15-49.3-.12-74-.11q-20.75 0-41.48.17a1.13 1.13 0 0 0 0 2.26c24.65.2 49.3.17 74 .15s49.3-.14 74-.28l41.47-.24a.77.77 0 0 0 0-1.53z"/><path d="m882.41 355.53-73.95-.42c-24.65-.15-49.3-.13-74-.11q-20.75 0-41.48.17a1.13 1.13 0 0 0 0 2.26c24.65.2 49.3.17 74 .15s49.3-.14 74-.28l41.47-.24a.77.77 0 0 0 0-1.53z"/><path d="m775.1 369.59c-21.31-.29-42.61-.56-63.91-.53-6.06 0-12.1.05-18.16.17a1.13 1.13 0 0 0 0 2.26c21.3.39 42.61.14 63.91-.13q9.07-.12 18.16-.24a.77.77 0 0 0 0-1.53z"/><path d="m693.03 309.53h82.06v13.77h-82.06z" fill="#18c4ff"/><path d="m775.1 321h-82.1l2.32 2.31v-13.78l-2.32 2.31h82.1l-2.32-2.31v13.77c0 3 4.63 3 4.63 0v-13.77a2.35 2.35 0 0 0 -2.31-2.32h-82.1a2.35 2.35 0 0 0 -2.31 2.32v13.77a2.34 2.34 0 0 0 2.31 2.31h82.1c2.97 0 2.98-4.61 0-4.61z" fill="#18c4ff"/><rect height="65.42" rx="6.4" width="65.42" x="689.79" y="431.15"/><path d="m748.81 494.25h-49.15c-2.49 0-5.63.5-7-2.11-1-1.81-.51-4.75-.51-6.72v-43.2c0-2-.5-5.14.67-6.92 1.56-2.34 4.59-1.84 7-1.84h43.08c2.06 0 4.21-.17 6.27 0a4.16 4.16 0 0 1 3.75 4.21v2.41 28.12c0 7.28.13 14.58 0 21.87a4.15 4.15 0 0 1 -4.09 4.17c-3 .08-3 4.71 0 4.63a8.84 8.84 0 0 0 8.66-7.88 22.92 22.92 0 0 0 0-2.35v-43.24c0-2.58.05-5.17 0-7.75a8.83 8.83 0 0 0 -4.69-7.83 10.6 10.6 0 0 0 -4.89-1h-26.28c-8.33 0-16.66 0-25 0a8.92 8.92 0 0 0 -9.15 9.07v8.83 42.5a10.92 10.92 0 0 0 .61 4.12 8.84 8.84 0 0 0 8.18 5.53c7.62.14 15.25 0 22.87 0h29.67c2.97.01 2.98-4.62 0-4.62z"/><rect fill="#18c4ff" height="65.42" rx="6.4" width="65.42" x="678.89" y="431.15"/><path d="m737.9 494.25h-49.14c-2.49 0-5.64.5-7-2.11-1-1.81-.51-4.75-.51-6.72v-43.2c0-2-.51-5.14.67-6.92 1.56-2.34 4.59-1.84 7-1.84h43.08c2.06 0 4.2-.17 6.26 0a4.15 4.15 0 0 1 3.75 4.21v2.41 28.12c0 7.28.14 14.58 0 21.87a4.14 4.14 0 0 1 -4.09 4.17c-3 .08-3 4.71 0 4.63a8.82 8.82 0 0 0 8.66-7.88 20.37 20.37 0 0 0 .06-2.35v-43.24c0-2.58 0-5.17 0-7.75a8.83 8.83 0 0 0 -4.69-7.83 10.62 10.62 0 0 0 -4.89-1h-26.34c-8.33 0-16.66 0-25 0a8.93 8.93 0 0 0 -9.16 9.07v8.83 42.5a10.93 10.93 0 0 0 .62 4.12 8.84 8.84 0 0 0 8.18 5.53c7.61.14 15.25 0 22.86 0h29.68c2.98.01 2.99-4.62 0-4.62z" fill="#18c4ff"/><path d="m723.09 447.54c-.82 1-1.87 1.76-2.75 2.71s-1.66 2-2.46 3c-1.69 2.14-3.22 4.39-4.78 6.63s-2.88 4.26-4.2 6.46c-.69 1.13-1.36 2.27-2 3.41l-1 1.71-.51.85c-.43.64-.23.44.6-.61l2.24-.61a2.45 2.45 0 0 1 1.49.57c.21.17.23.18.05 0a4.84 4.84 0 0 0 -.77-.8c-.53-.57-1.07-1.13-1.61-1.69-1.33-1.4-2.6-3.14-4.58-3.58-3.28-.72-5.51 1.93-5 5 .31 2.1 2.63 3.93 4 5.45s2.79 3.34 4.93 3.77c3.14.62 5.22-1.19 6.74-3.69l3.12-5.08c2-3.31 3.82-6.78 5.61-10.24.92-1.77 1.74-3.58 2.55-5.41.41-.93.76-1.87 1.09-2.83s.48-2 .88-3c.82-2-2.26-3.68-3.58-2.09z" fill="#fff"/><path d="m975 463.09-74-.42c-24.65-.14-49.3-.12-73.95-.11q-20.75 0-41.47.17a1.13 1.13 0 0 0 0 2.26c24.65.2 49.3.17 74 .15s49.3-.14 73.95-.28l41.47-.23a.77.77 0 0 0 0-1.54z"/><path d="m975 477.15-74-.42c-24.65-.15-49.3-.12-73.95-.11q-20.75 0-41.47.17a1.13 1.13 0 0 0 0 2.26c24.65.2 49.3.17 74 .15s49.3-.14 73.95-.28l41.47-.23a.77.77 0 0 0 0-1.54z"/><path d="m867.69 491.21c-21.31-.29-42.61-.56-63.91-.53-6 0-12.1.05-18.15.17a1.13 1.13 0 0 0 0 2.26c21.29.39 42.61.14 63.9-.13q9.09-.12 18.16-.24a.77.77 0 0 0 0-1.53z"/><path d="m785.63 431.15h82.06v13.77h-82.06z" fill="#18c4ff"/><path d="m867.69 442.61h-82.06l2.31 2.31v-13.77l-2.31 2.31h82.06l-2.32-2.31v13.77c0 3 4.63 3 4.63 0v-13.77a2.35 2.35 0 0 0 -2.31-2.32h-82.06a2.35 2.35 0 0 0 -2.32 2.32v13.77a2.35 2.35 0 0 0 2.32 2.31h82.06c2.97 0 2.98-4.62 0-4.62z" fill="#18c4ff"/><rect height="65.42" rx="6.4" width="65.42" x="689.79" y="552.77"/><path d="m748.81 615.87h-49.15c-2.49 0-5.63.5-7-2.11-1-1.81-.51-4.75-.51-6.72v-43.2c0-2-.5-5.14.67-6.91 1.56-2.35 4.59-1.85 7-1.85h43.08c2.06 0 4.21-.17 6.27 0a4.16 4.16 0 0 1 3.75 4.21v2.41 28.12c0 7.28.13 14.58 0 21.87a4.15 4.15 0 0 1 -4.09 4.17c-3 .08-3 4.71 0 4.63a8.84 8.84 0 0 0 8.66-7.88 22.92 22.92 0 0 0 0-2.35v-43.26c0-2.58.05-5.17 0-7.75a8.83 8.83 0 0 0 -4.69-7.83 10.6 10.6 0 0 0 -4.89-1h-26.28c-8.33 0-16.66 0-25 0a8.92 8.92 0 0 0 -9.15 9.07v8.83 42.5a10.92 10.92 0 0 0 .61 4.12 8.84 8.84 0 0 0 8.18 5.53c7.62.14 15.25 0 22.87 0h29.67c2.97.03 2.98-4.6 0-4.6z"/><rect fill="#18c4ff" height="65.42" rx="6.4" width="65.42" x="678.89" y="552.77"/><path d="m737.9 615.87h-49.14c-2.49 0-5.64.5-7-2.11-1-1.81-.51-4.75-.51-6.72v-43.2c0-2-.51-5.14.67-6.91 1.56-2.35 4.59-1.85 7-1.85h43.08c2.06 0 4.2-.17 6.26 0a4.15 4.15 0 0 1 3.74 4.22v2.41 28.12c0 7.28.14 14.58 0 21.87a4.14 4.14 0 0 1 -4.09 4.17c-3 .08-3 4.71 0 4.63a8.82 8.82 0 0 0 8.66-7.88 20.37 20.37 0 0 0 .06-2.35v-43.27c0-2.58 0-5.17 0-7.75a8.83 8.83 0 0 0 -4.69-7.83 10.62 10.62 0 0 0 -4.89-1h-26.33c-8.33 0-16.66 0-25 0a8.93 8.93 0 0 0 -9.16 9.07v8.83 42.5a10.93 10.93 0 0 0 .62 4.12 8.84 8.84 0 0 0 8.18 5.53c7.61.14 15.25 0 22.86 0h29.68c2.98.03 2.99-4.6 0-4.6z" fill="#18c4ff"/><path d="m723.09 569.16c-.82 1-1.87 1.77-2.75 2.71s-1.66 2-2.46 3c-1.69 2.14-3.22 4.39-4.78 6.63s-2.88 4.27-4.2 6.46c-.69 1.13-1.36 2.27-2 3.41l-1 1.71-.51.85c-.43.64-.23.44.6-.61l2.24-.61a2.45 2.45 0 0 1 1.49.57c.21.17.23.18.05 0a5.27 5.27 0 0 0 -.77-.8c-.53-.57-1.07-1.13-1.61-1.69-1.33-1.4-2.6-3.14-4.58-3.58-3.28-.72-5.51 1.93-5 5 .31 2.1 2.63 3.93 4 5.45s2.79 3.34 4.93 3.77c3.14.62 5.22-1.19 6.74-3.69l3.12-5.08c2-3.31 3.82-6.78 5.61-10.24.92-1.77 1.74-3.58 2.55-5.41.41-.93.76-1.87 1.09-2.83s.48-2 .88-3c.82-2-2.26-3.68-3.58-2.09z" fill="#fff"/><path d="m975 584.71-74-.42c-24.65-.14-49.3-.12-73.95-.11q-20.75 0-41.47.17a1.13 1.13 0 0 0 0 2.26c24.65.2 49.3.17 74 .15s49.3-.14 73.95-.28l41.47-.23a.77.77 0 0 0 0-1.54z"/><path d="m975 598.77-74-.42c-24.65-.14-49.3-.12-73.95-.11q-20.75 0-41.47.17a1.13 1.13 0 0 0 0 2.26c24.65.2 49.3.17 74 .15s49.3-.14 73.95-.28l41.47-.23a.77.77 0 0 0 0-1.54z"/><path d="m867.69 612.83c-21.31-.29-42.61-.56-63.91-.53-6 0-12.1.05-18.15.17a1.13 1.13 0 0 0 0 2.26c21.29.4 42.61.14 63.9-.13l18.16-.23a.77.77 0 0 0 0-1.54z"/><path d="m785.63 552.77h82.06v13.77h-82.06z" fill="#18c4ff"/><path d="m867.69 564.23h-82.06l2.31 2.31v-13.77l-2.31 2.31h82.06l-2.32-2.31v13.77c0 3 4.63 3 4.63 0v-13.77a2.35 2.35 0 0 0 -2.31-2.32h-82.06a2.35 2.35 0 0 0 -2.32 2.32v13.77a2.35 2.35 0 0 0 2.32 2.31h82.06c2.97 0 2.98-4.62 0-4.62z" fill="#18c4ff"/><rect height="65.42" rx="6.4" width="65.42" x="597.2" y="674.39"/><path d="m656.22 737.5h-49.15c-2.49 0-5.63.49-7.05-2.12-1-1.81-.51-4.75-.51-6.72v-43.2c0-2-.5-5.14.67-6.91 1.56-2.35 4.59-1.85 7-1.85h43.08c2.06 0 4.2-.17 6.27 0a4.16 4.16 0 0 1 3.75 4.21v2.41 28.12c0 7.29.13 14.58 0 21.87a4.17 4.17 0 0 1 -4.09 4.18c-3 .07-3 4.7 0 4.62a8.84 8.84 0 0 0 8.66-7.87 23 23 0 0 0 0-2.35v-43.25c0-2.58.05-5.17 0-7.75a8.83 8.83 0 0 0 -4.69-7.83 10.6 10.6 0 0 0 -4.89-1h-26.27c-8.34 0-16.67 0-25 0a8.92 8.92 0 0 0 -9.15 9.07v8.83 42.5a10.92 10.92 0 0 0 .61 4.12 8.84 8.84 0 0 0 8.18 5.53c7.62.14 15.25 0 22.87 0h29.67c3.01.01 3.02-4.61.04-4.61z"/><rect fill="#18c4ff" height="65.42" rx="6.4" width="65.42" x="586.3" y="674.39"/><path d="m645.31 737.5h-49.14c-2.49 0-5.64.49-7.06-2.12-1-1.81-.5-4.75-.5-6.72v-43.2c0-2-.51-5.14.67-6.91 1.56-2.35 4.59-1.85 7-1.85h43.09c2.06 0 4.2-.17 6.26 0a4.15 4.15 0 0 1 3.75 4.21v2.41 28.12c0 7.29.14 14.58 0 21.87a4.15 4.15 0 0 1 -4.09 4.18c-3 .07-3 4.7 0 4.62a8.82 8.82 0 0 0 8.66-7.87 20.49 20.49 0 0 0 .06-2.35v-43.25c0-2.58 0-5.17 0-7.75a8.85 8.85 0 0 0 -4.69-7.83 10.62 10.62 0 0 0 -4.89-1h-26.3c-8.33 0-16.66 0-25 0a8.93 8.93 0 0 0 -9.16 9.07v8.83 42.5a10.93 10.93 0 0 0 .62 4.12 8.84 8.84 0 0 0 8.18 5.53c7.61.14 15.24 0 22.86 0h29.67c2.99.01 2.99-4.61.01-4.61z" fill="#18c4ff"/><path d="m630.5 690.78c-.82 1-1.87 1.77-2.75 2.71s-1.66 2-2.46 3c-1.69 2.14-3.22 4.39-4.78 6.63s-2.88 4.27-4.2 6.46c-.69 1.13-1.36 2.27-2 3.41l-1 1.71-.5.85c-.43.64-.23.44.59-.61l2.25-.61a2.51 2.51 0 0 1 1.49.57c.21.17.23.18 0 0a5.27 5.27 0 0 0 -.77-.8l-1.61-1.69c-1.34-1.4-2.6-3.14-4.58-3.58-3.28-.71-5.51 1.93-5 5 .32 2.1 2.64 3.93 4 5.45s2.79 3.34 4.93 3.77c3.14.62 5.21-1.19 6.74-3.68l3.12-5.09c2-3.31 3.82-6.78 5.61-10.24.92-1.77 1.74-3.58 2.55-5.41.41-.93.76-1.87 1.09-2.83s.48-2 .88-3c.82-2-2.26-3.68-3.58-2.09z" fill="#fff"/><path d="m882.41 706.33-73.95-.42c-24.65-.14-49.3-.12-74-.11q-20.75 0-41.48.17a1.13 1.13 0 0 0 0 2.26c24.65.2 49.3.17 74 .15s49.3-.14 74-.28l41.47-.23a.77.77 0 0 0 0-1.54z"/><path d="m882.41 720.39-73.95-.39c-24.65-.14-49.3-.12-74-.11q-20.75 0-41.48.17a1.13 1.13 0 0 0 0 2.26c24.65.2 49.3.17 74 .15s49.3-.14 74-.28l41.47-.23a.77.77 0 0 0 0-1.54z"/><path d="m775.1 734.45c-21.31-.29-42.61-.56-63.91-.53-6.06 0-12.1.05-18.16.17a1.13 1.13 0 0 0 0 2.26c21.3.4 42.61.14 63.91-.13l18.16-.22a.77.77 0 0 0 0-1.54z"/><path d="m693.03 674.39h82.06v13.77h-82.06z" fill="#18c4ff"/><path d="m775.1 685.85h-82.1l2.32 2.31v-13.77l-2.32 2.31h82.1l-2.32-2.31v13.77c0 3 4.63 3 4.63 0v-13.77a2.35 2.35 0 0 0 -2.31-2.32h-82.1a2.35 2.35 0 0 0 -2.31 2.32v13.77a2.34 2.34 0 0 0 2.31 2.31h82.1c2.97 0 2.98-4.62 0-4.62z" fill="#18c4ff"/><rect height="65.42" rx="6.4" width="65.42" x="597.2" y="796.01"/><path d="m656.22 859.12h-49.15c-2.49 0-5.63.49-7.05-2.12-1-1.81-.51-4.75-.51-6.72v-43.2c0-2-.5-5.14.67-6.91 1.56-2.35 4.59-1.85 7-1.85h43.08c2.06 0 4.2-.16 6.27 0a4.16 4.16 0 0 1 3.75 4.21v2.41 28.12c0 7.29.13 14.58 0 21.87a4.17 4.17 0 0 1 -4.09 4.18c-3 .07-3 4.7 0 4.62a8.83 8.83 0 0 0 8.66-7.87 23 23 0 0 0 0-2.35v-43.25c0-2.58.05-5.17 0-7.75a8.83 8.83 0 0 0 -4.69-7.83 10.59 10.59 0 0 0 -4.89-1h-26.27c-8.34 0-16.67 0-25 0a8.91 8.91 0 0 0 -9.15 9.06v8.83 42.5a10.92 10.92 0 0 0 .61 4.12 8.84 8.84 0 0 0 8.18 5.53c7.62.14 15.25 0 22.87 0h29.67c3.01.02 3.02-4.6.04-4.6z"/><rect fill="#18c4ff" height="65.42" rx="6.4" width="65.42" x="586.3" y="796.01"/><path d="m645.31 859.12h-49.14c-2.49 0-5.64.49-7.06-2.12-1-1.81-.5-4.75-.5-6.72v-43.2c0-2-.51-5.14.67-6.91 1.56-2.35 4.59-1.85 7-1.85h43.09c2.06 0 4.2-.16 6.26 0a4.15 4.15 0 0 1 3.75 4.21v2.41 28.12c0 7.29.14 14.58 0 21.87a4.15 4.15 0 0 1 -4.09 4.18c-3 .07-3 4.7 0 4.62a8.82 8.82 0 0 0 8.66-7.87 20.49 20.49 0 0 0 .06-2.35v-43.25c0-2.58 0-5.17 0-7.75a8.85 8.85 0 0 0 -4.69-7.83 10.61 10.61 0 0 0 -4.89-1h-26.3c-8.33 0-16.66 0-25 0a8.91 8.91 0 0 0 -9.16 9.06v8.83 42.5a10.93 10.93 0 0 0 .62 4.12 8.84 8.84 0 0 0 8.18 5.53c7.61.14 15.24 0 22.86 0h29.67c2.99.02 2.99-4.6.01-4.6z" fill="#18c4ff"/><path d="m737.9 615.87h-49.14c-2.49 0-5.64.5-7-2.11-1-1.81-.51-4.75-.51-6.72v-43.2c0-2-.51-5.14.67-6.91 1.56-2.35 4.59-1.85 7-1.85h43.08c2.06 0 4.2-.17 6.26 0a4.15 4.15 0 0 1 3.74 4.22v2.41 28.12c0 7.28.14 14.58 0 21.87a4.14 4.14 0 0 1 -4.09 4.17c-3 .08-3 4.71 0 4.63a8.82 8.82 0 0 0 8.66-7.88 20.37 20.37 0 0 0 .06-2.35v-43.27c0-2.58 0-5.17 0-7.75a8.83 8.83 0 0 0 -4.69-7.83 10.62 10.62 0 0 0 -4.89-1h-26.33c-8.33 0-16.66 0-25 0a8.93 8.93 0 0 0 -9.16 9.07v8.83 42.5a10.93 10.93 0 0 0 .62 4.12 8.84 8.84 0 0 0 8.18 5.53c7.61.14 15.25 0 22.86 0h29.68c2.98.03 2.99-4.6 0-4.6z"/><path d="m645.31 859.12h-49.14c-2.49 0-5.64.49-7.06-2.12-1-1.81-.5-4.75-.5-6.72v-43.2c0-2-.51-5.14.67-6.91 1.56-2.35 4.59-1.85 7-1.85h43.09c2.06 0 4.2-.16 6.26 0a4.15 4.15 0 0 1 3.75 4.21v2.41 28.12c0 7.29.14 14.58 0 21.87a4.15 4.15 0 0 1 -4.09 4.18c-3 .07-3 4.7 0 4.62a8.82 8.82 0 0 0 8.66-7.87 20.49 20.49 0 0 0 .06-2.35v-43.25c0-2.58 0-5.17 0-7.75a8.85 8.85 0 0 0 -4.69-7.83 10.61 10.61 0 0 0 -4.89-1h-26.3c-8.33 0-16.66 0-25 0a8.91 8.91 0 0 0 -9.16 9.06v8.83 42.5a10.93 10.93 0 0 0 .62 4.12 8.84 8.84 0 0 0 8.18 5.53c7.61.14 15.24 0 22.86 0h29.67c2.99.02 2.99-4.6.01-4.6z"/><path d="m630.5 812.4c-.82 1-1.87 1.77-2.75 2.71s-1.66 2-2.46 3c-1.69 2.14-3.22 4.39-4.78 6.63s-2.88 4.27-4.2 6.46c-.69 1.13-1.36 2.27-2 3.41l-1 1.71-.5.85c-.43.64-.23.44.59-.61l2.25-.61a2.51 2.51 0 0 1 1.49.57c.21.17.23.18 0 0a5.27 5.27 0 0 0 -.77-.8l-1.62-1.72c-1.34-1.4-2.6-3.14-4.58-3.57-3.28-.72-5.51 1.92-5 5 .32 2.1 2.64 3.93 4 5.45s2.79 3.34 4.93 3.77c3.14.62 5.21-1.19 6.74-3.68l3.16-4.97c2-3.31 3.82-6.78 5.61-10.24.92-1.77 1.74-3.58 2.55-5.41.41-.93.76-1.87 1.09-2.83s.48-2 .88-3c.82-2-2.26-3.68-3.58-2.09z" fill="#fff"/><path d="m882.41 828-73.95-.42c-24.65-.14-49.3-.12-74-.11q-20.75 0-41.48.17a1.13 1.13 0 0 0 0 2.26c24.65.2 49.3.17 74 .15s49.3-.14 74-.28l41.47-.23a.77.77 0 0 0 0-1.54z"/><path d="m882.41 842-73.95-.42c-24.65-.14-49.3-.12-74-.11q-20.75 0-41.48.17a1.13 1.13 0 0 0 0 2.26c24.65.2 49.3.17 74 .15s49.3-.14 74-.28l41.47-.23a.77.77 0 0 0 0-1.54z"/><path d="m775.1 856.07c-21.31-.29-42.61-.56-63.91-.53-6.06 0-12.1.06-18.16.17a1.13 1.13 0 0 0 0 2.26c21.3.4 42.61.14 63.91-.13l18.16-.23a.77.77 0 0 0 0-1.54z"/><g fill="#18c4ff"><path d="m693.03 796.01h82.06v13.77h-82.06z"/><path d="m775.1 807.47h-82.1l2.32 2.31v-13.78l-2.32 2.32h82.1l-2.32-2.32v13.77c0 3 4.63 3 4.63 0v-13.77a2.34 2.34 0 0 0 -2.31-2.31h-82.1a2.34 2.34 0 0 0 -2.31 2.31v13.77a2.35 2.35 0 0 0 2.31 2.33h82.1c2.97 0 2.98-4.63 0-4.63z"/></g></svg>