<?xml version="1.0" encoding="UTF-8" standalone="no"?>
<svg width="32px" height="32px" viewBox="0 0 32 32" version="1.1" xmlns="http://www.w3.org/2000/svg" xmlns:xlink="http://www.w3.org/1999/xlink">
    <!-- Generator: Sketch 44.1 (41455) - http://www.bohemiancoding.com/sketch -->
    <title>avatar 7</title>
    <desc>Created with Sketch.</desc>
    <defs></defs>
    <g id="Page-2-Copy" stroke="none" stroke-width="1" fill="none" fill-rule="evenodd">
        <g id="183" stroke="#979797">
            <path d="M17.0008717,20 C16.4481055,20 16,20.4438648 16,21 L16,21 C16,21.5522847 16.4446309,22 17.0008717,22 L30.9991283,22 C31.5518945,22 32,21.5561352 32,21 L32,21 C32,20.4477153 31.5553691,20 30.9991283,20 L17.0008717,20 L17.0008717,20 Z M17.0008717,25 C16.4481055,25 16,25.4438648 16,26 L16,26 C16,26.5522847 16.4446309,27 17.0008717,27 L30.9991283,27 C31.5518945,27 32,26.5561352 32,26 L32,26 C32,25.4477153 31.5553691,25 30.9991283,25 L17.0008717,25 L17.0008717,25 Z M17.0008717,30 C16.4481055,30 16,30.4438648 16,31 L16,31 C16,31.5522847 16.4446309,32 17.0008717,32 L30.9991283,32 C31.5518945,32 32,31.5561352 32,31 L32,31 C32,30.4477153 31.5553691,30 30.9991283,30 L17.0008717,30 L17.0008717,30 Z" id="Rectangle-564" stroke="none" fill="#2A2630" fill-rule="evenodd"></path>
            <path d="M20,7 C20,3.13400675 16.8659932,0 13,0 C9.13400675,0 6,3.13400675 6,7 C6,10.8659932 9.13400675,14 13,14 C16.8659932,14 20,10.8659932 20,7 L20,7 Z M8,7 C8,4.23857625 10.2385763,2 13,2 C15.7614237,2 18,4.23857625 18,7 C18,9.76142375 15.7614237,12 13,12 C10.2385763,12 8,9.76142375 8,7 L8,7 Z M13.0016135,14 C5.83504285,14 0,19.6024712 0,26.5208645 L0,31 C0,31.5522847 0.44771525,32 1,32 C1.55228475,32 2,31.5522847 2,31 L2,26.5208645 C2,20.7256497 6.92182241,16 13.0016135,16 C14.3223103,16 15.6094757,16.2222643 16.8203399,16.651035 C17.340949,16.8353842 17.9124306,16.5627918 18.0967799,16.0421827 C18.2811291,15.5215737 18.0085367,14.950092 17.4879276,14.7657428 C16.0632005,14.2612426 14.5503059,14 13.0016135,14 L13.0016135,14 Z" id="Oval-74" stroke="none" fill="#95909E" fill-rule="nonzero"></path>
        </g>
    </g>
</svg>