<svg xmlns="http://www.w3.org/2000/svg" xmlns:xlink="http://www.w3.org/1999/xlink" version="1.1" width="256" height="256" viewBox="0 0 256 256" xml:space="preserve">
<desc>Created with Fabric.js 1.7.22</desc>
<defs>
</defs>
<g transform="translate(128 128) scale(0.72 0.72)" style="">
	<g style="stroke: none; stroke-width: 0; stroke-dasharray: none; stroke-linecap: butt; stroke-linejoin: miter; stroke-miterlimit: 10; fill: none; fill-rule: nonzero; opacity: 1;" transform="translate(-175.05 -175.05000000000004) scale(3.89 3.89)" >
	<circle cx="45" cy="45" r="45" style="stroke: none; stroke-width: 1; stroke-dasharray: none; stroke-linecap: butt; stroke-linejoin: miter; stroke-miterlimit: 10; fill: rgb(32,196,203); fill-rule: nonzero; opacity: 1;" transform="  matrix(1 0 0 1 0 0) "/>
	<path d="M 33.643 48.26 c -7.877 0 -14.287 -6.409 -14.287 -14.286 s 6.409 -14.287 14.287 -14.287 S 47.93 26.096 47.93 33.974 S 41.521 48.26 33.643 48.26 z M 33.643 25.687 c -4.569 0 -8.287 3.717 -8.287 8.287 s 3.717 8.287 8.287 8.287 s 8.287 -3.717 8.287 -8.287 S 38.212 25.687 33.643 25.687 z" style="stroke: none; stroke-width: 1; stroke-dasharray: none; stroke-linecap: butt; stroke-linejoin: miter; stroke-miterlimit: 10; fill: rgb(27,167,173); fill-rule: nonzero; opacity: 1;" transform=" matrix(1 0 0 1 0 0) " stroke-linecap="round" />
	<path d="M 49.246 67.393 v -7.814 c 0 -6.067 -4.964 -11.032 -11.032 -11.032 h -7.814 c -6.067 0 -11.032 4.964 -11.032 11.032 v 7.814 H 49.246" style="stroke: none; stroke-width: 1; stroke-dasharray: none; stroke-linecap: butt; stroke-linejoin: miter; stroke-miterlimit: 10; fill: rgb(27,167,173); fill-rule: nonzero; opacity: 1;" transform=" matrix(1 0 0 1 0 0) " stroke-linecap="round" />
	<path d="M 49.246 70.394 H 19.369 c -1.657 0 -3 -1.343 -3 -3 v -7.814 c 0 -7.737 6.294 -14.032 14.032 -14.032 h 7.814 c 7.737 0 14.031 6.295 14.031 14.032 v 7.814 C 52.246 69.051 50.903 70.394 49.246 70.394 z M 22.369 64.394 h 23.877 v -4.814 c 0 -4.429 -3.603 -8.032 -8.031 -8.032 H 30.4 c -4.429 0 -8.032 3.604 -8.032 8.032 V 64.394 z" style="stroke: none; stroke-width: 1; stroke-dasharray: none; stroke-linecap: butt; stroke-linejoin: miter; stroke-miterlimit: 10; fill: rgb(27,167,173); fill-rule: nonzero; opacity: 1;" transform=" matrix(1 0 0 1 0 0) " stroke-linecap="round" />
	<circle cx="36.676" cy="30.936" r="11.286" style="stroke: none; stroke-width: 1; stroke-dasharray: none; stroke-linecap: butt; stroke-linejoin: miter; stroke-miterlimit: 10; fill: rgb(255,255,255); fill-rule: nonzero; opacity: 1;" transform="  matrix(1 0 0 1 0 0) "/>
	<path d="M 36.68 45.224 c -7.877 0 -14.287 -6.409 -14.287 -14.287 S 28.802 16.65 36.68 16.65 s 14.286 6.409 14.286 14.287 S 44.557 45.224 36.68 45.224 z M 36.68 22.65 c -4.569 0 -8.287 3.717 -8.287 8.287 s 3.717 8.287 8.287 8.287 c 4.569 0 8.286 -3.717 8.286 -8.287 S 41.249 22.65 36.68 22.65 z" style="stroke: none; stroke-width: 1; stroke-dasharray: none; stroke-linecap: butt; stroke-linejoin: miter; stroke-miterlimit: 10; fill: rgb(255,255,255); fill-rule: nonzero; opacity: 1;" transform=" matrix(1 0 0 1 0 0) " stroke-linecap="round" />
	<path d="M 51.807 64.832 v -7.814 c 0 -6.067 -4.964 -11.032 -11.032 -11.032 h -7.814 c -6.067 0 -11.032 4.964 -11.032 11.032 v 7.814 H 51.807" style="stroke: none; stroke-width: 1; stroke-dasharray: none; stroke-linecap: butt; stroke-linejoin: miter; stroke-miterlimit: 10; fill: rgb(255,255,255); fill-rule: nonzero; opacity: 1;" transform=" matrix(1 0 0 1 0 0) " stroke-linecap="round" />
	<path d="M 51.808 67.832 H 21.93 c -1.657 0 -3 -1.343 -3 -3 v -7.814 c 0 -7.737 6.294 -14.031 14.032 -14.031 h 7.814 c 7.737 0 14.032 6.294 14.032 14.031 v 7.814 C 54.808 66.489 53.465 67.832 51.808 67.832 z M 24.93 61.832 h 23.878 v -4.814 c 0 -4.429 -3.603 -8.031 -8.032 -8.031 h -7.814 c -4.429 0 -8.032 3.603 -8.032 8.031 V 61.832 z" style="stroke: none; stroke-width: 1; stroke-dasharray: none; stroke-linecap: butt; stroke-linejoin: miter; stroke-miterlimit: 10; fill: rgb(255,255,255); fill-rule: nonzero; opacity: 1;" transform=" matrix(1 0 0 1 0 0) " stroke-linecap="round" />
	<circle cx="63.149" cy="61.119" r="16.219" style="stroke: none; stroke-width: 1; stroke-dasharray: none; stroke-linecap: butt; stroke-linejoin: miter; stroke-miterlimit: 10; fill: rgb(32,196,203); fill-rule: nonzero; opacity: 1;" transform="  matrix(1 0 0 1 0 0) "/>
	<path d="M 67.44 73.263 c -0.768 0 -1.535 -0.293 -2.121 -0.879 L 53.517 60.581 c -1.172 -1.171 -1.172 -3.071 0 -4.242 c 1.172 -1.172 3.07 -1.172 4.242 0 l 11.803 11.803 c 1.172 1.171 1.172 3.071 0 4.242 C 68.976 72.97 68.208 73.263 67.44 73.263 z" style="stroke: none; stroke-width: 1; stroke-dasharray: none; stroke-linecap: butt; stroke-linejoin: miter; stroke-miterlimit: 10; fill: rgb(27,167,173); fill-rule: nonzero; opacity: 1;" transform=" matrix(1 0 0 1 0 0) " stroke-linecap="round" />
	<path d="M 55.638 73.263 c -0.768 0 -1.535 -0.293 -2.121 -0.879 c -1.172 -1.171 -1.172 -3.071 0 -4.242 l 11.803 -11.803 c 1.172 -1.172 3.07 -1.172 4.242 0 c 1.172 1.171 1.172 3.071 0 4.242 L 57.759 72.384 C 57.173 72.97 56.405 73.263 55.638 73.263 z" style="stroke: none; stroke-width: 1; stroke-dasharray: none; stroke-linecap: butt; stroke-linejoin: miter; stroke-miterlimit: 10; fill: rgb(27,167,173); fill-rule: nonzero; opacity: 1;" transform=" matrix(1 0 0 1 0 0) " stroke-linecap="round" />
	<path d="M 70.221 70.271 c -0.768 0 -1.535 -0.293 -2.121 -0.879 L 56.297 57.589 c -1.172 -1.171 -1.172 -3.071 0 -4.242 c 1.172 -1.172 3.07 -1.172 4.242 0 l 11.803 11.803 c 1.172 1.171 1.172 3.071 0 4.242 C 71.756 69.978 70.988 70.271 70.221 70.271 z" style="stroke: none; stroke-width: 1; stroke-dasharray: none; stroke-linecap: butt; stroke-linejoin: miter; stroke-miterlimit: 10; fill: rgb(255,255,255); fill-rule: nonzero; opacity: 1;" transform=" matrix(1 0 0 1 0 0) " stroke-linecap="round" />
	<path d="M 58.418 70.271 c -0.768 0 -1.535 -0.293 -2.121 -0.879 c -1.172 -1.171 -1.172 -3.071 0 -4.242 L 68.1 53.347 c 1.172 -1.172 3.07 -1.172 4.242 0 c 1.172 1.171 1.172 3.071 0 4.242 L 60.539 69.392 C 59.953 69.978 59.186 70.271 58.418 70.271 z" style="stroke: none; stroke-width: 1; stroke-dasharray: none; stroke-linecap: butt; stroke-linejoin: miter; stroke-miterlimit: 10; fill: rgb(255,255,255); fill-rule: nonzero; opacity: 1;" transform=" matrix(1 0 0 1 0 0) " stroke-linecap="round" />
</g>
</g>
</svg>