<?xml version="1.0" ?><svg viewBox="0 0 60 60" xmlns="http://www.w3.org/2000/svg"><defs><style>.a,.c{fill:none;stroke-linecap:round;stroke-linejoin:round;}.a{stroke:#1c4db8;stroke-width:1.5px;}.b{fill:#e82e5f;}.c{stroke:#e82e5f;stroke-width:2.5px;}</style></defs><title/><path class="a" d="M35.749,58,36.9,49.57a16.169,16.169,0,0,0,9.241-12.025,2.3,2.3,0,0,0-2.284-2.638h0a2.3,2.3,0,0,0-2.254,1.95,11.536,11.536,0,0,1-22.739,0,2.3,2.3,0,0,0-2.254-1.95h0a2.3,2.3,0,0,0-2.284,2.629,16.168,16.168,0,0,0,8.806,11.823L24.275,58"/><line class="a" x1="15.195" x2="11.919" y1="35.385" y2="24.464"/><line class="a" x1="44.898" x2="48.105" y1="35.156" y2="24.465"/><path class="a" d="M54.334,22.475a1.317,1.317,0,0,1-.862.713c-2.755.713-14.581,3.675-23.46,3.675S9.346,23.908,6.565,23.19a1.32,1.32,0,0,1-.872-.731C3.229,17.052,2.021,10.645,1.951,3.332a1.319,1.319,0,0,1,1.612-1.3c18.521,4.2,36.094,4.162,52.851.046a1.32,1.32,0,0,1,1.635,1.309C57.9,10.418,56.952,16.956,54.334,22.475Z"/><path class="b" d="M8.391,9.545q.423.69.777,1.417c.235.479.424.909.572,1.276.383.949.714,1.918,1.01,2.9.311,1.029.6,2.073.81,3.127a1.262,1.262,0,0,0,1.206.918,1.307,1.307,0,0,0,1.205-.918c.125-.315.241-.635.364-.952q.2-.5.4-1c.072-.18.145-.359.219-.539.038-.094.077-.188.116-.282.014-.033.159-.379.1-.237s.069-.161.083-.2c.05-.116.1-.233.151-.349.087-.2.176-.4.265-.6.192-.426.389-.85.6-1.27a13.485,13.485,0,0,1,1.148-2.009,1.259,1.259,0,0,0-.449-1.71,1.277,1.277,0,0,0-1.71.448,23.478,23.478,0,0,0-2.368,4.723c-.462,1.1-.884,2.208-1.323,3.314h2.411c-.221-1.092-.519-2.173-.844-3.238a26.22,26.22,0,0,0-2.578-6.077A1.25,1.25,0,0,0,8.391,9.545Z"/><path class="b" d="M34.113,11.311a35.519,35.519,0,0,0,.607,8.934,1.262,1.262,0,0,0,1.538.873,1.276,1.276,0,0,0,.873-1.537,32.876,32.876,0,0,1-.518-8.27,1.25,1.25,0,0,0-2.5,0Z"/><path class="b" d="M31.205,12.319a24.508,24.508,0,0,0,8.1-.215,1.258,1.258,0,0,0,.873-1.538,1.29,1.29,0,0,0-1.538-.873L38.3,9.74a1.253,1.253,0,0,0-.873,1.537,1.29,1.29,0,0,0,1.538.873L39.3,12.1l-.665-2.411a19.622,19.622,0,0,1-3.375.371q-.9.027-1.807-.017c-.277-.014-.552-.033-.828-.057-.137-.012-.274-.026-.41-.041l-.273-.031c-.156-.02-.181-.023-.074-.009a1.285,1.285,0,0,0-1.537.873,1.262,1.262,0,0,0,.873,1.537Z"/><path class="b" d="M42.557,10.849q-.145,2.313-.132,4.633c.005.755.008,1.513.055,2.267a3.009,3.009,0,0,0,.719,2c1,1.034,2.961.771,4.219.46A8.322,8.322,0,0,0,51,18.258a1.25,1.25,0,0,0-1.768-1.768,5.411,5.411,0,0,1-1.159.81,4.567,4.567,0,0,1-1.192.462,4.313,4.313,0,0,1-1.386.191c-.134,0-.267,0-.4-.009-.092,0-.238-.037-.231-.02,0,0,.147.115.167.138.046.074.037.057-.028-.051.044.111.052.124.025.037s-.056-.248-.03-.066a3.371,3.371,0,0,1-.024-.348c-.016-.331-.024-.662-.032-.993q-.024-.952-.019-1.9.009-1.946.133-3.888a1.257,1.257,0,0,0-1.25-1.25,1.279,1.279,0,0,0-1.25,1.25Z"/><path class="b" d="M44.438,11.928c.132-.067.265-.133.4-.2.041-.019.463-.2.221-.1q.374-.154.758-.285a14.211,14.211,0,0,1,1.709-.47c.272-.057.545-.1.819-.147.149-.022.156-.023.019,0q.117-.015.234-.027c.155-.016.311-.03.467-.041a11.483,11.483,0,0,1,1.71.009,1.257,1.257,0,0,0,1.25-1.25,1.28,1.28,0,0,0-1.25-1.25,14.572,14.572,0,0,0-7.6,1.6,1.258,1.258,0,0,0-.448,1.711,1.279,1.279,0,0,0,1.71.448Z"/><path class="b" d="M44.005,16.311A28.473,28.473,0,0,0,48.961,15a1.25,1.25,0,0,0-.664-2.411A28.589,28.589,0,0,1,43.341,13.9a1.248,1.248,0,0,0-.747.574,1.25,1.25,0,0,0,1.411,1.836Z"/><ellipse class="c" cx="24.269" cy="15.313" rx="4.732" ry="2.951" transform="translate(4.33 35.95) rotate(-78.238)"/><path class="a" d="M34.424,33.893a1.653,1.653,0,0,1,1.653,1.653v6.468c0,2.422-2.617,4.385-5.846,4.385s-5.847-1.963-5.847-4.385V35.546a1.653,1.653,0,0,1,1.653-1.653Z"/><path class="a" d="M24.384,40.283c4.605.985,8.393-.552,11.694-3.6"/></svg>