<?xml version="1.0" ?><!DOCTYPE svg  PUBLIC '-//W3C//DTD SVG 1.1//EN'  'http://www.w3.org/Graphics/SVG/1.1/DTD/svg11.dtd'><svg height="512px" style="enable-background:new 0 0 512 512;" version="1.1" viewBox="0 0 512 512" width="512px" xml:space="preserve" xmlns="http://www.w3.org/2000/svg" xmlns:xlink="http://www.w3.org/1999/xlink"><g id="_x36_54_x2C__Categories_x2C__check_x2C__list_x2C__listing_x2C__mark"><g><path d="M399.804,58.58h-17.429h-0.108H124.981v374.562v0.081v12.217h274.822V58.58    z M97.457,412.862V39.603c0-1.847,1.52-3.339,3.337-3.339h254.702V26.002H80.678v386.86H97.457z M121.644,51.901h257.282v-8.96    h-20.008h-0.109H104.135v373.26v0.081v13.521h14.171V55.24C118.307,53.395,119.826,51.901,121.644,51.901z M171.76,82.36h-19.383    v19.385h19.383V82.36z M149.036,75.682h26.062c1.846,0,3.341,1.494,3.341,3.34v26.063c0,1.847-1.495,3.34-3.341,3.34h-26.062    c-1.846,0-3.337-1.493-3.337-3.34V79.021C145.698,77.176,147.189,75.682,149.036,75.682z M171.76,132.857h-19.383v19.383h19.383    V132.857z M149.036,126.178h26.062c1.846,0,3.341,1.494,3.341,3.34v26.062c0,1.847-1.495,3.339-3.341,3.339h-26.062    c-1.846,0-3.337-1.492-3.337-3.339v-26.062C145.698,127.672,147.189,126.178,149.036,126.178z M171.76,183.325h-19.383v19.411    h19.383V183.325z M149.036,176.673h26.062c1.846,0,3.341,1.493,3.341,3.339v26.064c0,1.817-1.495,3.339-3.341,3.339h-26.062    c-1.846,0-3.337-1.521-3.337-3.339v-26.064C145.698,178.166,147.189,176.673,149.036,176.673z M171.76,233.82h-19.383v19.41    h19.383V233.82z M149.036,227.17h26.062c1.846,0,3.341,1.492,3.341,3.311v26.063c0,1.847-1.495,3.339-3.341,3.339h-26.062    c-1.846,0-3.337-1.492-3.337-3.339V230.48C145.698,228.662,147.189,227.17,149.036,227.17z M323.679,357.181    c-0.923-1.466-2.362-2.878-4.341-4.126l-34.913,21.854l-2.854,1.793c-5.292,3.339-12.023,5.131-18.568,5.348    c-6.622,0.218-13.192-1.195-18.053-4.262l-1.467-0.924l-0.27-0.162l-37.71-23.7c-2.007,1.275-3.474,2.687-4.425,4.18    c-0.786,1.276-1.193,2.634-1.193,3.964s0.407,2.66,1.221,3.936c0.923,1.494,2.39,2.933,4.397,4.182l41.265,25.927    c4.236,2.66,9.911,3.99,15.61,3.99c5.731,0,11.402-1.33,15.639-3.99l41.265-25.927c1.983-1.249,3.475-2.688,4.397-4.182    c0.814-1.275,1.222-2.632,1.222-3.936C324.9,359.814,324.493,358.457,323.679,357.181z M207.079,346.159l0.053,0.026l0.218,0.108    l39.418,24.788c4.236,2.66,9.911,3.99,15.61,3.99c5.731,0,11.402-1.33,15.639-3.99l2.334-1.467l38.931-24.46    c2.226-1.413,3.882-3.015,4.914-4.644c0.789-1.275,1.221-2.551,1.249-3.801c0.028-1.166-0.298-2.361-1.004-3.447    c-0.733-1.195-1.874-2.308-3.446-3.285l-44.687-28.07c-3.748-2.362-8.96-3.42-14.309-3.259c-5.429,0.19-10.967,1.63-15.231,4.316    l-41.265,25.927c-2.253,1.412-3.881,3.015-4.913,4.643c-0.786,1.275-1.221,2.58-1.25,3.801c-0.024,1.167,0.298,2.362,1.007,3.475    c0.73,1.167,1.871,2.281,3.418,3.259L207.079,346.159z M325.202,349.092c1.737,1.384,3.092,2.932,4.124,4.561    c1.494,2.39,2.253,4.941,2.253,7.492c0,2.552-0.759,5.104-2.253,7.492c-1.113,1.738-2.604,3.368-4.507,4.861    c1.902,1.465,3.394,3.121,4.507,4.859c1.494,2.388,2.253,4.941,2.253,7.492c0,2.552-0.759,5.104-2.253,7.493    c-1.464,2.308-3.637,4.452-6.514,6.243l-41.241,25.927c-5.345,3.367-12.297,5.05-19.193,5.05c-6.868,0-13.816-1.683-19.165-5.05    l-41.237-25.927c-2.878-1.791-5.05-3.936-6.517-6.243c-1.492-2.39-2.253-4.941-2.253-7.493c0-2.551,0.762-5.104,2.253-7.492    c1.112-1.738,2.607-3.395,4.506-4.859c-1.899-1.493-3.394-3.123-4.506-4.861c-1.492-2.388-2.253-4.94-2.253-7.492    c0-2.551,0.762-5.103,2.253-7.492c1.003-1.603,2.333-3.096,3.99-4.452c-2.036-1.438-3.636-3.067-4.749-4.86    c-1.386-2.226-2.063-4.67-2.011-7.167c0.056-2.416,0.814-4.887,2.281-7.166c1.547-2.471,3.881-4.778,6.977-6.733l41.265-25.926    c5.292-3.313,12.027-5.131,18.568-5.322c6.626-0.217,13.196,1.168,18.054,4.235l44.714,28.099c2.415,1.52,4.262,3.34,5.539,5.348    c1.383,2.227,2.063,4.697,2.007,7.168c-0.053,2.442-0.839,4.887-2.278,7.194C328.701,345.832,327.153,347.543,325.202,349.092z     M193.343,108.396c-1.846,0-3.341-1.493-3.341-3.312c0-1.846,1.495-3.339,3.341-3.339h130.96c1.846,0,3.341,1.493,3.341,3.339    c0,1.818-1.495,3.312-3.341,3.312H193.343z M193.343,95.066c-1.846,0-3.341-1.493-3.341-3.34c0-1.846,1.495-3.338,3.341-3.338    h49.516c1.846,0,3.341,1.492,3.341,3.338c0,1.847-1.495,3.34-3.341,3.34H193.343z M193.343,158.893    c-1.846,0-3.341-1.494-3.341-3.34c0-1.82,1.495-3.34,3.341-3.34h130.96c1.846,0,3.341,1.52,3.341,3.34    c0,1.846-1.495,3.34-3.341,3.34H193.343z M193.343,145.561c-1.846,0-3.341-1.52-3.341-3.338c0-1.847,1.495-3.34,3.341-3.34h49.516    c1.846,0,3.341,1.493,3.341,3.34c0,1.818-1.495,3.338-3.341,3.338H193.343z M193.343,209.387c-1.846,0-3.341-1.493-3.341-3.34    c0-1.817,1.495-3.339,3.341-3.339h130.96c1.846,0,3.341,1.521,3.341,3.339c0,1.847-1.495,3.34-3.341,3.34H193.343z     M193.343,196.058c-1.846,0-3.341-1.521-3.341-3.339c0-1.846,1.495-3.34,3.341-3.34h49.516c1.846,0,3.341,1.494,3.341,3.34    c0,1.817-1.495,3.339-3.341,3.339H193.343z M193.343,259.883c-1.846,0-3.341-1.492-3.341-3.339s1.495-3.339,3.341-3.339h130.96    c1.846,0,3.341,1.492,3.341,3.339s-1.495,3.339-3.341,3.339H193.343z M193.343,246.525c-1.846,0-3.341-1.492-3.341-3.338    c0-1.82,1.495-3.313,3.341-3.313h49.516c1.846,0,3.341,1.493,3.341,3.313c0,1.846-1.495,3.338-3.341,3.338H193.343z     M50.843,468.109c-1.846,0-3.341-1.494-3.341-3.34s1.495-3.339,3.341-3.339h294.04c1.847,0,3.338,1.493,3.338,3.339    s-1.491,3.34-3.338,3.34H50.843z M223.016,485.999c-1.846,0-3.341-1.494-3.341-3.34s1.495-3.339,3.341-3.339H426.49    c1.846,0,3.341,1.493,3.341,3.339s-1.495,3.34-3.341,3.34H223.016z M447.312,485.999c-1.846,0-3.337-1.494-3.337-3.34    s1.491-3.339,3.337-3.339h25.44c1.846,0,3.338,1.493,3.338,3.339s-1.492,3.34-3.338,3.34H447.312z M39.248,485.456    c-1.846,0-3.337-1.493-3.337-3.339s1.491-3.34,3.337-3.34h96.431c1.821,0,3.313,1.494,3.313,3.34s-1.492,3.339-3.313,3.339H39.248    z M323.679,381.914c-0.923-1.494-2.362-2.906-4.341-4.155l-37.767,23.646c-5.345,3.366-12.297,5.051-19.193,5.051    c-6.868,0-13.816-1.685-19.165-5.051l-37.71-23.699c-2.007,1.275-3.474,2.714-4.425,4.208c-0.786,1.248-1.193,2.605-1.193,3.936    s0.407,2.66,1.221,3.936c0.923,1.494,2.39,2.933,4.397,4.182l41.265,25.927c4.236,2.66,9.911,3.99,15.61,3.99    c5.731,0,11.402-1.33,15.639-3.99l41.265-25.927c1.983-1.249,3.475-2.688,4.397-4.182c0.814-1.275,1.222-2.605,1.222-3.936    S324.493,383.162,323.679,381.914z" style="fill-rule:evenodd;clip-rule:evenodd;"/></g></g><g id="Layer_1"/></svg>