<?xml version="1.0" ?><svg viewBox="0 0 88 88" xmlns="http://www.w3.org/2000/svg"><title/><g id="Notepad"><path d="M59,13v8.76l3-3V10a1.0029,1.0029,0,0,0-1-1H53v3h5A1.0029,1.0029,0,0,1,59,13Z"/><path d="M59,83a1.0029,1.0029,0,0,1-1,1H10a1.0029,1.0029,0,0,1-1-1V13a1.0029,1.0029,0,0,1,1-1h5V9H7a1.0029,1.0029,0,0,0-1,1V86a1.0029,1.0029,0,0,0,1,1H61a1.0029,1.0029,0,0,0,1-1V39.24l-3,3Z"/><path d="M15,14H11V82H57V44.24L41.12,60.12a2.978,2.978,0,0,1-1.39.79l-8,2a2.98,2.98,0,0,1-2.85-.79,3.0268,3.0268,0,0,1-.79-2.85l2-8a2.978,2.978,0,0,1,.79-1.39L57,23.76V14H53v2a1.0029,1.0029,0,0,1-1,1H16a1.0029,1.0029,0,0,1-1-1ZM14,34a1.0029,1.0029,0,0,1,1-1h7.0011a1,1,0,0,1,0,2H16v8h8V39a1,1,0,0,1,2,0v5a1.0029,1.0029,0,0,1-1,1H15a1.0029,1.0029,0,0,1-1-1Zm10.2911.29a1.0041,1.0041,0,1,1,1.42,1.42l-5,5a1.0141,1.0141,0,0,1-1.42,0l-2-2a1.0041,1.0041,0,0,1,1.42-1.42l1.29,1.3Zm1.42,15.42-5,5a1.0141,1.0141,0,0,1-1.42,0l-2-2a1.0041,1.0041,0,0,1,1.42-1.42l1.29,1.3,4.29-4.3a1.0041,1.0041,0,1,1,1.42,1.42ZM14,48a1.0029,1.0029,0,0,1,1-1h7.0011a1,1,0,1,1,0,2H16v8h8V53a1,1,0,0,1,2,0v5a1.0029,1.0029,0,0,1-1,1H15a1.0029,1.0029,0,0,1-1-1ZM36.0011,79h-21a1,1,0,1,1,0-2h21a1,1,0,1,1,0,2Zm5-4h-26a1,1,0,1,1,0-2h26a1,1,0,1,1,0,2Zm6-4h-32a1,1,0,1,1,0-2h32a1,1,0,1,1,0,2Zm6-6a1,1,0,1,1,0,2h-38a1,1,0,1,1,0-2Zm-24-44h21a1,1,0,1,1,0,2h-21a1,1,0,0,1,0-2Zm0,6h14a1,1,0,1,1,0,2h-14a1,1,0,0,1,0-2Zm0,8h10a1,1,0,1,1,0,2h-10a1,1,0,0,1,0-2Zm0,6h5a1,1,0,1,1,0,2h-5a1,1,0,0,1,0-2Zm-3.29-20.71a1.008,1.008,0,0,1,0,1.42l-5,5a1.0141,1.0141,0,0,1-1.42,0l-2-2a1.0041,1.0041,0,0,1,1.42-1.42l1.29,1.3,4.29-4.3A1.008,1.008,0,0,1,25.7111,20.29ZM22,19a1,1,0,0,1,0,2H16v8h8V25a1,1,0,0,1,2,0v5a1.0029,1.0029,0,0,1-1,1H15a1.0029,1.0029,0,0,1-1-1V20a1.0029,1.0029,0,0,1,1-1Z"/><rect height="4.2426" transform="translate(-10.2606 51.6428) rotate(-45)" width="43.255" x="35.5806" y="36.0857"/><rect height="10.4851" transform="translate(8.1536 56.6845) rotate(-45)" width="2.2429" x="71.3797" y="13.2575"/><path d="M80.4659,10.5352a5.2494,5.2494,0,0,0-7.414,0l-2.0508,2.0507L78.4152,20l2.0507-2.0508A5.2485,5.2485,0,0,0,80.4659,10.5352Z"/><rect height="10.4851" transform="translate(-26.8465 42.187) rotate(-45)" width="2.243" x="36.3795" y="48.2575"/><path d="M30.0309,59.7578A1,1,0,0,0,31.2438,60.97l7.45-1.8625-6.8-6.8Z"/><rect height="4.2426" transform="translate(-8.4322 47.2288) rotate(-45)" width="43.255" x="31.1665" y="31.6716"/><path d="M51,9H41V8.2656a7.1772,7.1772,0,0,0-6.1232-7.2122A7.0024,7.0024,0,0,0,27,8V9H17v6H51ZM34.0011,12a4,4,0,1,1,4-4A4.0048,4.0048,0,0,1,34.0011,12Z"/><circle cx="34.0011" cy="8" r="2"/></g></svg>