<svg xmlns="http://www.w3.org/2000/svg" xmlns:xlink="http://www.w3.org/1999/xlink" version="1.1" width="256" height="256" viewBox="0 0 256 256" xml:space="preserve">
<desc>Created with Fabric.js 1.7.22</desc>
<defs>
</defs>
<g transform="translate(128 128) scale(0.72 0.72)" style="">
	<g style="stroke: none; stroke-width: 0; stroke-dasharray: none; stroke-linecap: butt; stroke-linejoin: miter; stroke-miterlimit: 10; fill: none; fill-rule: nonzero; opacity: 1;" transform="translate(-175.05 -175.05000000000004) scale(3.89 3.89)" >
	<path d="M 87.333 6.429 H 2.667 C 1.194 6.429 0 7.623 0 9.096 V 62.95 c 0 1.473 1.194 2.667 2.667 2.667 h 24.672 l -7.096 17.191 l 1.849 0.764 l 4.436 -10.745 h 36.947 l 4.435 10.745 l 1.85 -0.764 l -7.096 -17.191 h 24.671 c 1.473 0 2.667 -1.194 2.667 -2.667 V 9.096 C 90 7.623 88.806 6.429 87.333 6.429 z M 62.648 70.826 H 27.352 l 2.151 -5.21 h 30.995 L 62.648 70.826 z M 88 62.95 c 0 0.368 -0.299 0.667 -0.667 0.667 H 2.667 C 2.299 63.616 2 63.317 2 62.95 V 9.096 c 0 -0.368 0.299 -0.667 0.667 -0.667 h 84.667 C 87.701 8.429 88 8.728 88 9.096 V 62.95 z" style="stroke: none; stroke-width: 1; stroke-dasharray: none; stroke-linecap: butt; stroke-linejoin: miter; stroke-miterlimit: 10; fill: rgb(0,0,0); fill-rule: nonzero; opacity: 1;" transform=" matrix(1 0 0 1 0 0) " stroke-linecap="round" />
	<path d="M 64.781 14.982 h -8.581 c -0.822 0 -1.234 0.994 -0.652 1.575 l 2.666 2.666 l -15.56 15.56 l -5.449 -5.449 l -1.46 -1.46 c -0.494 -0.494 -1.295 -0.494 -1.789 0 l -9.288 9.288 c -0.494 0.494 -0.494 1.295 0 1.789 l 1.46 1.46 c 0.494 0.494 1.295 0.494 1.789 0 l 6.933 -6.933 l 6.898 6.898 c 0.494 0.494 1.295 0.494 1.789 0 l 0.743 -0.743 c 0.038 -0.03 0.078 -0.057 0.114 -0.093 l 17.069 -17.069 l 2.666 2.666 c 0.581 0.581 1.575 0.17 1.575 -0.652 v -8.581 C 65.703 15.395 65.29 14.982 64.781 14.982 z" style="stroke: none; stroke-width: 1; stroke-dasharray: none; stroke-linecap: butt; stroke-linejoin: miter; stroke-miterlimit: 10; fill: rgb(0,0,0); fill-rule: nonzero; opacity: 1;" transform=" matrix(1 0 0 1 0 0) " stroke-linecap="round" />
	<path d="M 54.49 32.373 v 22.751 c 0 0.699 0.566 1.265 1.265 1.265 h 4.04 c 0.699 0 1.265 -0.566 1.265 -1.265 V 25.802 L 54.49 32.373 z" style="stroke: none; stroke-width: 1; stroke-dasharray: none; stroke-linecap: butt; stroke-linejoin: miter; stroke-miterlimit: 10; fill: rgb(0,0,0); fill-rule: nonzero; opacity: 1;" transform=" matrix(1 0 0 1 0 0) " stroke-linecap="round" />
	<path d="M 45.973 40.89 v 14.234 c 0 0.699 0.566 1.265 1.265 1.265 h 4.04 c 0.699 0 1.265 -0.566 1.265 -1.265 V 34.319 L 45.973 40.89 z" style="stroke: none; stroke-width: 1; stroke-dasharray: none; stroke-linecap: butt; stroke-linejoin: miter; stroke-miterlimit: 10; fill: rgb(0,0,0); fill-rule: nonzero; opacity: 1;" transform=" matrix(1 0 0 1 0 0) " stroke-linecap="round" />
	<path d="M 42.643 42.818 c -0.891 0 -1.729 -0.347 -2.359 -0.977 l -2.827 -2.827 v 16.11 c 0 0.699 0.566 1.265 1.265 1.265 h 4.04 c 0.699 0 1.265 -0.566 1.265 -1.265 V 42.515 C 43.598 42.711 43.129 42.818 42.643 42.818 z" style="stroke: none; stroke-width: 1; stroke-dasharray: none; stroke-linecap: butt; stroke-linejoin: miter; stroke-miterlimit: 10; fill: rgb(0,0,0); fill-rule: nonzero; opacity: 1;" transform=" matrix(1 0 0 1 0 0) " stroke-linecap="round" />
	<path d="M 34.849 36.407 l -5.469 5.468 c -0.137 0.137 -0.286 0.258 -0.441 0.368 v 12.881 c 0 0.699 0.566 1.265 1.265 1.265 h 4.04 c 0.699 0 1.265 -0.566 1.265 -1.265 V 37.068 L 34.849 36.407 z" style="stroke: none; stroke-width: 1; stroke-dasharray: none; stroke-linecap: butt; stroke-linejoin: miter; stroke-miterlimit: 10; fill: rgb(0,0,0); fill-rule: nonzero; opacity: 1;" transform=" matrix(1 0 0 1 0 0) " stroke-linecap="round" />
</g>
</g>
</svg>